G04 #@! TF.FileFunction,Soldermask,Top*
%FSLAX46Y46*%
G04 Gerber Fmt 4.6, Leading zero omitted, Abs format (unit mm)*
G04 Created by KiCad (PCBNEW 4.0.0-rc1-stable) date 10/8/2015 2:57:11 PM*
%MOMM*%
G01*
G04 APERTURE LIST*
%ADD10C,0.100000*%
%ADD11R,2.370000X2.430000*%
%ADD12R,1.727200X1.727200*%
%ADD13O,1.727200X1.727200*%
%ADD14R,1.220000X0.910000*%
%ADD15R,0.550000X1.500000*%
%ADD16R,1.500000X0.550000*%
%ADD17C,3.810000*%
%ADD18R,1.524000X1.524000*%
%ADD19C,1.524000*%
%ADD20R,2.400000X1.500000*%
%ADD21C,2.540000*%
%ADD22C,1.800000*%
%ADD23R,1.350000X0.400000*%
%ADD24C,1.250000*%
%ADD25R,2.100000X1.100000*%
%ADD26O,1.506220X3.014980*%
%ADD27R,1.000000X0.250000*%
%ADD28R,0.250000X1.000000*%
%ADD29R,0.600000X1.550000*%
%ADD30R,0.600000X2.000000*%
%ADD31R,1.550000X0.600000*%
%ADD32R,0.820000X0.500000*%
%ADD33R,0.820000X0.400000*%
%ADD34R,0.500000X0.820000*%
%ADD35R,0.300000X0.850000*%
%ADD36R,0.850000X0.300000*%
%ADD37R,1.300000X1.300000*%
%ADD38R,0.600000X1.500000*%
%ADD39R,1.500000X0.600000*%
%ADD40R,3.657600X2.032000*%
%ADD41R,1.016000X2.032000*%
%ADD42R,0.900000X0.800000*%
%ADD43R,1.250000X1.200000*%
%ADD44R,1.200000X1.600000*%
%ADD45R,0.800000X0.800000*%
%ADD46R,1.300000X0.900000*%
%ADD47C,6.200000*%
%ADD48C,1.900000*%
%ADD49C,1.500000*%
%ADD50C,2.180000*%
%ADD51R,0.900000X0.700000*%
%ADD52R,1.198880X1.198880*%
%ADD53R,0.800100X0.800100*%
G04 APERTURE END LIST*
D10*
D11*
X185120000Y-119400000D03*
X178880000Y-119400000D03*
D12*
X109500000Y-88000000D03*
D13*
X106960000Y-88000000D03*
X109500000Y-85460000D03*
X106960000Y-85460000D03*
X109500000Y-82920000D03*
X106960000Y-82920000D03*
D14*
X155500000Y-119635000D03*
X155500000Y-116365000D03*
X142500000Y-119135000D03*
X142500000Y-115865000D03*
D15*
X116000000Y-94700000D03*
X116800000Y-94700000D03*
X117600000Y-94700000D03*
X118400000Y-94700000D03*
X119200000Y-94700000D03*
X120000000Y-94700000D03*
X120800000Y-94700000D03*
X121600000Y-94700000D03*
X122400000Y-94700000D03*
X123200000Y-94700000D03*
X124000000Y-94700000D03*
D16*
X125700000Y-93000000D03*
X125700000Y-92200000D03*
X125700000Y-91400000D03*
X125700000Y-90600000D03*
X125700000Y-89800000D03*
X125700000Y-89000000D03*
X125700000Y-88200000D03*
X125700000Y-87400000D03*
X125700000Y-86600000D03*
X125700000Y-85800000D03*
X125700000Y-85000000D03*
D15*
X124000000Y-83300000D03*
X123200000Y-83300000D03*
X122400000Y-83300000D03*
X121600000Y-83300000D03*
X120800000Y-83300000D03*
X120000000Y-83300000D03*
X119200000Y-83300000D03*
X118400000Y-83300000D03*
X117600000Y-83300000D03*
X116800000Y-83300000D03*
X116000000Y-83300000D03*
D16*
X114300000Y-85000000D03*
X114300000Y-85800000D03*
X114300000Y-86600000D03*
X114300000Y-87400000D03*
X114300000Y-88200000D03*
X114300000Y-89000000D03*
X114300000Y-89800000D03*
X114300000Y-90600000D03*
X114300000Y-91400000D03*
X114300000Y-92200000D03*
X114300000Y-93000000D03*
D17*
X179300000Y-113000000D03*
X179300000Y-88000000D03*
D18*
X178030000Y-106088000D03*
D19*
X178030000Y-103294000D03*
X178030000Y-100500000D03*
X178030000Y-97833000D03*
X178030000Y-95039000D03*
X180570000Y-96436000D03*
X180570000Y-99230000D03*
X180570000Y-101897000D03*
X180570000Y-104691000D03*
D20*
X150500000Y-125700000D03*
X150500000Y-121300000D03*
X136000000Y-125700000D03*
X136000000Y-121300000D03*
D21*
X112000000Y-74000000D03*
D22*
X188237460Y-82000900D03*
D23*
X185337460Y-79800900D03*
X185337460Y-79150900D03*
X185337460Y-78500900D03*
X185337460Y-77850900D03*
X185337460Y-77200900D03*
D24*
X185337460Y-81000900D03*
X185337460Y-76000900D03*
D22*
X188237460Y-75000900D03*
D25*
X188050000Y-80150000D03*
X188050000Y-76850000D03*
D21*
X184000000Y-74000000D03*
X112000000Y-127000000D03*
D26*
X151770000Y-113500000D03*
X149230000Y-113500000D03*
X137270000Y-112000000D03*
X134730000Y-112000000D03*
D21*
X184000000Y-127000000D03*
D12*
X160000000Y-75500000D03*
D13*
X160000000Y-78040000D03*
X157460000Y-75500000D03*
X157460000Y-78040000D03*
X154920000Y-75500000D03*
X154920000Y-78040000D03*
X152380000Y-75500000D03*
X152380000Y-78040000D03*
D27*
X156200000Y-90750000D03*
X156200000Y-90250000D03*
X156200000Y-89750000D03*
X156200000Y-89250000D03*
X156200000Y-88750000D03*
X156200000Y-88250000D03*
X156200000Y-87750000D03*
X156200000Y-87250000D03*
X156200000Y-86750000D03*
X156200000Y-86250000D03*
X156200000Y-85750000D03*
X156200000Y-85250000D03*
X156200000Y-84750000D03*
X156200000Y-84250000D03*
X156200000Y-83750000D03*
X156200000Y-83250000D03*
D28*
X154250000Y-81300000D03*
X153750000Y-81300000D03*
X153250000Y-81300000D03*
X152750000Y-81300000D03*
X152250000Y-81300000D03*
X151750000Y-81300000D03*
X151250000Y-81300000D03*
X150750000Y-81300000D03*
X150250000Y-81300000D03*
X149750000Y-81300000D03*
X149250000Y-81300000D03*
X148750000Y-81300000D03*
X148250000Y-81300000D03*
X147750000Y-81300000D03*
X147250000Y-81300000D03*
X146750000Y-81300000D03*
D27*
X144800000Y-83250000D03*
X144800000Y-83750000D03*
X144800000Y-84250000D03*
X144800000Y-84750000D03*
X144800000Y-85250000D03*
X144800000Y-85750000D03*
X144800000Y-86250000D03*
X144800000Y-86750000D03*
X144800000Y-87250000D03*
X144800000Y-87750000D03*
X144800000Y-88250000D03*
X144800000Y-88750000D03*
X144800000Y-89250000D03*
X144800000Y-89750000D03*
X144800000Y-90250000D03*
X144800000Y-90750000D03*
D28*
X146750000Y-92700000D03*
X147250000Y-92700000D03*
X147750000Y-92700000D03*
X148250000Y-92700000D03*
X148750000Y-92700000D03*
X149250000Y-92700000D03*
X149750000Y-92700000D03*
X150250000Y-92700000D03*
X150750000Y-92700000D03*
X151250000Y-92700000D03*
X151750000Y-92700000D03*
X152250000Y-92700000D03*
X152750000Y-92700000D03*
X153250000Y-92700000D03*
X153750000Y-92700000D03*
X154250000Y-92700000D03*
D29*
X168905000Y-86800000D03*
X167635000Y-86800000D03*
X166365000Y-86800000D03*
X165095000Y-86800000D03*
X165095000Y-92200000D03*
X166365000Y-92200000D03*
X167635000Y-92200000D03*
X168905000Y-92200000D03*
D30*
X134745000Y-106700000D03*
X136015000Y-106700000D03*
X137285000Y-106700000D03*
X138555000Y-106700000D03*
X139825000Y-106700000D03*
X141095000Y-106700000D03*
X142365000Y-106700000D03*
X143635000Y-106700000D03*
X144905000Y-106700000D03*
X146175000Y-106700000D03*
X147445000Y-106700000D03*
X148715000Y-106700000D03*
X149985000Y-106700000D03*
X151255000Y-106700000D03*
X151255000Y-97300000D03*
X149985000Y-97300000D03*
X148715000Y-97300000D03*
X147445000Y-97300000D03*
X146175000Y-97300000D03*
X144905000Y-97300000D03*
X143635000Y-97300000D03*
X142365000Y-97300000D03*
X141095000Y-97300000D03*
X139825000Y-97300000D03*
X138555000Y-97300000D03*
X137285000Y-97300000D03*
X136015000Y-97300000D03*
X134745000Y-97300000D03*
D31*
X168300000Y-113595000D03*
X168300000Y-114865000D03*
X168300000Y-116135000D03*
X168300000Y-117405000D03*
X173700000Y-117405000D03*
X173700000Y-116135000D03*
X173700000Y-114865000D03*
X173700000Y-113595000D03*
D32*
X116000000Y-116500000D03*
X116000000Y-115700000D03*
X116000000Y-114900000D03*
D33*
X116000000Y-114100000D03*
D32*
X116000000Y-113300000D03*
X116000000Y-112500000D03*
D34*
X115000000Y-112500000D03*
D32*
X114000000Y-112500000D03*
X114000000Y-113300000D03*
X114000000Y-114100000D03*
X114000000Y-114900000D03*
X114000000Y-115700000D03*
X114000000Y-116500000D03*
D34*
X115000000Y-116500000D03*
D35*
X176350000Y-76050000D03*
X175850000Y-76050000D03*
X175350000Y-76050000D03*
X174850000Y-76050000D03*
X174350000Y-76050000D03*
X173850000Y-76050000D03*
D36*
X173150000Y-76750000D03*
X173150000Y-77250000D03*
X173150000Y-77750000D03*
X173150000Y-78250000D03*
X173150000Y-78750000D03*
X173150000Y-79250000D03*
D35*
X173850000Y-79950000D03*
X174350000Y-79950000D03*
X174850000Y-79950000D03*
X175350000Y-79950000D03*
X175850000Y-79950000D03*
X176350000Y-79950000D03*
D36*
X177050000Y-79250000D03*
X177050000Y-78750000D03*
X177050000Y-78250000D03*
X177050000Y-77750000D03*
X177050000Y-77250000D03*
X177050000Y-76750000D03*
D37*
X174450000Y-78650000D03*
X175750000Y-78650000D03*
X174450000Y-77350000D03*
X175750000Y-77350000D03*
D38*
X133690000Y-93200000D03*
X134960000Y-93200000D03*
X136230000Y-93200000D03*
X137500000Y-93200000D03*
X138770000Y-93200000D03*
X140040000Y-93200000D03*
X141310000Y-93200000D03*
X141310000Y-87800000D03*
X140040000Y-87800000D03*
X138770000Y-87800000D03*
X137500000Y-87800000D03*
X136230000Y-87800000D03*
X134960000Y-87800000D03*
X133690000Y-87800000D03*
D39*
X129200000Y-120445000D03*
X129200000Y-119175000D03*
X129200000Y-117905000D03*
X129200000Y-116635000D03*
X129200000Y-115365000D03*
X129200000Y-114095000D03*
X129200000Y-112825000D03*
X129200000Y-111555000D03*
X123800000Y-111555000D03*
X123800000Y-112825000D03*
X123800000Y-114095000D03*
X123800000Y-115365000D03*
X123800000Y-116635000D03*
X123800000Y-117905000D03*
X123800000Y-119175000D03*
X123800000Y-120445000D03*
D38*
X121945000Y-101300000D03*
X120675000Y-101300000D03*
X119405000Y-101300000D03*
X118135000Y-101300000D03*
X116865000Y-101300000D03*
X115595000Y-101300000D03*
X114325000Y-101300000D03*
X113055000Y-101300000D03*
X113055000Y-106700000D03*
X114325000Y-106700000D03*
X115595000Y-106700000D03*
X116865000Y-106700000D03*
X118135000Y-106700000D03*
X119405000Y-106700000D03*
X120675000Y-106700000D03*
X121945000Y-106700000D03*
D40*
X169000000Y-102802000D03*
D41*
X169000000Y-96198000D03*
X166714000Y-96198000D03*
X171286000Y-96198000D03*
D31*
X160200000Y-125905000D03*
X160200000Y-124635000D03*
X160200000Y-123365000D03*
X160200000Y-122095000D03*
X154800000Y-122095000D03*
X154800000Y-123365000D03*
X154800000Y-124635000D03*
X154800000Y-125905000D03*
X145700000Y-125905000D03*
X145700000Y-124635000D03*
X145700000Y-123365000D03*
X145700000Y-122095000D03*
X140300000Y-122095000D03*
X140300000Y-123365000D03*
X140300000Y-124635000D03*
X140300000Y-125905000D03*
D42*
X109000000Y-101600000D03*
X109000000Y-103400000D03*
D43*
X158500000Y-119600000D03*
X158500000Y-117400000D03*
D44*
X148900000Y-118000000D03*
X152100000Y-118000000D03*
D43*
X145500000Y-119100000D03*
X145500000Y-116900000D03*
D44*
X135900000Y-117500000D03*
X139100000Y-117500000D03*
D43*
X118500000Y-112100000D03*
X118500000Y-109900000D03*
D42*
X121000000Y-116500000D03*
X121000000Y-114700000D03*
X165400000Y-82100000D03*
X165400000Y-83900000D03*
X167500000Y-83900000D03*
X167500000Y-82100000D03*
X172000000Y-83900000D03*
X172000000Y-82100000D03*
X174000000Y-83900000D03*
X174000000Y-82100000D03*
X161000000Y-107400000D03*
X161000000Y-105600000D03*
X168500000Y-105600000D03*
X168500000Y-107400000D03*
X174250000Y-97900000D03*
X174250000Y-96100000D03*
X163500000Y-107400000D03*
X163500000Y-105600000D03*
X158500000Y-107400000D03*
X158500000Y-105600000D03*
X161500000Y-109600000D03*
X161500000Y-111400000D03*
X164000000Y-101100000D03*
X164000000Y-102900000D03*
X166000000Y-107400000D03*
X166000000Y-105600000D03*
X153500000Y-97900000D03*
X153500000Y-96100000D03*
X159000000Y-111400000D03*
X159000000Y-109600000D03*
X164000000Y-109600000D03*
X164000000Y-111400000D03*
X166500000Y-109600000D03*
X166500000Y-111400000D03*
X160500000Y-97900000D03*
X160500000Y-96100000D03*
X174000000Y-111400000D03*
X174000000Y-109600000D03*
X171000000Y-105600000D03*
X171000000Y-107400000D03*
X174000000Y-126400000D03*
X174000000Y-124600000D03*
X171500000Y-126400000D03*
X171500000Y-124600000D03*
X175500000Y-120100000D03*
X175500000Y-121900000D03*
X158500000Y-97900000D03*
X158500000Y-96100000D03*
X161500000Y-119900000D03*
X161500000Y-118100000D03*
X126000000Y-125900000D03*
X126000000Y-124100000D03*
X128500000Y-124100000D03*
X128500000Y-125900000D03*
X128500000Y-98900000D03*
X128500000Y-97100000D03*
X128500000Y-103900000D03*
X128500000Y-102100000D03*
X116500000Y-125900000D03*
X116500000Y-124100000D03*
X131000000Y-125900000D03*
X131000000Y-124100000D03*
X118500000Y-121400000D03*
X118500000Y-119600000D03*
X123500000Y-125900000D03*
X123500000Y-124100000D03*
X114000000Y-125900000D03*
X114000000Y-124100000D03*
X128500000Y-108400000D03*
X128500000Y-106600000D03*
X178000000Y-82100000D03*
X178000000Y-83900000D03*
X180000000Y-82100000D03*
X180000000Y-83900000D03*
X182000000Y-83900000D03*
X182000000Y-82100000D03*
X109000000Y-107100000D03*
X109000000Y-108900000D03*
X109000000Y-96100000D03*
X109000000Y-97900000D03*
D12*
X140500000Y-75500000D03*
D13*
X140500000Y-78040000D03*
X137960000Y-75500000D03*
X137960000Y-78040000D03*
X135420000Y-75500000D03*
X135420000Y-78040000D03*
X132880000Y-75500000D03*
X132880000Y-78040000D03*
X130340000Y-75500000D03*
X130340000Y-78040000D03*
X127800000Y-75500000D03*
X127800000Y-78040000D03*
X125260000Y-75500000D03*
X125260000Y-78040000D03*
X122720000Y-75500000D03*
X122720000Y-78040000D03*
X120180000Y-75500000D03*
X120180000Y-78040000D03*
X117640000Y-75500000D03*
X117640000Y-78040000D03*
D26*
X174370000Y-88500000D03*
X171830000Y-88500000D03*
D45*
X130900000Y-106900000D03*
X130900000Y-108100000D03*
X132100000Y-108100000D03*
X132100000Y-106900000D03*
X130900000Y-102400000D03*
X130900000Y-103600000D03*
X132100000Y-103600000D03*
X132100000Y-102400000D03*
X130900000Y-97400000D03*
X130900000Y-98600000D03*
X132100000Y-98600000D03*
X132100000Y-97400000D03*
X165100000Y-118400000D03*
X163900000Y-118400000D03*
X163900000Y-119600000D03*
X165100000Y-119600000D03*
D46*
X163000000Y-95950000D03*
X163000000Y-98050000D03*
X171500000Y-111550000D03*
X171500000Y-109450000D03*
X156000000Y-95950000D03*
X156000000Y-98050000D03*
X107500000Y-93550000D03*
X107500000Y-91450000D03*
D10*
G36*
X140950000Y-109450000D02*
X145050000Y-109450000D01*
X145050000Y-110350000D01*
X140950000Y-110350000D01*
X140950000Y-109450000D01*
X140950000Y-109450000D01*
G37*
G36*
X140950000Y-111000000D02*
X145050000Y-111000000D01*
X145050000Y-112000000D01*
X140950000Y-112000000D01*
X140950000Y-111000000D01*
X140950000Y-111000000D01*
G37*
G36*
X140950000Y-112650000D02*
X145050000Y-112650000D01*
X145050000Y-113550000D01*
X140950000Y-113550000D01*
X140950000Y-112650000D01*
X140950000Y-112650000D01*
G37*
G36*
X182950000Y-79650000D02*
X178850000Y-79650000D01*
X178850000Y-78750000D01*
X182950000Y-78750000D01*
X182950000Y-79650000D01*
X182950000Y-79650000D01*
G37*
G36*
X182950000Y-78100000D02*
X178850000Y-78100000D01*
X178850000Y-77100000D01*
X182950000Y-77100000D01*
X182950000Y-78100000D01*
X182950000Y-78100000D01*
G37*
G36*
X182950000Y-76450000D02*
X178850000Y-76450000D01*
X178850000Y-75550000D01*
X182950000Y-75550000D01*
X182950000Y-76450000D01*
X182950000Y-76450000D01*
G37*
G36*
X163850000Y-84150000D02*
X163850000Y-88250000D01*
X162950000Y-88250000D01*
X162950000Y-84150000D01*
X163850000Y-84150000D01*
X163850000Y-84150000D01*
G37*
G36*
X162300000Y-84150000D02*
X162300000Y-88250000D01*
X161300000Y-88250000D01*
X161300000Y-84150000D01*
X162300000Y-84150000D01*
X162300000Y-84150000D01*
G37*
G36*
X160650000Y-84150000D02*
X160650000Y-88250000D01*
X159750000Y-88250000D01*
X159750000Y-84150000D01*
X160650000Y-84150000D01*
X160650000Y-84150000D01*
G37*
D47*
X108000000Y-125000000D03*
X108000000Y-76000000D03*
X166000000Y-76000000D03*
X166000000Y-125000000D03*
D48*
X109600000Y-119000000D03*
X109600000Y-112000000D03*
D49*
X107050000Y-117750000D03*
X107050000Y-113250000D03*
D50*
X178190000Y-124500000D03*
X185810000Y-124500000D03*
D51*
X124500000Y-107100000D03*
X124500000Y-108900000D03*
X121000000Y-121400000D03*
X121000000Y-119600000D03*
X129000000Y-85100000D03*
X129000000Y-86900000D03*
X170000000Y-82100000D03*
X170000000Y-83900000D03*
X176000000Y-82100000D03*
X176000000Y-83900000D03*
X118400000Y-116500000D03*
X118400000Y-114700000D03*
X170500000Y-121900000D03*
X170500000Y-120100000D03*
X173000000Y-121900000D03*
X173000000Y-120100000D03*
X154000000Y-107400000D03*
X154000000Y-105600000D03*
X156000000Y-107400000D03*
X156000000Y-105600000D03*
X157500000Y-101400000D03*
X157500000Y-99600000D03*
X169000000Y-109600000D03*
X169000000Y-111400000D03*
X174500000Y-101600000D03*
X174500000Y-103400000D03*
X149300000Y-77100000D03*
X149300000Y-78900000D03*
X110000000Y-93300000D03*
X110000000Y-91500000D03*
D52*
X106700000Y-106950980D03*
X106700000Y-109049020D03*
X106700000Y-95950980D03*
X106700000Y-98049020D03*
X106700000Y-101550980D03*
X106700000Y-103649020D03*
D53*
X161499240Y-113550000D03*
X161499240Y-115450000D03*
X163498220Y-114500000D03*
X161500760Y-102950000D03*
X161500760Y-101050000D03*
X159501780Y-102000000D03*
X172999240Y-105550000D03*
X172999240Y-107450000D03*
X174998220Y-106500000D03*
X114499240Y-119550000D03*
X114499240Y-121450000D03*
X116498220Y-120500000D03*
X121000760Y-125950000D03*
X121000760Y-124050000D03*
X119001780Y-125000000D03*
M02*
