M48
;DRILL file {KiCad 4.0.0-rc1-stable} date 10/8/2015 2:57:13 PM
;FORMAT={-:-/ absolute / inch / decimal}
FMAT,2
INCH,TZ
T1C0.016
T2C0.033
T3C0.035
T4C0.039
T5C0.039
T6C0.040
T7C0.051
T8C0.108
T9C0.120
%
G90
G05
M72
T1
X4.1929Y-3.7283
X4.1929Y-3.9094
X4.1929Y-3.9488
X4.1929Y-4.1299
X4.1929Y-4.1654
X4.2047Y-4.5669
X4.2323Y-3.6417
X4.2441Y-4.2913
X4.2913Y-3.7205
X4.2913Y-3.9488
X4.2913Y-4.1654
X4.315Y-4.3386
X4.3307Y-3.563
X4.3681Y-3.2362
X4.374Y-3.4488
X4.374Y-3.5
X4.3819Y-3.5787
X4.3937Y-3.7362
X4.4094Y-3.126
X4.4252Y-3.6535
X4.437Y-3.2362
X4.437Y-3.7323
X4.4409Y-3.4252
X4.4528Y-4.0433
X4.4567Y-4.6496
X4.4606Y-4.8622
X4.4685Y-3.7441
X4.4724Y-3.7835
X4.4843Y-3.2165
X4.5512Y-3.5984
X4.5512Y-4.7047
X4.5512Y-4.811
X4.5531Y-2.9724
X4.5551Y-3.4055
X4.5551Y-4.1417
X4.5669Y-3.7835
X4.5709Y-3.4449
X4.5748Y-3.6575
X4.5748Y-4.252
X4.5827Y-4.3228
X4.5866Y-4.1142
X4.5866Y-4.7638
X4.5866Y-4.8189
X4.5945Y-3.5748
X4.5984Y-3.6299
X4.6063Y-3.8543
X4.6142Y-4.4724
X4.6142Y-4.5157
X4.6299Y-3.3228
X4.6496Y-4.1417
X4.6614Y-4.4724
X4.6654Y-3.2244
X4.6693Y-3.4567
X4.6772Y-4.252
X4.6811Y-3.3307
X4.6929Y-3.1929
X4.6929Y-3.6732
X4.7008Y-3.3976
X4.7008Y-3.4921
X4.7008Y-3.9331
X4.7165Y-4.5906
X4.7205Y-3.8504
X4.7244Y-3.6732
X4.7244Y-4.3386
X4.7283Y-3.4449
X4.7559Y-4.2598
X4.7598Y-3.5157
X4.7638Y-4.6693
X4.7677Y-3.6732
X4.7756Y-3.4252
X4.7795Y-3.1457
X4.7795Y-3.9094
X4.811Y-4.9528
X4.8189Y-3.6811
X4.8189Y-4.4961
X4.8189Y-4.6142
X4.8228Y-3.1417
X4.8622Y-3.9094
X4.878Y-3.4134
X4.878Y-3.4724
X4.878Y-3.622
X4.8858Y-3.7677
X4.8858Y-4.8209
X4.8937Y-3.185
X4.8976Y-3.8819
X4.9016Y-3.9528
X4.9016Y-4.3307
X4.9055Y-3.9882
X4.9173Y-4.0945
X4.9213Y-3.7402
X4.9291Y-4.5906
X4.9331Y-3.8858
X4.937Y-4.6457
X4.9488Y-3.2047
X4.9646Y-4.1457
X4.9685Y-3.9055
X4.9685Y-4.3937
X5.Y-3.4409
X5.Y-3.5512
X5.Y-3.622
X5.0039Y-3.3898
X5.0098Y-4.9567
X5.0118Y-3.8583
X5.0157Y-4.7559
X5.0197Y-3.685
X5.0315Y-3.3228
X5.0354Y-3.2244
X5.0591Y-3.9862
X5.0591Y-4.1634
X5.0669Y-4.1299
X5.0709Y-4.7953
X5.0787Y-3.2244
X5.0827Y-3.0315
X5.0866Y-3.5827
X5.1102Y-4.9567
X5.1142Y-3.2992
X5.122Y-3.6102
X5.1358Y-4.8366
X5.1378Y-3.4213
X5.1378Y-3.6417
X5.1378Y-4.4921
X5.1476Y-4.3898
X5.1535Y-3.2992
X5.1575Y-3.9862
X5.1575Y-4.1634
X5.1929Y-3.7244
X5.2008Y-3.9882
X5.2047Y-3.9567
X5.2205Y-3.4567
X5.2205Y-3.5
X5.2303Y-4.8583
X5.2362Y-4.2598
X5.2362Y-4.7953
X5.2362Y-4.9291
X5.2402Y-4.0315
X5.2402Y-4.126
X5.2402Y-4.2087
X5.2441Y-3.8346
X5.252Y-3.5197
X5.2835Y-3.3425
X5.315Y-3.9528
X5.3228Y-3.248
X5.3248Y-3.563
X5.3543Y-4.0315
X5.3543Y-4.1457
X5.3543Y-4.8228
X5.3622Y-3.8976
X5.3642Y-3.563
X5.3819Y-3.2244
X5.3937Y-3.5138
X5.4055Y-4.0866
X5.4213Y-3.252
X5.437Y-3.5197
X5.437Y-4.5472
X5.4429Y-3.563
X5.4567Y-3.248
X5.4606Y-4.1417
X5.4902Y-3.5354
X5.5079Y-4.1417
X5.5118Y-4.3976
X5.5315Y-4.5669
X5.5315Y-4.626
X5.5433Y-3.248
X5.5551Y-4.1417
X5.5669Y-3.9134
X5.5669Y-4.0197
X5.5787Y-3.252
X5.5945Y-3.1969
X5.5984Y-4.9606
X5.6024Y-3.6732
X5.6063Y-4.1496
X5.6102Y-3.0118
X5.6102Y-4.626
X5.6181Y-3.1732
X5.6417Y-3.122
X5.6417Y-3.7087
X5.6496Y-3.5512
X5.6516Y-4.2736
X5.6693Y-4.5669
X5.6693Y-4.626
X5.6772Y-3.7598
X5.685Y-3.9134
X5.6969Y-2.9134
X5.7047Y-3.7323
X5.7185Y-3.1201
X5.748Y-3.6732
X5.7677Y-4.8031
X5.7717Y-3.4252
X5.7717Y-3.4843
X5.7795Y-3.5354
X5.7795Y-3.5984
X5.7874Y-4.9606
X5.7953Y-3.9173
X5.8071Y-3.0217
X5.8189Y-3.4882
X5.8189Y-3.7047
X5.8346Y-4.0157
X5.8386Y-4.811
X5.8504Y-4.2677
X5.8543Y-3.8858
X5.8622Y-3.3268
X5.8661Y-3.7638
X5.874Y-3.4567
X5.878Y-3.0748
X5.8898Y-4.0591
X5.8937Y-3.9134
X5.8976Y-3.6063
X5.9055Y-3.3268
X5.9055Y-4.2717
X5.9134Y-4.0276
X5.9291Y-3.
X5.9449Y-3.3268
X5.9488Y-4.0354
X5.9724Y-3.5984
X6.Y-4.1181
X6.0039Y-3.8504
X6.0157Y-3.3504
X6.0197Y-3.9055
X6.0472Y-4.0039
X6.0472Y-4.0394
X6.0512Y-3.4252
X6.0551Y-3.5
X6.063Y-4.5866
X6.063Y-4.6457
X6.0709Y-3.4606
X6.0709Y-3.5472
X6.0748Y-3.3898
X6.1063Y-4.2795
X6.1181Y-4.1181
X6.122Y-4.4547
X6.122Y-4.6457
X6.1417Y-4.3976
X6.1693Y-3.6575
X6.1772Y-3.9646
X6.1772Y-4.5866
X6.1772Y-4.6457
X6.1969Y-3.378
X6.2047Y-3.315
X6.2047Y-4.2913
X6.2087Y-4.1181
X6.2402Y-5.
X6.248Y-3.4646
X6.248Y-4.1181
X6.252Y-3.8898
X6.252Y-3.9449
X6.2638Y-3.6614
X6.2795Y-4.7638
X6.2992Y-4.2362
X6.3071Y-4.315
X6.3583Y-4.8031
X6.378Y-3.1024
X6.3819Y-4.1378
X6.3858Y-3.1378
X6.3858Y-3.1772
X6.3976Y-4.315
X6.3976Y-4.4528
X6.3976Y-4.5472
X6.4094Y-3.5276
X6.4094Y-4.2835
X6.4094Y-4.6614
X6.437Y-4.7638
X6.4409Y-3.6614
X6.4488Y-3.8976
X6.4724Y-3.8622
X6.4843Y-4.4469
X6.4961Y-3.4606
X6.5118Y-3.9921
X6.5354Y-3.5591
X6.5512Y-3.9528
X6.5591Y-4.685
X6.5748Y-4.5472
X6.5827Y-4.1496
X6.5906Y-4.2165
X6.5945Y-3.3386
X6.5984Y-3.4646
X6.6142Y-3.937
X6.6378Y-3.3425
X6.6498Y-3.4683
X6.6811Y-3.3504
X6.7224Y-4.4724
X6.7244Y-3.3425
X6.7362Y-3.126
X6.7717Y-3.0551
X6.7717Y-3.9409
X6.7717Y-4.0984
X6.8031Y-4.3504
X6.8031Y-4.6535
X6.8071Y-3.2323
X6.811Y-3.3031
X6.811Y-3.7874
X6.815Y-2.9882
X6.815Y-3.1535
X6.8386Y-3.185
X6.8622Y-3.1024
X6.9134Y-4.0157
X6.9213Y-3.0591
X6.9291Y-3.2677
X6.9331Y-3.1929
X6.9331Y-4.3425
X6.9449Y-3.378
X6.9646Y-4.7992
X6.9724Y-3.1575
X6.9724Y-3.3071
X6.9724Y-4.6811
X6.9961Y-3.1929
X7.Y-2.9252
X7.0787Y-2.9291
X7.0866Y-4.9016
X7.1654Y-2.9488
X7.1654Y-3.2756
X7.1654Y-4.7244
X7.189Y-3.8031
X7.2283Y-3.0748
X7.2402Y-3.8819
X7.2756Y-4.0709
X7.2835Y-3.2795
X7.2835Y-4.0079
X7.3071Y-3.7283
X7.3701Y-3.8819
T2
X7.2968Y-2.9922
X7.2968Y-3.189
T3
X7.0154Y-4.9016
X7.3154Y-4.9016
T4
X5.3043Y-4.4094
X5.4043Y-4.4094
X5.8752Y-4.4685
X5.9752Y-4.4685
X6.765Y-3.4843
X6.865Y-3.4843
T5
X4.2146Y-4.4587
X4.2146Y-4.6358
T6
X4.211Y-3.2646
X4.211Y-3.3646
X4.211Y-3.4646
X4.311Y-3.2646
X4.311Y-3.3646
X4.311Y-3.4646
X4.6315Y-2.9724
X4.6315Y-3.0724
X4.7315Y-2.9724
X4.7315Y-3.0724
X4.8315Y-2.9724
X4.8315Y-3.0724
X4.9315Y-2.9724
X4.9315Y-3.0724
X5.0315Y-2.9724
X5.0315Y-3.0724
X5.1315Y-2.9724
X5.1315Y-3.0724
X5.2315Y-2.9724
X5.2315Y-3.0724
X5.3315Y-2.9724
X5.3315Y-3.0724
X5.4315Y-2.9724
X5.4315Y-3.0724
X5.5315Y-2.9724
X5.5315Y-3.0724
X5.9992Y-2.9724
X5.9992Y-3.0724
X6.0992Y-2.9724
X6.0992Y-3.0724
X6.1992Y-2.9724
X6.1992Y-3.0724
X6.2992Y-2.9724
X6.2992Y-3.0724
X7.0091Y-3.7417
X7.0091Y-3.8517
X7.0091Y-3.9567
X7.0091Y-4.0667
X7.0091Y-4.1767
X7.1091Y-3.7967
X7.1091Y-3.9067
X7.1091Y-4.0117
X7.1091Y-4.1217
T7
X4.315Y-4.4094
X4.315Y-4.685
X7.4109Y-2.9528
X7.4109Y-3.2284
T8
X4.252Y-2.9921
X4.252Y-4.9213
X6.5354Y-2.9921
X6.5354Y-4.9213
T9
X7.0591Y-3.4646
X7.0591Y-4.4488
T0
M30
