G04 #@! TF.FileFunction,Legend,Top*
%FSLAX46Y46*%
G04 Gerber Fmt 4.6, Leading zero omitted, Abs format (unit mm)*
G04 Created by KiCad (PCBNEW 4.0.0-rc1-stable) date 10/8/2015 2:58:26 PM*
%MOMM*%
G01*
G04 APERTURE LIST*
%ADD10C,0.100000*%
%ADD11C,0.150000*%
G04 APERTURE END LIST*
D10*
D11*
X113500000Y-138500000D02*
X198500000Y-138500000D01*
X198500000Y-138500000D02*
X198500000Y-82500000D01*
X198500000Y-82500000D02*
X113500000Y-82500000D01*
X113500000Y-82500000D02*
X113500000Y-138500000D01*
X186675000Y-124500000D02*
X186675000Y-125500000D01*
X185325000Y-125500000D02*
X185325000Y-124500000D01*
X189325000Y-125500000D02*
X189325000Y-124500000D01*
X190675000Y-124500000D02*
X190675000Y-125500000D01*
X190675000Y-131000000D02*
X190675000Y-132000000D01*
X189325000Y-132000000D02*
X189325000Y-131000000D01*
X181500000Y-126675000D02*
X180500000Y-126675000D01*
X180500000Y-125325000D02*
X181500000Y-125325000D01*
X184500000Y-131825000D02*
X185500000Y-131825000D01*
X185500000Y-133175000D02*
X184500000Y-133175000D01*
X183000000Y-87825000D02*
X184000000Y-87825000D01*
X184000000Y-89175000D02*
X183000000Y-89175000D01*
X151500000Y-118825000D02*
X152500000Y-118825000D01*
X152500000Y-120175000D02*
X151500000Y-120175000D01*
X151500000Y-121825000D02*
X152500000Y-121825000D01*
X152500000Y-123175000D02*
X151500000Y-123175000D01*
X151500000Y-124325000D02*
X152500000Y-124325000D01*
X152500000Y-125675000D02*
X151500000Y-125675000D01*
X119675000Y-126000000D02*
X119675000Y-127000000D01*
X118325000Y-127000000D02*
X118325000Y-126000000D01*
X120325000Y-122500000D02*
X120325000Y-121500000D01*
X121675000Y-121500000D02*
X121675000Y-122500000D01*
X169000000Y-109675000D02*
X168000000Y-109675000D01*
X168000000Y-108325000D02*
X169000000Y-108325000D01*
X169000000Y-107175000D02*
X168000000Y-107175000D01*
X168000000Y-105825000D02*
X169000000Y-105825000D01*
X169000000Y-112175000D02*
X168000000Y-112175000D01*
X168000000Y-110825000D02*
X169000000Y-110825000D01*
X169000000Y-114675000D02*
X168000000Y-114675000D01*
X168000000Y-113325000D02*
X169000000Y-113325000D01*
X152500000Y-128675000D02*
X151500000Y-128675000D01*
X151500000Y-127325000D02*
X152500000Y-127325000D01*
X189325000Y-89900000D02*
X189325000Y-88900000D01*
X190675000Y-88900000D02*
X190675000Y-89900000D01*
X183175000Y-95250000D02*
X183175000Y-96250000D01*
X181825000Y-96250000D02*
X181825000Y-95250000D01*
X138825000Y-121500000D02*
X138825000Y-120500000D01*
X140175000Y-120500000D02*
X140175000Y-121500000D01*
X124000000Y-126525000D02*
X126000000Y-126525000D01*
X126000000Y-124475000D02*
X124000000Y-124475000D01*
X124000000Y-129525000D02*
X126000000Y-129525000D01*
X126000000Y-127475000D02*
X124000000Y-127475000D01*
X121675000Y-126000000D02*
X121675000Y-127000000D01*
X120325000Y-127000000D02*
X120325000Y-126000000D01*
X118800000Y-116850000D02*
X117800000Y-116850000D01*
X117800000Y-118550000D02*
X118800000Y-118550000D01*
X169000000Y-118250000D02*
X168000000Y-118250000D01*
X168000000Y-119950000D02*
X169000000Y-119950000D01*
X169100000Y-117075000D02*
X168100000Y-117075000D01*
X168100000Y-115725000D02*
X169100000Y-115725000D01*
X131675000Y-108000000D02*
X131675000Y-109000000D01*
X130325000Y-109000000D02*
X130325000Y-108000000D01*
X132850000Y-116500000D02*
X132850000Y-115500000D01*
X131150000Y-115500000D02*
X131150000Y-116500000D01*
X185575000Y-96250000D02*
X185575000Y-95250000D01*
X186925000Y-95250000D02*
X186925000Y-96250000D01*
X190675000Y-95250000D02*
X190675000Y-96250000D01*
X189325000Y-96250000D02*
X189325000Y-95250000D01*
X167900000Y-103325000D02*
X168900000Y-103325000D01*
X168900000Y-104675000D02*
X167900000Y-104675000D01*
X167900000Y-100925000D02*
X168900000Y-100925000D01*
X168900000Y-102275000D02*
X167900000Y-102275000D01*
X120425000Y-109925000D02*
X120425000Y-110070000D01*
X124575000Y-109925000D02*
X124575000Y-110070000D01*
X124575000Y-115075000D02*
X124575000Y-114930000D01*
X120425000Y-115075000D02*
X120425000Y-114930000D01*
X120425000Y-109925000D02*
X124575000Y-109925000D01*
X120425000Y-115075000D02*
X124575000Y-115075000D01*
X120425000Y-110070000D02*
X119025000Y-110070000D01*
X116400000Y-121800000D02*
G75*
G03X116400000Y-121800000I-100000J0D01*
G01*
X116550000Y-121250000D02*
X116550000Y-121750000D01*
X119450000Y-121250000D02*
X116550000Y-121250000D01*
X119450000Y-121750000D02*
X119450000Y-121250000D01*
X116550000Y-121750000D02*
X119450000Y-121750000D01*
X158500000Y-87000000D02*
X157500000Y-88000000D01*
X157500000Y-88000000D02*
X159500000Y-88000000D01*
X158500000Y-87000000D02*
X159500000Y-88000000D01*
X163000000Y-86000000D02*
X164000000Y-87000000D01*
X164000000Y-87000000D02*
X164000000Y-87750000D01*
X164000000Y-87750000D02*
X162250000Y-86000000D01*
X162250000Y-86000000D02*
X161500000Y-86000000D01*
X161500000Y-86000000D02*
X164000000Y-88500000D01*
X164000000Y-88500000D02*
X164000000Y-89250000D01*
X164000000Y-89250000D02*
X160750000Y-86000000D01*
X134000000Y-86000000D02*
X134000000Y-116000000D01*
X134000000Y-116000000D02*
X164000000Y-116000000D01*
X164000000Y-116000000D02*
X164000000Y-86000000D01*
X164000000Y-86000000D02*
X134000000Y-86000000D01*
X176300000Y-120100000D02*
G75*
G03X176300000Y-120100000I-100000J0D01*
G01*
X176850000Y-120350000D02*
X176350000Y-120350000D01*
X176850000Y-123250000D02*
X176850000Y-120350000D01*
X176350000Y-123250000D02*
X176850000Y-123250000D01*
X176350000Y-120350000D02*
X176350000Y-123250000D01*
X118270000Y-109290000D02*
X118270000Y-104210000D01*
X113825000Y-109290000D02*
X113825000Y-104210000D01*
X120175000Y-104210000D02*
X120175000Y-109290000D01*
X120175000Y-104210000D02*
X113825000Y-104210000D01*
X120175000Y-109290000D02*
X113825000Y-109290000D01*
X198500000Y-129500000D02*
X199500000Y-129500000D01*
X199500000Y-129500000D02*
X199500000Y-131000000D01*
X199500000Y-131000000D02*
X201500000Y-131000000D01*
X201500000Y-131000000D02*
X202000000Y-130500000D01*
X202000000Y-130500000D02*
X202500000Y-131000000D01*
X202500000Y-131000000D02*
X203000000Y-130500000D01*
X203000000Y-130500000D02*
X203500000Y-131000000D01*
X203500000Y-131000000D02*
X204000000Y-130500000D01*
X204000000Y-130500000D02*
X204500000Y-131000000D01*
X204500000Y-131000000D02*
X204500000Y-134000000D01*
X204500000Y-134000000D02*
X204000000Y-134500000D01*
X204000000Y-134500000D02*
X203500000Y-134000000D01*
X203500000Y-134000000D02*
X203000000Y-134500000D01*
X203000000Y-134500000D02*
X202500000Y-134000000D01*
X202500000Y-134000000D02*
X202000000Y-134500000D01*
X202000000Y-134500000D02*
X201500000Y-134000000D01*
X201500000Y-134000000D02*
X199500000Y-134000000D01*
X199500000Y-134000000D02*
X199500000Y-135500000D01*
X199500000Y-135500000D02*
X198500000Y-135500000D01*
X198500000Y-85500000D02*
X199500000Y-85500000D01*
X199500000Y-85500000D02*
X199500000Y-87000000D01*
X199500000Y-87000000D02*
X201500000Y-87000000D01*
X201500000Y-87000000D02*
X202000000Y-86500000D01*
X202000000Y-86500000D02*
X202500000Y-87000000D01*
X202500000Y-87000000D02*
X203000000Y-86500000D01*
X203000000Y-86500000D02*
X203500000Y-87000000D01*
X203500000Y-87000000D02*
X204000000Y-86500000D01*
X204000000Y-86500000D02*
X204500000Y-87000000D01*
X204500000Y-87000000D02*
X204500000Y-90000000D01*
X204500000Y-90000000D02*
X204000000Y-90500000D01*
X204000000Y-90500000D02*
X203500000Y-90000000D01*
X203500000Y-90000000D02*
X203000000Y-90500000D01*
X203000000Y-90500000D02*
X202500000Y-90000000D01*
X202500000Y-90000000D02*
X202000000Y-90500000D01*
X202000000Y-90500000D02*
X201500000Y-90000000D01*
X201500000Y-90000000D02*
X199500000Y-90000000D01*
X199500000Y-90000000D02*
X199500000Y-91500000D01*
X199500000Y-91500000D02*
X198500000Y-91500000D01*
X199500000Y-103800000D02*
G75*
G03X199200000Y-103500000I-300000J0D01*
G01*
X200500000Y-103800000D02*
G75*
G03X200200000Y-103500000I-300000J0D01*
G01*
X199200000Y-118500000D02*
G75*
G03X199500000Y-118200000I0J300000D01*
G01*
X200200000Y-118500000D02*
G75*
G03X200500000Y-118200000I0J300000D01*
G01*
X200500000Y-103800000D02*
X200500000Y-118200000D01*
X199500000Y-118200000D02*
X199500000Y-103800000D01*
X204300000Y-103500000D02*
X198500000Y-103500000D01*
X204600000Y-103800000D02*
G75*
G03X204300000Y-103500000I-300000J0D01*
G01*
X204600000Y-118200000D02*
X204600000Y-103800000D01*
X204300000Y-118500000D02*
X198500000Y-118500000D01*
X204300000Y-118500000D02*
G75*
G03X204600000Y-118200000I0J300000D01*
G01*
X198500000Y-100700000D02*
X198500000Y-119500000D01*
X172200000Y-117300000D02*
X172200000Y-116500000D01*
X172200000Y-116500000D02*
X173700000Y-116500000D01*
X173700000Y-116500000D02*
X173700000Y-106000000D01*
X173700000Y-106000000D02*
X172000000Y-106000000D01*
X172200000Y-119500000D02*
X172200000Y-117300000D01*
X172200000Y-119500000D02*
X198500000Y-119500000D01*
X172000000Y-100700000D02*
X198500000Y-100700000D01*
X172000000Y-106000000D02*
X172000000Y-100700000D01*
X127700000Y-115800000D02*
X127700000Y-120200000D01*
X127700000Y-120200000D02*
X123300000Y-120200000D01*
X123300000Y-120200000D02*
X123300000Y-115800000D01*
X123300000Y-115800000D02*
X127700000Y-115800000D01*
X124682500Y-122500000D02*
X124301500Y-122500000D01*
X125698500Y-122500000D02*
X125317500Y-122500000D01*
X125317500Y-122500000D02*
X124682500Y-122881000D01*
X124682500Y-122881000D02*
X124682500Y-122119000D01*
X124682500Y-122119000D02*
X125317500Y-122500000D01*
X125317500Y-123008000D02*
X125317500Y-121992000D01*
X127000000Y-121600000D02*
X123460000Y-121600000D01*
X127000000Y-123400000D02*
X123460000Y-123400000D01*
X143738000Y-126921000D02*
X145262000Y-126921000D01*
X145643000Y-126794000D02*
X143357000Y-126794000D01*
X143103000Y-126667000D02*
X145897000Y-126667000D01*
X146151000Y-126540000D02*
X142849000Y-126540000D01*
X142722000Y-126413000D02*
X146278000Y-126413000D01*
X141198000Y-127302000D02*
X147802000Y-127302000D01*
X147802000Y-127302000D02*
X147802000Y-121460000D01*
X147802000Y-121460000D02*
X147040000Y-120698000D01*
X147040000Y-120698000D02*
X141960000Y-120698000D01*
X141960000Y-120698000D02*
X141198000Y-121460000D01*
X141198000Y-121460000D02*
X141198000Y-127302000D01*
X144500000Y-121841000D02*
X144500000Y-122603000D01*
X144119000Y-122222000D02*
X144881000Y-122222000D01*
X147548000Y-124000000D02*
G75*
G03X147548000Y-124000000I-3048000J0D01*
G01*
X133238000Y-126921000D02*
X134762000Y-126921000D01*
X135143000Y-126794000D02*
X132857000Y-126794000D01*
X132603000Y-126667000D02*
X135397000Y-126667000D01*
X135651000Y-126540000D02*
X132349000Y-126540000D01*
X132222000Y-126413000D02*
X135778000Y-126413000D01*
X130698000Y-127302000D02*
X137302000Y-127302000D01*
X137302000Y-127302000D02*
X137302000Y-121460000D01*
X137302000Y-121460000D02*
X136540000Y-120698000D01*
X136540000Y-120698000D02*
X131460000Y-120698000D01*
X131460000Y-120698000D02*
X130698000Y-121460000D01*
X130698000Y-121460000D02*
X130698000Y-127302000D01*
X134000000Y-121841000D02*
X134000000Y-122603000D01*
X133619000Y-122222000D02*
X134381000Y-122222000D01*
X137048000Y-124000000D02*
G75*
G03X137048000Y-124000000I-3048000J0D01*
G01*
X125925000Y-108250000D02*
X125925000Y-95750000D01*
X125785000Y-108246000D02*
X125785000Y-95754000D01*
X125645000Y-108240000D02*
X125645000Y-95760000D01*
X125505000Y-108230000D02*
X125505000Y-95770000D01*
X125365000Y-108218000D02*
X125365000Y-95782000D01*
X125225000Y-108202000D02*
X125225000Y-95798000D01*
X125085000Y-108183000D02*
X125085000Y-95817000D01*
X124945000Y-108160000D02*
X124945000Y-95840000D01*
X124805000Y-108135000D02*
X124805000Y-95865000D01*
X124665000Y-108106000D02*
X124665000Y-95894000D01*
X124525000Y-108073000D02*
X124525000Y-102521000D01*
X124525000Y-101479000D02*
X124525000Y-95927000D01*
X124385000Y-108038000D02*
X124385000Y-102734000D01*
X124385000Y-101266000D02*
X124385000Y-95962000D01*
X124245000Y-107999000D02*
X124245000Y-102876000D01*
X124245000Y-101124000D02*
X124245000Y-96001000D01*
X124105000Y-107956000D02*
X124105000Y-102978000D01*
X124105000Y-101022000D02*
X124105000Y-96044000D01*
X123965000Y-107909000D02*
X123965000Y-103052000D01*
X123965000Y-100948000D02*
X123965000Y-96091000D01*
X123825000Y-107859000D02*
X123825000Y-103103000D01*
X123825000Y-100897000D02*
X123825000Y-96141000D01*
X123685000Y-107805000D02*
X123685000Y-103135000D01*
X123685000Y-100865000D02*
X123685000Y-96195000D01*
X123545000Y-107748000D02*
X123545000Y-103149000D01*
X123545000Y-100851000D02*
X123545000Y-96252000D01*
X123405000Y-107686000D02*
X123405000Y-103146000D01*
X123405000Y-100854000D02*
X123405000Y-96314000D01*
X123265000Y-107620000D02*
X123265000Y-103126000D01*
X123265000Y-100874000D02*
X123265000Y-96380000D01*
X123125000Y-107549000D02*
X123125000Y-103087000D01*
X123125000Y-100913000D02*
X123125000Y-96451000D01*
X122985000Y-107475000D02*
X122985000Y-103028000D01*
X122985000Y-100972000D02*
X122985000Y-96525000D01*
X122845000Y-107395000D02*
X122845000Y-102945000D01*
X122845000Y-101055000D02*
X122845000Y-96605000D01*
X122705000Y-107311000D02*
X122705000Y-102831000D01*
X122705000Y-101169000D02*
X122705000Y-96689000D01*
X122565000Y-107221000D02*
X122565000Y-102670000D01*
X122565000Y-101330000D02*
X122565000Y-96779000D01*
X122425000Y-107127000D02*
X122425000Y-102409000D01*
X122425000Y-101591000D02*
X122425000Y-96873000D01*
X122285000Y-107026000D02*
X122285000Y-96974000D01*
X122145000Y-106919000D02*
X122145000Y-97081000D01*
X122005000Y-106807000D02*
X122005000Y-97193000D01*
X121865000Y-106687000D02*
X121865000Y-97313000D01*
X121725000Y-106559000D02*
X121725000Y-97441000D01*
X121585000Y-106424000D02*
X121585000Y-97576000D01*
X121445000Y-106280000D02*
X121445000Y-97720000D01*
X121305000Y-106125000D02*
X121305000Y-97875000D01*
X121165000Y-105960000D02*
X121165000Y-98040000D01*
X121025000Y-105783000D02*
X121025000Y-98217000D01*
X120885000Y-105592000D02*
X120885000Y-98408000D01*
X120745000Y-105383000D02*
X120745000Y-98617000D01*
X120605000Y-105155000D02*
X120605000Y-98845000D01*
X120465000Y-104903000D02*
X120465000Y-99097000D01*
X120325000Y-104619000D02*
X120325000Y-99381000D01*
X120185000Y-104291000D02*
X120185000Y-99709000D01*
X120045000Y-103897000D02*
X120045000Y-100103000D01*
X119905000Y-103383000D02*
X119905000Y-100617000D01*
X119765000Y-102433000D02*
X119765000Y-101567000D01*
X124650000Y-102000000D02*
G75*
G03X124650000Y-102000000I-1150000J0D01*
G01*
X132287500Y-102000000D02*
G75*
G03X132287500Y-102000000I-6287500J0D01*
G01*
X114166667Y-139952381D02*
X113833333Y-139476190D01*
X113595238Y-139952381D02*
X113595238Y-138952381D01*
X113976191Y-138952381D01*
X114071429Y-139000000D01*
X114119048Y-139047619D01*
X114166667Y-139142857D01*
X114166667Y-139285714D01*
X114119048Y-139380952D01*
X114071429Y-139428571D01*
X113976191Y-139476190D01*
X113595238Y-139476190D01*
X114595238Y-139428571D02*
X114928572Y-139428571D01*
X115071429Y-139952381D02*
X114595238Y-139952381D01*
X114595238Y-138952381D01*
X115071429Y-138952381D01*
X115833334Y-139428571D02*
X115500000Y-139428571D01*
X115500000Y-139952381D02*
X115500000Y-138952381D01*
X115976191Y-138952381D01*
X116500000Y-138952381D02*
X116500000Y-139190476D01*
X116261905Y-139095238D02*
X116500000Y-139190476D01*
X116738096Y-139095238D01*
X116357143Y-139380952D02*
X116500000Y-139190476D01*
X116642858Y-139380952D01*
X117261905Y-138952381D02*
X117261905Y-139190476D01*
X117023810Y-139095238D02*
X117261905Y-139190476D01*
X117500001Y-139095238D01*
X117119048Y-139380952D02*
X117261905Y-139190476D01*
X117404763Y-139380952D01*
X185614285Y-123414286D02*
X185585714Y-123442857D01*
X185500000Y-123471429D01*
X185442857Y-123471429D01*
X185357142Y-123442857D01*
X185300000Y-123385714D01*
X185271428Y-123328571D01*
X185242857Y-123214286D01*
X185242857Y-123128571D01*
X185271428Y-123014286D01*
X185300000Y-122957143D01*
X185357142Y-122900000D01*
X185442857Y-122871429D01*
X185500000Y-122871429D01*
X185585714Y-122900000D01*
X185614285Y-122928571D01*
X185842857Y-122928571D02*
X185871428Y-122900000D01*
X185928571Y-122871429D01*
X186071428Y-122871429D01*
X186128571Y-122900000D01*
X186157142Y-122928571D01*
X186185714Y-122985714D01*
X186185714Y-123042857D01*
X186157142Y-123128571D01*
X185814285Y-123471429D01*
X186185714Y-123471429D01*
X186557143Y-122871429D02*
X186614286Y-122871429D01*
X186671429Y-122900000D01*
X186700000Y-122928571D01*
X186728571Y-122985714D01*
X186757143Y-123100000D01*
X186757143Y-123242857D01*
X186728571Y-123357143D01*
X186700000Y-123414286D01*
X186671429Y-123442857D01*
X186614286Y-123471429D01*
X186557143Y-123471429D01*
X186500000Y-123442857D01*
X186471429Y-123414286D01*
X186442857Y-123357143D01*
X186414286Y-123242857D01*
X186414286Y-123100000D01*
X186442857Y-122985714D01*
X186471429Y-122928571D01*
X186500000Y-122900000D01*
X186557143Y-122871429D01*
X185671429Y-127071429D02*
X185328572Y-127071429D01*
X185500000Y-127071429D02*
X185500000Y-126471429D01*
X185442857Y-126557143D01*
X185385715Y-126614286D01*
X185328572Y-126642857D01*
X186042858Y-126471429D02*
X186100001Y-126471429D01*
X186157144Y-126500000D01*
X186185715Y-126528571D01*
X186214286Y-126585714D01*
X186242858Y-126700000D01*
X186242858Y-126842857D01*
X186214286Y-126957143D01*
X186185715Y-127014286D01*
X186157144Y-127042857D01*
X186100001Y-127071429D01*
X186042858Y-127071429D01*
X185985715Y-127042857D01*
X185957144Y-127014286D01*
X185928572Y-126957143D01*
X185900001Y-126842857D01*
X185900001Y-126700000D01*
X185928572Y-126585714D01*
X185957144Y-126528571D01*
X185985715Y-126500000D01*
X186042858Y-126471429D01*
X186500001Y-127071429D02*
X186500001Y-126471429D01*
X186842858Y-127071429D01*
X186842858Y-126471429D01*
X189614285Y-123514286D02*
X189585714Y-123542857D01*
X189500000Y-123571429D01*
X189442857Y-123571429D01*
X189357142Y-123542857D01*
X189300000Y-123485714D01*
X189271428Y-123428571D01*
X189242857Y-123314286D01*
X189242857Y-123228571D01*
X189271428Y-123114286D01*
X189300000Y-123057143D01*
X189357142Y-123000000D01*
X189442857Y-122971429D01*
X189500000Y-122971429D01*
X189585714Y-123000000D01*
X189614285Y-123028571D01*
X190185714Y-123571429D02*
X189842857Y-123571429D01*
X190014285Y-123571429D02*
X190014285Y-122971429D01*
X189957142Y-123057143D01*
X189900000Y-123114286D01*
X189842857Y-123142857D01*
X190471429Y-123571429D02*
X190585714Y-123571429D01*
X190642857Y-123542857D01*
X190671429Y-123514286D01*
X190728571Y-123428571D01*
X190757143Y-123314286D01*
X190757143Y-123085714D01*
X190728571Y-123028571D01*
X190700000Y-123000000D01*
X190642857Y-122971429D01*
X190528571Y-122971429D01*
X190471429Y-123000000D01*
X190442857Y-123028571D01*
X190414286Y-123085714D01*
X190414286Y-123228571D01*
X190442857Y-123285714D01*
X190471429Y-123314286D01*
X190528571Y-123342857D01*
X190642857Y-123342857D01*
X190700000Y-123314286D01*
X190728571Y-123285714D01*
X190757143Y-123228571D01*
X188928571Y-126471429D02*
X189300000Y-126471429D01*
X189100000Y-126700000D01*
X189185714Y-126700000D01*
X189242857Y-126728571D01*
X189271428Y-126757143D01*
X189300000Y-126814286D01*
X189300000Y-126957143D01*
X189271428Y-127014286D01*
X189242857Y-127042857D01*
X189185714Y-127071429D01*
X189014286Y-127071429D01*
X188957143Y-127042857D01*
X188928571Y-127014286D01*
X189500000Y-126471429D02*
X189871429Y-126471429D01*
X189671429Y-126700000D01*
X189757143Y-126700000D01*
X189814286Y-126728571D01*
X189842857Y-126757143D01*
X189871429Y-126814286D01*
X189871429Y-126957143D01*
X189842857Y-127014286D01*
X189814286Y-127042857D01*
X189757143Y-127071429D01*
X189585715Y-127071429D01*
X189528572Y-127042857D01*
X189500000Y-127014286D01*
X190242858Y-126471429D02*
X190300001Y-126471429D01*
X190357144Y-126500000D01*
X190385715Y-126528571D01*
X190414286Y-126585714D01*
X190442858Y-126700000D01*
X190442858Y-126842857D01*
X190414286Y-126957143D01*
X190385715Y-127014286D01*
X190357144Y-127042857D01*
X190300001Y-127071429D01*
X190242858Y-127071429D01*
X190185715Y-127042857D01*
X190157144Y-127014286D01*
X190128572Y-126957143D01*
X190100001Y-126842857D01*
X190100001Y-126700000D01*
X190128572Y-126585714D01*
X190157144Y-126528571D01*
X190185715Y-126500000D01*
X190242858Y-126471429D01*
X190700001Y-127071429D02*
X190700001Y-126471429D01*
X190928573Y-126471429D01*
X190985715Y-126500000D01*
X191014287Y-126528571D01*
X191042858Y-126585714D01*
X191042858Y-126671429D01*
X191014287Y-126728571D01*
X190985715Y-126757143D01*
X190928573Y-126785714D01*
X190700001Y-126785714D01*
X189900000Y-129971429D02*
X189614286Y-129971429D01*
X189614286Y-129371429D01*
X190042857Y-129371429D02*
X190442857Y-129371429D01*
X190185714Y-129971429D01*
X189514286Y-133171429D02*
X189514286Y-133571429D01*
X189371429Y-132942857D02*
X189228572Y-133371429D01*
X189600000Y-133371429D01*
X189771429Y-132971429D02*
X190171429Y-132971429D01*
X189914286Y-133571429D01*
X190400001Y-133571429D02*
X190400001Y-132971429D01*
X190742858Y-133571429D01*
X190742858Y-132971429D01*
X179571429Y-126100000D02*
X179571429Y-126385714D01*
X178971429Y-126385714D01*
X178971429Y-125642857D02*
X178971429Y-125757143D01*
X179000000Y-125814286D01*
X179028571Y-125842857D01*
X179114286Y-125900000D01*
X179228571Y-125928571D01*
X179457143Y-125928571D01*
X179514286Y-125900000D01*
X179542857Y-125871428D01*
X179571429Y-125814286D01*
X179571429Y-125700000D01*
X179542857Y-125642857D01*
X179514286Y-125614286D01*
X179457143Y-125585714D01*
X179314286Y-125585714D01*
X179257143Y-125614286D01*
X179228571Y-125642857D01*
X179200000Y-125700000D01*
X179200000Y-125814286D01*
X179228571Y-125871428D01*
X179257143Y-125900000D01*
X179314286Y-125928571D01*
X182671429Y-126485714D02*
X183071429Y-126485714D01*
X182442857Y-126628571D02*
X182871429Y-126771428D01*
X182871429Y-126400000D01*
X182471429Y-126228571D02*
X182471429Y-125828571D01*
X183071429Y-126085714D01*
X183071429Y-125599999D02*
X182471429Y-125599999D01*
X183071429Y-125257142D01*
X182471429Y-125257142D01*
X183414286Y-132985715D02*
X183442857Y-133014286D01*
X183471429Y-133100000D01*
X183471429Y-133157143D01*
X183442857Y-133242858D01*
X183385714Y-133300000D01*
X183328571Y-133328572D01*
X183214286Y-133357143D01*
X183128571Y-133357143D01*
X183014286Y-133328572D01*
X182957143Y-133300000D01*
X182900000Y-133242858D01*
X182871429Y-133157143D01*
X182871429Y-133100000D01*
X182900000Y-133014286D01*
X182928571Y-132985715D01*
X182928571Y-132757143D02*
X182900000Y-132728572D01*
X182871429Y-132671429D01*
X182871429Y-132528572D01*
X182900000Y-132471429D01*
X182928571Y-132442858D01*
X182985714Y-132414286D01*
X183042857Y-132414286D01*
X183128571Y-132442858D01*
X183471429Y-132785715D01*
X183471429Y-132414286D01*
X182928571Y-132185714D02*
X182900000Y-132157143D01*
X182871429Y-132100000D01*
X182871429Y-131957143D01*
X182900000Y-131900000D01*
X182928571Y-131871429D01*
X182985714Y-131842857D01*
X183042857Y-131842857D01*
X183128571Y-131871429D01*
X183471429Y-132214286D01*
X183471429Y-131842857D01*
X186771429Y-133042857D02*
X187171429Y-133042857D01*
X186542857Y-133185714D02*
X186971429Y-133328571D01*
X186971429Y-132957143D01*
X186571429Y-132785714D02*
X186571429Y-132385714D01*
X187171429Y-132642857D01*
X186771429Y-132157142D02*
X187371429Y-132157142D01*
X186800000Y-132157142D02*
X186771429Y-132099999D01*
X186771429Y-131985713D01*
X186800000Y-131928570D01*
X186828571Y-131899999D01*
X186885714Y-131871428D01*
X187057143Y-131871428D01*
X187114286Y-131899999D01*
X187142857Y-131928570D01*
X187171429Y-131985713D01*
X187171429Y-132099999D01*
X187142857Y-132157142D01*
X181914286Y-88885715D02*
X181942857Y-88914286D01*
X181971429Y-89000000D01*
X181971429Y-89057143D01*
X181942857Y-89142858D01*
X181885714Y-89200000D01*
X181828571Y-89228572D01*
X181714286Y-89257143D01*
X181628571Y-89257143D01*
X181514286Y-89228572D01*
X181457143Y-89200000D01*
X181400000Y-89142858D01*
X181371429Y-89057143D01*
X181371429Y-89000000D01*
X181400000Y-88914286D01*
X181428571Y-88885715D01*
X181428571Y-88657143D02*
X181400000Y-88628572D01*
X181371429Y-88571429D01*
X181371429Y-88428572D01*
X181400000Y-88371429D01*
X181428571Y-88342858D01*
X181485714Y-88314286D01*
X181542857Y-88314286D01*
X181628571Y-88342858D01*
X181971429Y-88685715D01*
X181971429Y-88314286D01*
X181971429Y-87742857D02*
X181971429Y-88085714D01*
X181971429Y-87914286D02*
X181371429Y-87914286D01*
X181457143Y-87971429D01*
X181514286Y-88028571D01*
X181542857Y-88085714D01*
X185271429Y-88942857D02*
X185671429Y-88942857D01*
X185042857Y-89085714D02*
X185471429Y-89228571D01*
X185471429Y-88857143D01*
X185071429Y-88685714D02*
X185071429Y-88285714D01*
X185671429Y-88542857D01*
X185271429Y-88057142D02*
X185871429Y-88057142D01*
X185300000Y-88057142D02*
X185271429Y-87999999D01*
X185271429Y-87885713D01*
X185300000Y-87828570D01*
X185328571Y-87799999D01*
X185385714Y-87771428D01*
X185557143Y-87771428D01*
X185614286Y-87799999D01*
X185642857Y-87828570D01*
X185671429Y-87885713D01*
X185671429Y-87999999D01*
X185642857Y-88057142D01*
X153971429Y-119885715D02*
X153685714Y-120085715D01*
X153971429Y-120228572D02*
X153371429Y-120228572D01*
X153371429Y-120000000D01*
X153400000Y-119942858D01*
X153428571Y-119914286D01*
X153485714Y-119885715D01*
X153571429Y-119885715D01*
X153628571Y-119914286D01*
X153657143Y-119942858D01*
X153685714Y-120000000D01*
X153685714Y-120228572D01*
X153628571Y-119542858D02*
X153600000Y-119600000D01*
X153571429Y-119628572D01*
X153514286Y-119657143D01*
X153485714Y-119657143D01*
X153428571Y-119628572D01*
X153400000Y-119600000D01*
X153371429Y-119542858D01*
X153371429Y-119428572D01*
X153400000Y-119371429D01*
X153428571Y-119342858D01*
X153485714Y-119314286D01*
X153514286Y-119314286D01*
X153571429Y-119342858D01*
X153600000Y-119371429D01*
X153628571Y-119428572D01*
X153628571Y-119542858D01*
X153657143Y-119600000D01*
X153685714Y-119628572D01*
X153742857Y-119657143D01*
X153857143Y-119657143D01*
X153914286Y-119628572D01*
X153942857Y-119600000D01*
X153971429Y-119542858D01*
X153971429Y-119428572D01*
X153942857Y-119371429D01*
X153914286Y-119342858D01*
X153857143Y-119314286D01*
X153742857Y-119314286D01*
X153685714Y-119342858D01*
X153657143Y-119371429D01*
X153628571Y-119428572D01*
X153371429Y-118800000D02*
X153371429Y-118914286D01*
X153400000Y-118971429D01*
X153428571Y-119000000D01*
X153514286Y-119057143D01*
X153628571Y-119085714D01*
X153857143Y-119085714D01*
X153914286Y-119057143D01*
X153942857Y-119028571D01*
X153971429Y-118971429D01*
X153971429Y-118857143D01*
X153942857Y-118800000D01*
X153914286Y-118771429D01*
X153857143Y-118742857D01*
X153714286Y-118742857D01*
X153657143Y-118771429D01*
X153628571Y-118800000D01*
X153600000Y-118857143D01*
X153600000Y-118971429D01*
X153628571Y-119028571D01*
X153657143Y-119057143D01*
X153714286Y-119085714D01*
X150571429Y-120257143D02*
X149971429Y-120257143D01*
X149971429Y-120114286D01*
X150000000Y-120028571D01*
X150057143Y-119971429D01*
X150114286Y-119942857D01*
X150228571Y-119914286D01*
X150314286Y-119914286D01*
X150428571Y-119942857D01*
X150485714Y-119971429D01*
X150542857Y-120028571D01*
X150571429Y-120114286D01*
X150571429Y-120257143D01*
X150571429Y-119657143D02*
X149971429Y-119657143D01*
X150571429Y-119314286D01*
X149971429Y-119314286D01*
X150542857Y-119057143D02*
X150571429Y-118971429D01*
X150571429Y-118828572D01*
X150542857Y-118771429D01*
X150514286Y-118742858D01*
X150457143Y-118714286D01*
X150400000Y-118714286D01*
X150342857Y-118742858D01*
X150314286Y-118771429D01*
X150285714Y-118828572D01*
X150257143Y-118942858D01*
X150228571Y-119000000D01*
X150200000Y-119028572D01*
X150142857Y-119057143D01*
X150085714Y-119057143D01*
X150028571Y-119028572D01*
X150000000Y-119000000D01*
X149971429Y-118942858D01*
X149971429Y-118800000D01*
X150000000Y-118714286D01*
X150471429Y-122885715D02*
X150185714Y-123085715D01*
X150471429Y-123228572D02*
X149871429Y-123228572D01*
X149871429Y-123000000D01*
X149900000Y-122942858D01*
X149928571Y-122914286D01*
X149985714Y-122885715D01*
X150071429Y-122885715D01*
X150128571Y-122914286D01*
X150157143Y-122942858D01*
X150185714Y-123000000D01*
X150185714Y-123228572D01*
X150128571Y-122542858D02*
X150100000Y-122600000D01*
X150071429Y-122628572D01*
X150014286Y-122657143D01*
X149985714Y-122657143D01*
X149928571Y-122628572D01*
X149900000Y-122600000D01*
X149871429Y-122542858D01*
X149871429Y-122428572D01*
X149900000Y-122371429D01*
X149928571Y-122342858D01*
X149985714Y-122314286D01*
X150014286Y-122314286D01*
X150071429Y-122342858D01*
X150100000Y-122371429D01*
X150128571Y-122428572D01*
X150128571Y-122542858D01*
X150157143Y-122600000D01*
X150185714Y-122628572D01*
X150242857Y-122657143D01*
X150357143Y-122657143D01*
X150414286Y-122628572D01*
X150442857Y-122600000D01*
X150471429Y-122542858D01*
X150471429Y-122428572D01*
X150442857Y-122371429D01*
X150414286Y-122342858D01*
X150357143Y-122314286D01*
X150242857Y-122314286D01*
X150185714Y-122342858D01*
X150157143Y-122371429D01*
X150128571Y-122428572D01*
X149871429Y-121771429D02*
X149871429Y-122057143D01*
X150157143Y-122085714D01*
X150128571Y-122057143D01*
X150100000Y-122000000D01*
X150100000Y-121857143D01*
X150128571Y-121800000D01*
X150157143Y-121771429D01*
X150214286Y-121742857D01*
X150357143Y-121742857D01*
X150414286Y-121771429D01*
X150442857Y-121800000D01*
X150471429Y-121857143D01*
X150471429Y-122000000D01*
X150442857Y-122057143D01*
X150414286Y-122085714D01*
X153471429Y-122528571D02*
X153471429Y-122471428D01*
X153500000Y-122414285D01*
X153528571Y-122385714D01*
X153585714Y-122357143D01*
X153700000Y-122328571D01*
X153842857Y-122328571D01*
X153957143Y-122357143D01*
X154014286Y-122385714D01*
X154042857Y-122414285D01*
X154071429Y-122471428D01*
X154071429Y-122528571D01*
X154042857Y-122585714D01*
X154014286Y-122614285D01*
X153957143Y-122642857D01*
X153842857Y-122671428D01*
X153700000Y-122671428D01*
X153585714Y-122642857D01*
X153528571Y-122614285D01*
X153500000Y-122585714D01*
X153471429Y-122528571D01*
X153971429Y-125385715D02*
X153685714Y-125585715D01*
X153971429Y-125728572D02*
X153371429Y-125728572D01*
X153371429Y-125500000D01*
X153400000Y-125442858D01*
X153428571Y-125414286D01*
X153485714Y-125385715D01*
X153571429Y-125385715D01*
X153628571Y-125414286D01*
X153657143Y-125442858D01*
X153685714Y-125500000D01*
X153685714Y-125728572D01*
X153628571Y-125042858D02*
X153600000Y-125100000D01*
X153571429Y-125128572D01*
X153514286Y-125157143D01*
X153485714Y-125157143D01*
X153428571Y-125128572D01*
X153400000Y-125100000D01*
X153371429Y-125042858D01*
X153371429Y-124928572D01*
X153400000Y-124871429D01*
X153428571Y-124842858D01*
X153485714Y-124814286D01*
X153514286Y-124814286D01*
X153571429Y-124842858D01*
X153600000Y-124871429D01*
X153628571Y-124928572D01*
X153628571Y-125042858D01*
X153657143Y-125100000D01*
X153685714Y-125128572D01*
X153742857Y-125157143D01*
X153857143Y-125157143D01*
X153914286Y-125128572D01*
X153942857Y-125100000D01*
X153971429Y-125042858D01*
X153971429Y-124928572D01*
X153942857Y-124871429D01*
X153914286Y-124842858D01*
X153857143Y-124814286D01*
X153742857Y-124814286D01*
X153685714Y-124842858D01*
X153657143Y-124871429D01*
X153628571Y-124928572D01*
X153571429Y-124300000D02*
X153971429Y-124300000D01*
X153342857Y-124442857D02*
X153771429Y-124585714D01*
X153771429Y-124214286D01*
X150571429Y-125757143D02*
X149971429Y-125757143D01*
X149971429Y-125614286D01*
X150000000Y-125528571D01*
X150057143Y-125471429D01*
X150114286Y-125442857D01*
X150228571Y-125414286D01*
X150314286Y-125414286D01*
X150428571Y-125442857D01*
X150485714Y-125471429D01*
X150542857Y-125528571D01*
X150571429Y-125614286D01*
X150571429Y-125757143D01*
X150571429Y-125157143D02*
X149971429Y-125157143D01*
X150571429Y-124814286D01*
X149971429Y-124814286D01*
X150542857Y-124557143D02*
X150571429Y-124471429D01*
X150571429Y-124328572D01*
X150542857Y-124271429D01*
X150514286Y-124242858D01*
X150457143Y-124214286D01*
X150400000Y-124214286D01*
X150342857Y-124242858D01*
X150314286Y-124271429D01*
X150285714Y-124328572D01*
X150257143Y-124442858D01*
X150228571Y-124500000D01*
X150200000Y-124528572D01*
X150142857Y-124557143D01*
X150085714Y-124557143D01*
X150028571Y-124528572D01*
X150000000Y-124500000D01*
X149971429Y-124442858D01*
X149971429Y-124300000D01*
X150000000Y-124214286D01*
X118614285Y-125071429D02*
X118414285Y-124785714D01*
X118271428Y-125071429D02*
X118271428Y-124471429D01*
X118500000Y-124471429D01*
X118557142Y-124500000D01*
X118585714Y-124528571D01*
X118614285Y-124585714D01*
X118614285Y-124671429D01*
X118585714Y-124728571D01*
X118557142Y-124757143D01*
X118500000Y-124785714D01*
X118271428Y-124785714D01*
X119128571Y-124471429D02*
X119014285Y-124471429D01*
X118957142Y-124500000D01*
X118928571Y-124528571D01*
X118871428Y-124614286D01*
X118842857Y-124728571D01*
X118842857Y-124957143D01*
X118871428Y-125014286D01*
X118900000Y-125042857D01*
X118957142Y-125071429D01*
X119071428Y-125071429D01*
X119128571Y-125042857D01*
X119157142Y-125014286D01*
X119185714Y-124957143D01*
X119185714Y-124814286D01*
X119157142Y-124757143D01*
X119128571Y-124728571D01*
X119071428Y-124700000D01*
X118957142Y-124700000D01*
X118900000Y-124728571D01*
X118871428Y-124757143D01*
X118842857Y-124814286D01*
X119700000Y-124671429D02*
X119700000Y-125071429D01*
X119557143Y-124442857D02*
X119414286Y-124871429D01*
X119785714Y-124871429D01*
X118357142Y-128228571D02*
X118300000Y-128200000D01*
X118271428Y-128171429D01*
X118242857Y-128114286D01*
X118242857Y-128085714D01*
X118271428Y-128028571D01*
X118300000Y-128000000D01*
X118357142Y-127971429D01*
X118471428Y-127971429D01*
X118528571Y-128000000D01*
X118557142Y-128028571D01*
X118585714Y-128085714D01*
X118585714Y-128114286D01*
X118557142Y-128171429D01*
X118528571Y-128200000D01*
X118471428Y-128228571D01*
X118357142Y-128228571D01*
X118300000Y-128257143D01*
X118271428Y-128285714D01*
X118242857Y-128342857D01*
X118242857Y-128457143D01*
X118271428Y-128514286D01*
X118300000Y-128542857D01*
X118357142Y-128571429D01*
X118471428Y-128571429D01*
X118528571Y-128542857D01*
X118557142Y-128514286D01*
X118585714Y-128457143D01*
X118585714Y-128342857D01*
X118557142Y-128285714D01*
X118528571Y-128257143D01*
X118471428Y-128228571D01*
X118842857Y-128571429D02*
X118842857Y-127971429D01*
X119185714Y-128571429D02*
X118928571Y-128228571D01*
X119185714Y-127971429D02*
X118842857Y-128314286D01*
X119414286Y-128028571D02*
X119442857Y-128000000D01*
X119500000Y-127971429D01*
X119642857Y-127971429D01*
X119700000Y-128000000D01*
X119728571Y-128028571D01*
X119757143Y-128085714D01*
X119757143Y-128142857D01*
X119728571Y-128228571D01*
X119385714Y-128571429D01*
X119757143Y-128571429D01*
X120614285Y-120571429D02*
X120414285Y-120285714D01*
X120271428Y-120571429D02*
X120271428Y-119971429D01*
X120500000Y-119971429D01*
X120557142Y-120000000D01*
X120585714Y-120028571D01*
X120614285Y-120085714D01*
X120614285Y-120171429D01*
X120585714Y-120228571D01*
X120557142Y-120257143D01*
X120500000Y-120285714D01*
X120271428Y-120285714D01*
X121128571Y-119971429D02*
X121014285Y-119971429D01*
X120957142Y-120000000D01*
X120928571Y-120028571D01*
X120871428Y-120114286D01*
X120842857Y-120228571D01*
X120842857Y-120457143D01*
X120871428Y-120514286D01*
X120900000Y-120542857D01*
X120957142Y-120571429D01*
X121071428Y-120571429D01*
X121128571Y-120542857D01*
X121157142Y-120514286D01*
X121185714Y-120457143D01*
X121185714Y-120314286D01*
X121157142Y-120257143D01*
X121128571Y-120228571D01*
X121071428Y-120200000D01*
X120957142Y-120200000D01*
X120900000Y-120228571D01*
X120871428Y-120257143D01*
X120842857Y-120314286D01*
X121385714Y-119971429D02*
X121757143Y-119971429D01*
X121557143Y-120200000D01*
X121642857Y-120200000D01*
X121700000Y-120228571D01*
X121728571Y-120257143D01*
X121757143Y-120314286D01*
X121757143Y-120457143D01*
X121728571Y-120514286D01*
X121700000Y-120542857D01*
X121642857Y-120571429D01*
X121471429Y-120571429D01*
X121414286Y-120542857D01*
X121385714Y-120514286D01*
X120242857Y-123428571D02*
X120271428Y-123400000D01*
X120328571Y-123371429D01*
X120471428Y-123371429D01*
X120528571Y-123400000D01*
X120557142Y-123428571D01*
X120585714Y-123485714D01*
X120585714Y-123542857D01*
X120557142Y-123628571D01*
X120214285Y-123971429D01*
X120585714Y-123971429D01*
X120842857Y-123971429D02*
X120842857Y-123371429D01*
X121185714Y-123971429D02*
X120928571Y-123628571D01*
X121185714Y-123371429D02*
X120842857Y-123714286D01*
X121557143Y-123371429D02*
X121614286Y-123371429D01*
X121671429Y-123400000D01*
X121700000Y-123428571D01*
X121728571Y-123485714D01*
X121757143Y-123600000D01*
X121757143Y-123742857D01*
X121728571Y-123857143D01*
X121700000Y-123914286D01*
X121671429Y-123942857D01*
X121614286Y-123971429D01*
X121557143Y-123971429D01*
X121500000Y-123942857D01*
X121471429Y-123914286D01*
X121442857Y-123857143D01*
X121414286Y-123742857D01*
X121414286Y-123600000D01*
X121442857Y-123485714D01*
X121471429Y-123428571D01*
X121500000Y-123400000D01*
X121557143Y-123371429D01*
X167071429Y-109385715D02*
X166785714Y-109585715D01*
X167071429Y-109728572D02*
X166471429Y-109728572D01*
X166471429Y-109500000D01*
X166500000Y-109442858D01*
X166528571Y-109414286D01*
X166585714Y-109385715D01*
X166671429Y-109385715D01*
X166728571Y-109414286D01*
X166757143Y-109442858D01*
X166785714Y-109500000D01*
X166785714Y-109728572D01*
X167071429Y-108814286D02*
X167071429Y-109157143D01*
X167071429Y-108985715D02*
X166471429Y-108985715D01*
X166557143Y-109042858D01*
X166614286Y-109100000D01*
X166642857Y-109157143D01*
X166671429Y-108300000D02*
X167071429Y-108300000D01*
X166442857Y-108442857D02*
X166871429Y-108585714D01*
X166871429Y-108214286D01*
X169928571Y-109457143D02*
X169900000Y-109428572D01*
X169871429Y-109371429D01*
X169871429Y-109228572D01*
X169900000Y-109171429D01*
X169928571Y-109142858D01*
X169985714Y-109114286D01*
X170042857Y-109114286D01*
X170128571Y-109142858D01*
X170471429Y-109485715D01*
X170471429Y-109114286D01*
X169928571Y-108885714D02*
X169900000Y-108857143D01*
X169871429Y-108800000D01*
X169871429Y-108657143D01*
X169900000Y-108600000D01*
X169928571Y-108571429D01*
X169985714Y-108542857D01*
X170042857Y-108542857D01*
X170128571Y-108571429D01*
X170471429Y-108914286D01*
X170471429Y-108542857D01*
X167071429Y-106885715D02*
X166785714Y-107085715D01*
X167071429Y-107228572D02*
X166471429Y-107228572D01*
X166471429Y-107000000D01*
X166500000Y-106942858D01*
X166528571Y-106914286D01*
X166585714Y-106885715D01*
X166671429Y-106885715D01*
X166728571Y-106914286D01*
X166757143Y-106942858D01*
X166785714Y-107000000D01*
X166785714Y-107228572D01*
X167071429Y-106314286D02*
X167071429Y-106657143D01*
X167071429Y-106485715D02*
X166471429Y-106485715D01*
X166557143Y-106542858D01*
X166614286Y-106600000D01*
X166642857Y-106657143D01*
X166471429Y-106114286D02*
X166471429Y-105742857D01*
X166700000Y-105942857D01*
X166700000Y-105857143D01*
X166728571Y-105800000D01*
X166757143Y-105771429D01*
X166814286Y-105742857D01*
X166957143Y-105742857D01*
X167014286Y-105771429D01*
X167042857Y-105800000D01*
X167071429Y-105857143D01*
X167071429Y-106028571D01*
X167042857Y-106085714D01*
X167014286Y-106114286D01*
X169928571Y-106957143D02*
X169900000Y-106928572D01*
X169871429Y-106871429D01*
X169871429Y-106728572D01*
X169900000Y-106671429D01*
X169928571Y-106642858D01*
X169985714Y-106614286D01*
X170042857Y-106614286D01*
X170128571Y-106642858D01*
X170471429Y-106985715D01*
X170471429Y-106614286D01*
X169928571Y-106385714D02*
X169900000Y-106357143D01*
X169871429Y-106300000D01*
X169871429Y-106157143D01*
X169900000Y-106100000D01*
X169928571Y-106071429D01*
X169985714Y-106042857D01*
X170042857Y-106042857D01*
X170128571Y-106071429D01*
X170471429Y-106414286D01*
X170471429Y-106042857D01*
X167071429Y-111885715D02*
X166785714Y-112085715D01*
X167071429Y-112228572D02*
X166471429Y-112228572D01*
X166471429Y-112000000D01*
X166500000Y-111942858D01*
X166528571Y-111914286D01*
X166585714Y-111885715D01*
X166671429Y-111885715D01*
X166728571Y-111914286D01*
X166757143Y-111942858D01*
X166785714Y-112000000D01*
X166785714Y-112228572D01*
X167071429Y-111314286D02*
X167071429Y-111657143D01*
X167071429Y-111485715D02*
X166471429Y-111485715D01*
X166557143Y-111542858D01*
X166614286Y-111600000D01*
X166642857Y-111657143D01*
X166528571Y-111085714D02*
X166500000Y-111057143D01*
X166471429Y-111000000D01*
X166471429Y-110857143D01*
X166500000Y-110800000D01*
X166528571Y-110771429D01*
X166585714Y-110742857D01*
X166642857Y-110742857D01*
X166728571Y-110771429D01*
X167071429Y-111114286D01*
X167071429Y-110742857D01*
X169928571Y-111957143D02*
X169900000Y-111928572D01*
X169871429Y-111871429D01*
X169871429Y-111728572D01*
X169900000Y-111671429D01*
X169928571Y-111642858D01*
X169985714Y-111614286D01*
X170042857Y-111614286D01*
X170128571Y-111642858D01*
X170471429Y-111985715D01*
X170471429Y-111614286D01*
X169928571Y-111385714D02*
X169900000Y-111357143D01*
X169871429Y-111300000D01*
X169871429Y-111157143D01*
X169900000Y-111100000D01*
X169928571Y-111071429D01*
X169985714Y-111042857D01*
X170042857Y-111042857D01*
X170128571Y-111071429D01*
X170471429Y-111414286D01*
X170471429Y-111042857D01*
X167071429Y-114100000D02*
X166785714Y-114300000D01*
X167071429Y-114442857D02*
X166471429Y-114442857D01*
X166471429Y-114214285D01*
X166500000Y-114157143D01*
X166528571Y-114128571D01*
X166585714Y-114100000D01*
X166671429Y-114100000D01*
X166728571Y-114128571D01*
X166757143Y-114157143D01*
X166785714Y-114214285D01*
X166785714Y-114442857D01*
X167071429Y-113814285D02*
X167071429Y-113700000D01*
X167042857Y-113642857D01*
X167014286Y-113614285D01*
X166928571Y-113557143D01*
X166814286Y-113528571D01*
X166585714Y-113528571D01*
X166528571Y-113557143D01*
X166500000Y-113585714D01*
X166471429Y-113642857D01*
X166471429Y-113757143D01*
X166500000Y-113814285D01*
X166528571Y-113842857D01*
X166585714Y-113871428D01*
X166728571Y-113871428D01*
X166785714Y-113842857D01*
X166814286Y-113814285D01*
X166842857Y-113757143D01*
X166842857Y-113642857D01*
X166814286Y-113585714D01*
X166785714Y-113557143D01*
X166728571Y-113528571D01*
X170471429Y-114757143D02*
X169871429Y-114757143D01*
X169871429Y-114614286D01*
X169900000Y-114528571D01*
X169957143Y-114471429D01*
X170014286Y-114442857D01*
X170128571Y-114414286D01*
X170214286Y-114414286D01*
X170328571Y-114442857D01*
X170385714Y-114471429D01*
X170442857Y-114528571D01*
X170471429Y-114614286D01*
X170471429Y-114757143D01*
X170471429Y-114157143D02*
X169871429Y-114157143D01*
X170471429Y-113814286D01*
X169871429Y-113814286D01*
X170442857Y-113557143D02*
X170471429Y-113471429D01*
X170471429Y-113328572D01*
X170442857Y-113271429D01*
X170414286Y-113242858D01*
X170357143Y-113214286D01*
X170300000Y-113214286D01*
X170242857Y-113242858D01*
X170214286Y-113271429D01*
X170185714Y-113328572D01*
X170157143Y-113442858D01*
X170128571Y-113500000D01*
X170100000Y-113528572D01*
X170042857Y-113557143D01*
X169985714Y-113557143D01*
X169928571Y-113528572D01*
X169900000Y-113500000D01*
X169871429Y-113442858D01*
X169871429Y-113300000D01*
X169900000Y-113214286D01*
X150571429Y-128100000D02*
X150285714Y-128300000D01*
X150571429Y-128442857D02*
X149971429Y-128442857D01*
X149971429Y-128214285D01*
X150000000Y-128157143D01*
X150028571Y-128128571D01*
X150085714Y-128100000D01*
X150171429Y-128100000D01*
X150228571Y-128128571D01*
X150257143Y-128157143D01*
X150285714Y-128214285D01*
X150285714Y-128442857D01*
X150228571Y-127757143D02*
X150200000Y-127814285D01*
X150171429Y-127842857D01*
X150114286Y-127871428D01*
X150085714Y-127871428D01*
X150028571Y-127842857D01*
X150000000Y-127814285D01*
X149971429Y-127757143D01*
X149971429Y-127642857D01*
X150000000Y-127585714D01*
X150028571Y-127557143D01*
X150085714Y-127528571D01*
X150114286Y-127528571D01*
X150171429Y-127557143D01*
X150200000Y-127585714D01*
X150228571Y-127642857D01*
X150228571Y-127757143D01*
X150257143Y-127814285D01*
X150285714Y-127842857D01*
X150342857Y-127871428D01*
X150457143Y-127871428D01*
X150514286Y-127842857D01*
X150542857Y-127814285D01*
X150571429Y-127757143D01*
X150571429Y-127642857D01*
X150542857Y-127585714D01*
X150514286Y-127557143D01*
X150457143Y-127528571D01*
X150342857Y-127528571D01*
X150285714Y-127557143D01*
X150257143Y-127585714D01*
X150228571Y-127642857D01*
X153971429Y-128757143D02*
X153371429Y-128757143D01*
X153371429Y-128614286D01*
X153400000Y-128528571D01*
X153457143Y-128471429D01*
X153514286Y-128442857D01*
X153628571Y-128414286D01*
X153714286Y-128414286D01*
X153828571Y-128442857D01*
X153885714Y-128471429D01*
X153942857Y-128528571D01*
X153971429Y-128614286D01*
X153971429Y-128757143D01*
X153971429Y-128157143D02*
X153371429Y-128157143D01*
X153971429Y-127814286D01*
X153371429Y-127814286D01*
X153942857Y-127557143D02*
X153971429Y-127471429D01*
X153971429Y-127328572D01*
X153942857Y-127271429D01*
X153914286Y-127242858D01*
X153857143Y-127214286D01*
X153800000Y-127214286D01*
X153742857Y-127242858D01*
X153714286Y-127271429D01*
X153685714Y-127328572D01*
X153657143Y-127442858D01*
X153628571Y-127500000D01*
X153600000Y-127528572D01*
X153542857Y-127557143D01*
X153485714Y-127557143D01*
X153428571Y-127528572D01*
X153400000Y-127500000D01*
X153371429Y-127442858D01*
X153371429Y-127300000D01*
X153400000Y-127214286D01*
X189900000Y-87971429D02*
X189614286Y-87971429D01*
X189614286Y-87371429D01*
X190071429Y-87428571D02*
X190100000Y-87400000D01*
X190157143Y-87371429D01*
X190300000Y-87371429D01*
X190357143Y-87400000D01*
X190385714Y-87428571D01*
X190414286Y-87485714D01*
X190414286Y-87542857D01*
X190385714Y-87628571D01*
X190042857Y-87971429D01*
X190414286Y-87971429D01*
X189514286Y-91071429D02*
X189514286Y-91471429D01*
X189371429Y-90842857D02*
X189228572Y-91271429D01*
X189600000Y-91271429D01*
X189771429Y-90871429D02*
X190171429Y-90871429D01*
X189914286Y-91471429D01*
X190400001Y-91471429D02*
X190400001Y-90871429D01*
X190742858Y-91471429D01*
X190742858Y-90871429D01*
X182400000Y-94271429D02*
X182114286Y-94271429D01*
X182114286Y-93671429D01*
X182914286Y-94271429D02*
X182571429Y-94271429D01*
X182742857Y-94271429D02*
X182742857Y-93671429D01*
X182685714Y-93757143D01*
X182628572Y-93814286D01*
X182571429Y-93842857D01*
X182014286Y-97471429D02*
X182014286Y-97871429D01*
X181871429Y-97242857D02*
X181728572Y-97671429D01*
X182100000Y-97671429D01*
X182271429Y-97271429D02*
X182671429Y-97271429D01*
X182414286Y-97871429D01*
X182900001Y-97871429D02*
X182900001Y-97271429D01*
X183242858Y-97871429D01*
X183242858Y-97271429D01*
X139000000Y-119257143D02*
X138800000Y-119257143D01*
X138800000Y-119571429D02*
X138800000Y-118971429D01*
X139085714Y-118971429D01*
X139514286Y-119257143D02*
X139600000Y-119285714D01*
X139628572Y-119314286D01*
X139657143Y-119371429D01*
X139657143Y-119457143D01*
X139628572Y-119514286D01*
X139600000Y-119542857D01*
X139542858Y-119571429D01*
X139314286Y-119571429D01*
X139314286Y-118971429D01*
X139514286Y-118971429D01*
X139571429Y-119000000D01*
X139600000Y-119028571D01*
X139628572Y-119085714D01*
X139628572Y-119142857D01*
X139600000Y-119200000D01*
X139571429Y-119228571D01*
X139514286Y-119257143D01*
X139314286Y-119257143D01*
X139857143Y-118971429D02*
X140228572Y-118971429D01*
X140028572Y-119200000D01*
X140114286Y-119200000D01*
X140171429Y-119228571D01*
X140200000Y-119257143D01*
X140228572Y-119314286D01*
X140228572Y-119457143D01*
X140200000Y-119514286D01*
X140171429Y-119542857D01*
X140114286Y-119571429D01*
X139942858Y-119571429D01*
X139885715Y-119542857D01*
X139857143Y-119514286D01*
X138757143Y-122428571D02*
X138785714Y-122400000D01*
X138842857Y-122371429D01*
X138985714Y-122371429D01*
X139042857Y-122400000D01*
X139071428Y-122428571D01*
X139100000Y-122485714D01*
X139100000Y-122542857D01*
X139071428Y-122628571D01*
X138728571Y-122971429D01*
X139100000Y-122971429D01*
X139328572Y-122428571D02*
X139357143Y-122400000D01*
X139414286Y-122371429D01*
X139557143Y-122371429D01*
X139614286Y-122400000D01*
X139642857Y-122428571D01*
X139671429Y-122485714D01*
X139671429Y-122542857D01*
X139642857Y-122628571D01*
X139300000Y-122971429D01*
X139671429Y-122971429D01*
X140042858Y-122371429D02*
X140100001Y-122371429D01*
X140157144Y-122400000D01*
X140185715Y-122428571D01*
X140214286Y-122485714D01*
X140242858Y-122600000D01*
X140242858Y-122742857D01*
X140214286Y-122857143D01*
X140185715Y-122914286D01*
X140157144Y-122942857D01*
X140100001Y-122971429D01*
X140042858Y-122971429D01*
X139985715Y-122942857D01*
X139957144Y-122914286D01*
X139928572Y-122857143D01*
X139900001Y-122742857D01*
X139900001Y-122600000D01*
X139928572Y-122485714D01*
X139957144Y-122428571D01*
X139985715Y-122400000D01*
X140042858Y-122371429D01*
X127950000Y-126050000D02*
X127983333Y-126083334D01*
X128016667Y-126183334D01*
X128016667Y-126250000D01*
X127983333Y-126350000D01*
X127916667Y-126416667D01*
X127850000Y-126450000D01*
X127716667Y-126483334D01*
X127616667Y-126483334D01*
X127483333Y-126450000D01*
X127416667Y-126416667D01*
X127350000Y-126350000D01*
X127316667Y-126250000D01*
X127316667Y-126183334D01*
X127350000Y-126083334D01*
X127383333Y-126050000D01*
X127550000Y-125450000D02*
X128016667Y-125450000D01*
X127283333Y-125616667D02*
X127783333Y-125783334D01*
X127783333Y-125350000D01*
X128016667Y-125050000D02*
X128016667Y-124916667D01*
X127983333Y-124850000D01*
X127950000Y-124816667D01*
X127850000Y-124750000D01*
X127716667Y-124716667D01*
X127450000Y-124716667D01*
X127383333Y-124750000D01*
X127350000Y-124783333D01*
X127316667Y-124850000D01*
X127316667Y-124983333D01*
X127350000Y-125050000D01*
X127383333Y-125083333D01*
X127450000Y-125116667D01*
X127616667Y-125116667D01*
X127683333Y-125083333D01*
X127716667Y-125050000D01*
X127750000Y-124983333D01*
X127750000Y-124850000D01*
X127716667Y-124783333D01*
X127683333Y-124750000D01*
X127616667Y-124716667D01*
X122516667Y-126000000D02*
X122516667Y-126400000D01*
X122516667Y-126200000D02*
X121816667Y-126200000D01*
X121916667Y-126266666D01*
X121983333Y-126333333D01*
X122016667Y-126400000D01*
X121816667Y-125566666D02*
X121816667Y-125499999D01*
X121850000Y-125433333D01*
X121883333Y-125399999D01*
X121950000Y-125366666D01*
X122083333Y-125333333D01*
X122250000Y-125333333D01*
X122383333Y-125366666D01*
X122450000Y-125399999D01*
X122483333Y-125433333D01*
X122516667Y-125499999D01*
X122516667Y-125566666D01*
X122483333Y-125633333D01*
X122450000Y-125666666D01*
X122383333Y-125699999D01*
X122250000Y-125733333D01*
X122083333Y-125733333D01*
X121950000Y-125699999D01*
X121883333Y-125666666D01*
X121850000Y-125633333D01*
X121816667Y-125566666D01*
X121816667Y-125033332D02*
X122383333Y-125033332D01*
X122450000Y-124999999D01*
X122483333Y-124966666D01*
X122516667Y-124899999D01*
X122516667Y-124766666D01*
X122483333Y-124699999D01*
X122450000Y-124666666D01*
X122383333Y-124633332D01*
X121816667Y-124633332D01*
X127950000Y-129050000D02*
X127983333Y-129083334D01*
X128016667Y-129183334D01*
X128016667Y-129250000D01*
X127983333Y-129350000D01*
X127916667Y-129416667D01*
X127850000Y-129450000D01*
X127716667Y-129483334D01*
X127616667Y-129483334D01*
X127483333Y-129450000D01*
X127416667Y-129416667D01*
X127350000Y-129350000D01*
X127316667Y-129250000D01*
X127316667Y-129183334D01*
X127350000Y-129083334D01*
X127383333Y-129050000D01*
X127550000Y-128450000D02*
X128016667Y-128450000D01*
X127283333Y-128616667D02*
X127783333Y-128783334D01*
X127783333Y-128350000D01*
X127616667Y-127983333D02*
X127583333Y-128050000D01*
X127550000Y-128083333D01*
X127483333Y-128116667D01*
X127450000Y-128116667D01*
X127383333Y-128083333D01*
X127350000Y-128050000D01*
X127316667Y-127983333D01*
X127316667Y-127850000D01*
X127350000Y-127783333D01*
X127383333Y-127750000D01*
X127450000Y-127716667D01*
X127483333Y-127716667D01*
X127550000Y-127750000D01*
X127583333Y-127783333D01*
X127616667Y-127850000D01*
X127616667Y-127983333D01*
X127650000Y-128050000D01*
X127683333Y-128083333D01*
X127750000Y-128116667D01*
X127883333Y-128116667D01*
X127950000Y-128083333D01*
X127983333Y-128050000D01*
X128016667Y-127983333D01*
X128016667Y-127850000D01*
X127983333Y-127783333D01*
X127950000Y-127750000D01*
X127883333Y-127716667D01*
X127750000Y-127716667D01*
X127683333Y-127750000D01*
X127650000Y-127783333D01*
X127616667Y-127850000D01*
X122516667Y-129000000D02*
X122516667Y-129400000D01*
X122516667Y-129200000D02*
X121816667Y-129200000D01*
X121916667Y-129266666D01*
X121983333Y-129333333D01*
X122016667Y-129400000D01*
X121816667Y-128566666D02*
X121816667Y-128499999D01*
X121850000Y-128433333D01*
X121883333Y-128399999D01*
X121950000Y-128366666D01*
X122083333Y-128333333D01*
X122250000Y-128333333D01*
X122383333Y-128366666D01*
X122450000Y-128399999D01*
X122483333Y-128433333D01*
X122516667Y-128499999D01*
X122516667Y-128566666D01*
X122483333Y-128633333D01*
X122450000Y-128666666D01*
X122383333Y-128699999D01*
X122250000Y-128733333D01*
X122083333Y-128733333D01*
X121950000Y-128699999D01*
X121883333Y-128666666D01*
X121850000Y-128633333D01*
X121816667Y-128566666D01*
X121816667Y-128033332D02*
X122383333Y-128033332D01*
X122450000Y-127999999D01*
X122483333Y-127966666D01*
X122516667Y-127899999D01*
X122516667Y-127766666D01*
X122483333Y-127699999D01*
X122450000Y-127666666D01*
X122383333Y-127633332D01*
X121816667Y-127633332D01*
X120614285Y-125014286D02*
X120585714Y-125042857D01*
X120500000Y-125071429D01*
X120442857Y-125071429D01*
X120357142Y-125042857D01*
X120300000Y-124985714D01*
X120271428Y-124928571D01*
X120242857Y-124814286D01*
X120242857Y-124728571D01*
X120271428Y-124614286D01*
X120300000Y-124557143D01*
X120357142Y-124500000D01*
X120442857Y-124471429D01*
X120500000Y-124471429D01*
X120585714Y-124500000D01*
X120614285Y-124528571D01*
X121128571Y-124671429D02*
X121128571Y-125071429D01*
X120985714Y-124442857D02*
X120842857Y-124871429D01*
X121214285Y-124871429D01*
X121385714Y-124471429D02*
X121785714Y-124471429D01*
X121528571Y-125071429D01*
X119928571Y-127971429D02*
X120300000Y-127971429D01*
X120100000Y-128200000D01*
X120185714Y-128200000D01*
X120242857Y-128228571D01*
X120271428Y-128257143D01*
X120300000Y-128314286D01*
X120300000Y-128457143D01*
X120271428Y-128514286D01*
X120242857Y-128542857D01*
X120185714Y-128571429D01*
X120014286Y-128571429D01*
X119957143Y-128542857D01*
X119928571Y-128514286D01*
X120500000Y-127971429D02*
X120871429Y-127971429D01*
X120671429Y-128200000D01*
X120757143Y-128200000D01*
X120814286Y-128228571D01*
X120842857Y-128257143D01*
X120871429Y-128314286D01*
X120871429Y-128457143D01*
X120842857Y-128514286D01*
X120814286Y-128542857D01*
X120757143Y-128571429D01*
X120585715Y-128571429D01*
X120528572Y-128542857D01*
X120500000Y-128514286D01*
X121242858Y-127971429D02*
X121300001Y-127971429D01*
X121357144Y-128000000D01*
X121385715Y-128028571D01*
X121414286Y-128085714D01*
X121442858Y-128200000D01*
X121442858Y-128342857D01*
X121414286Y-128457143D01*
X121385715Y-128514286D01*
X121357144Y-128542857D01*
X121300001Y-128571429D01*
X121242858Y-128571429D01*
X121185715Y-128542857D01*
X121157144Y-128514286D01*
X121128572Y-128457143D01*
X121100001Y-128342857D01*
X121100001Y-128200000D01*
X121128572Y-128085714D01*
X121157144Y-128028571D01*
X121185715Y-128000000D01*
X121242858Y-127971429D01*
X121700001Y-128571429D02*
X121700001Y-127971429D01*
X121928573Y-127971429D01*
X121985715Y-128000000D01*
X122014287Y-128028571D01*
X122042858Y-128085714D01*
X122042858Y-128171429D01*
X122014287Y-128228571D01*
X121985715Y-128257143D01*
X121928573Y-128285714D01*
X121700001Y-128285714D01*
X116250000Y-118050000D02*
X116283333Y-118083334D01*
X116316667Y-118183334D01*
X116316667Y-118250000D01*
X116283333Y-118350000D01*
X116216667Y-118416667D01*
X116150000Y-118450000D01*
X116016667Y-118483334D01*
X115916667Y-118483334D01*
X115783333Y-118450000D01*
X115716667Y-118416667D01*
X115650000Y-118350000D01*
X115616667Y-118250000D01*
X115616667Y-118183334D01*
X115650000Y-118083334D01*
X115683333Y-118050000D01*
X115850000Y-117450000D02*
X116316667Y-117450000D01*
X115583333Y-117616667D02*
X116083333Y-117783334D01*
X116083333Y-117350000D01*
X115616667Y-116783333D02*
X115616667Y-116916667D01*
X115650000Y-116983333D01*
X115683333Y-117016667D01*
X115783333Y-117083333D01*
X115916667Y-117116667D01*
X116183333Y-117116667D01*
X116250000Y-117083333D01*
X116283333Y-117050000D01*
X116316667Y-116983333D01*
X116316667Y-116850000D01*
X116283333Y-116783333D01*
X116250000Y-116750000D01*
X116183333Y-116716667D01*
X116016667Y-116716667D01*
X115950000Y-116750000D01*
X115916667Y-116783333D01*
X115883333Y-116850000D01*
X115883333Y-116983333D01*
X115916667Y-117050000D01*
X115950000Y-117083333D01*
X116016667Y-117116667D01*
X120450000Y-118266666D02*
X120916667Y-118266666D01*
X120183333Y-118433333D02*
X120683333Y-118600000D01*
X120683333Y-118166666D01*
X120216667Y-117899999D02*
X120783333Y-117899999D01*
X120850000Y-117866666D01*
X120883333Y-117833333D01*
X120916667Y-117766666D01*
X120916667Y-117633333D01*
X120883333Y-117566666D01*
X120850000Y-117533333D01*
X120783333Y-117499999D01*
X120216667Y-117499999D01*
X120216667Y-117233333D02*
X120216667Y-116766666D01*
X120916667Y-117066666D01*
X166550000Y-119450000D02*
X166583333Y-119483334D01*
X166616667Y-119583334D01*
X166616667Y-119650000D01*
X166583333Y-119750000D01*
X166516667Y-119816667D01*
X166450000Y-119850000D01*
X166316667Y-119883334D01*
X166216667Y-119883334D01*
X166083333Y-119850000D01*
X166016667Y-119816667D01*
X165950000Y-119750000D01*
X165916667Y-119650000D01*
X165916667Y-119583334D01*
X165950000Y-119483334D01*
X165983333Y-119450000D01*
X165983333Y-119183334D02*
X165950000Y-119150000D01*
X165916667Y-119083334D01*
X165916667Y-118916667D01*
X165950000Y-118850000D01*
X165983333Y-118816667D01*
X166050000Y-118783334D01*
X166116667Y-118783334D01*
X166216667Y-118816667D01*
X166616667Y-119216667D01*
X166616667Y-118783334D01*
X166216667Y-118383333D02*
X166183333Y-118450000D01*
X166150000Y-118483333D01*
X166083333Y-118516667D01*
X166050000Y-118516667D01*
X165983333Y-118483333D01*
X165950000Y-118450000D01*
X165916667Y-118383333D01*
X165916667Y-118250000D01*
X165950000Y-118183333D01*
X165983333Y-118150000D01*
X166050000Y-118116667D01*
X166083333Y-118116667D01*
X166150000Y-118150000D01*
X166183333Y-118183333D01*
X166216667Y-118250000D01*
X166216667Y-118383333D01*
X166250000Y-118450000D01*
X166283333Y-118483333D01*
X166350000Y-118516667D01*
X166483333Y-118516667D01*
X166550000Y-118483333D01*
X166583333Y-118450000D01*
X166616667Y-118383333D01*
X166616667Y-118250000D01*
X166583333Y-118183333D01*
X166550000Y-118150000D01*
X166483333Y-118116667D01*
X166350000Y-118116667D01*
X166283333Y-118150000D01*
X166250000Y-118183333D01*
X166216667Y-118250000D01*
X170650000Y-119666666D02*
X171116667Y-119666666D01*
X170383333Y-119833333D02*
X170883333Y-120000000D01*
X170883333Y-119566666D01*
X170416667Y-119299999D02*
X170983333Y-119299999D01*
X171050000Y-119266666D01*
X171083333Y-119233333D01*
X171116667Y-119166666D01*
X171116667Y-119033333D01*
X171083333Y-118966666D01*
X171050000Y-118933333D01*
X170983333Y-118899999D01*
X170416667Y-118899999D01*
X170416667Y-118633333D02*
X170416667Y-118166666D01*
X171116667Y-118466666D01*
X167114286Y-116785715D02*
X167142857Y-116814286D01*
X167171429Y-116900000D01*
X167171429Y-116957143D01*
X167142857Y-117042858D01*
X167085714Y-117100000D01*
X167028571Y-117128572D01*
X166914286Y-117157143D01*
X166828571Y-117157143D01*
X166714286Y-117128572D01*
X166657143Y-117100000D01*
X166600000Y-117042858D01*
X166571429Y-116957143D01*
X166571429Y-116900000D01*
X166600000Y-116814286D01*
X166628571Y-116785715D01*
X166628571Y-116557143D02*
X166600000Y-116528572D01*
X166571429Y-116471429D01*
X166571429Y-116328572D01*
X166600000Y-116271429D01*
X166628571Y-116242858D01*
X166685714Y-116214286D01*
X166742857Y-116214286D01*
X166828571Y-116242858D01*
X167171429Y-116585715D01*
X167171429Y-116214286D01*
X166571429Y-116014286D02*
X166571429Y-115614286D01*
X167171429Y-115871429D01*
X170671429Y-116828571D02*
X170671429Y-117171428D01*
X170671429Y-117000000D02*
X170071429Y-117000000D01*
X170157143Y-117057143D01*
X170214286Y-117114285D01*
X170242857Y-117171428D01*
X170071429Y-116457142D02*
X170071429Y-116399999D01*
X170100000Y-116342856D01*
X170128571Y-116314285D01*
X170185714Y-116285714D01*
X170300000Y-116257142D01*
X170442857Y-116257142D01*
X170557143Y-116285714D01*
X170614286Y-116314285D01*
X170642857Y-116342856D01*
X170671429Y-116399999D01*
X170671429Y-116457142D01*
X170642857Y-116514285D01*
X170614286Y-116542856D01*
X170557143Y-116571428D01*
X170442857Y-116599999D01*
X170300000Y-116599999D01*
X170185714Y-116571428D01*
X170128571Y-116542856D01*
X170100000Y-116514285D01*
X170071429Y-116457142D01*
X170671429Y-115999999D02*
X170071429Y-115999999D01*
X170671429Y-115657142D01*
X170071429Y-115657142D01*
X130514285Y-107014286D02*
X130485714Y-107042857D01*
X130400000Y-107071429D01*
X130342857Y-107071429D01*
X130257142Y-107042857D01*
X130200000Y-106985714D01*
X130171428Y-106928571D01*
X130142857Y-106814286D01*
X130142857Y-106728571D01*
X130171428Y-106614286D01*
X130200000Y-106557143D01*
X130257142Y-106500000D01*
X130342857Y-106471429D01*
X130400000Y-106471429D01*
X130485714Y-106500000D01*
X130514285Y-106528571D01*
X130742857Y-106528571D02*
X130771428Y-106500000D01*
X130828571Y-106471429D01*
X130971428Y-106471429D01*
X131028571Y-106500000D01*
X131057142Y-106528571D01*
X131085714Y-106585714D01*
X131085714Y-106642857D01*
X131057142Y-106728571D01*
X130714285Y-107071429D01*
X131085714Y-107071429D01*
X131628571Y-106471429D02*
X131342857Y-106471429D01*
X131314286Y-106757143D01*
X131342857Y-106728571D01*
X131400000Y-106700000D01*
X131542857Y-106700000D01*
X131600000Y-106728571D01*
X131628571Y-106757143D01*
X131657143Y-106814286D01*
X131657143Y-106957143D01*
X131628571Y-107014286D01*
X131600000Y-107042857D01*
X131542857Y-107071429D01*
X131400000Y-107071429D01*
X131342857Y-107042857D01*
X131314286Y-107014286D01*
X130285714Y-110571429D02*
X129942857Y-110571429D01*
X130114285Y-110571429D02*
X130114285Y-109971429D01*
X130057142Y-110057143D01*
X130000000Y-110114286D01*
X129942857Y-110142857D01*
X130657143Y-109971429D02*
X130714286Y-109971429D01*
X130771429Y-110000000D01*
X130800000Y-110028571D01*
X130828571Y-110085714D01*
X130857143Y-110200000D01*
X130857143Y-110342857D01*
X130828571Y-110457143D01*
X130800000Y-110514286D01*
X130771429Y-110542857D01*
X130714286Y-110571429D01*
X130657143Y-110571429D01*
X130600000Y-110542857D01*
X130571429Y-110514286D01*
X130542857Y-110457143D01*
X130514286Y-110342857D01*
X130514286Y-110200000D01*
X130542857Y-110085714D01*
X130571429Y-110028571D01*
X130600000Y-110000000D01*
X130657143Y-109971429D01*
X131228572Y-109971429D02*
X131285715Y-109971429D01*
X131342858Y-110000000D01*
X131371429Y-110028571D01*
X131400000Y-110085714D01*
X131428572Y-110200000D01*
X131428572Y-110342857D01*
X131400000Y-110457143D01*
X131371429Y-110514286D01*
X131342858Y-110542857D01*
X131285715Y-110571429D01*
X131228572Y-110571429D01*
X131171429Y-110542857D01*
X131142858Y-110514286D01*
X131114286Y-110457143D01*
X131085715Y-110342857D01*
X131085715Y-110200000D01*
X131114286Y-110085714D01*
X131142858Y-110028571D01*
X131171429Y-110000000D01*
X131228572Y-109971429D01*
X131685715Y-110571429D02*
X131685715Y-109971429D01*
X132028572Y-110571429D01*
X132028572Y-109971429D01*
X131550000Y-118650000D02*
X131516666Y-118683333D01*
X131416666Y-118716667D01*
X131350000Y-118716667D01*
X131250000Y-118683333D01*
X131183333Y-118616667D01*
X131150000Y-118550000D01*
X131116666Y-118416667D01*
X131116666Y-118316667D01*
X131150000Y-118183333D01*
X131183333Y-118116667D01*
X131250000Y-118050000D01*
X131350000Y-118016667D01*
X131416666Y-118016667D01*
X131516666Y-118050000D01*
X131550000Y-118083333D01*
X131816666Y-118083333D02*
X131850000Y-118050000D01*
X131916666Y-118016667D01*
X132083333Y-118016667D01*
X132150000Y-118050000D01*
X132183333Y-118083333D01*
X132216666Y-118150000D01*
X132216666Y-118216667D01*
X132183333Y-118316667D01*
X131783333Y-118716667D01*
X132216666Y-118716667D01*
X132816667Y-118250000D02*
X132816667Y-118716667D01*
X132650000Y-117983333D02*
X132483333Y-118483333D01*
X132916667Y-118483333D01*
X131433334Y-113350000D02*
X131433334Y-113816667D01*
X131266667Y-113083333D02*
X131100000Y-113583333D01*
X131533334Y-113583333D01*
X131800001Y-113116667D02*
X131800001Y-113683333D01*
X131833334Y-113750000D01*
X131866667Y-113783333D01*
X131933334Y-113816667D01*
X132066667Y-113816667D01*
X132133334Y-113783333D01*
X132166667Y-113750000D01*
X132200001Y-113683333D01*
X132200001Y-113116667D01*
X132466667Y-113116667D02*
X132933334Y-113116667D01*
X132633334Y-113816667D01*
X185864285Y-94264286D02*
X185835714Y-94292857D01*
X185750000Y-94321429D01*
X185692857Y-94321429D01*
X185607142Y-94292857D01*
X185550000Y-94235714D01*
X185521428Y-94178571D01*
X185492857Y-94064286D01*
X185492857Y-93978571D01*
X185521428Y-93864286D01*
X185550000Y-93807143D01*
X185607142Y-93750000D01*
X185692857Y-93721429D01*
X185750000Y-93721429D01*
X185835714Y-93750000D01*
X185864285Y-93778571D01*
X186435714Y-94321429D02*
X186092857Y-94321429D01*
X186264285Y-94321429D02*
X186264285Y-93721429D01*
X186207142Y-93807143D01*
X186150000Y-93864286D01*
X186092857Y-93892857D01*
X186778571Y-93978571D02*
X186721429Y-93950000D01*
X186692857Y-93921429D01*
X186664286Y-93864286D01*
X186664286Y-93835714D01*
X186692857Y-93778571D01*
X186721429Y-93750000D01*
X186778571Y-93721429D01*
X186892857Y-93721429D01*
X186950000Y-93750000D01*
X186978571Y-93778571D01*
X187007143Y-93835714D01*
X187007143Y-93864286D01*
X186978571Y-93921429D01*
X186950000Y-93950000D01*
X186892857Y-93978571D01*
X186778571Y-93978571D01*
X186721429Y-94007143D01*
X186692857Y-94035714D01*
X186664286Y-94092857D01*
X186664286Y-94207143D01*
X186692857Y-94264286D01*
X186721429Y-94292857D01*
X186778571Y-94321429D01*
X186892857Y-94321429D01*
X186950000Y-94292857D01*
X186978571Y-94264286D01*
X187007143Y-94207143D01*
X187007143Y-94092857D01*
X186978571Y-94035714D01*
X186950000Y-94007143D01*
X186892857Y-93978571D01*
X185821429Y-97821429D02*
X185478572Y-97821429D01*
X185650000Y-97821429D02*
X185650000Y-97221429D01*
X185592857Y-97307143D01*
X185535715Y-97364286D01*
X185478572Y-97392857D01*
X186192858Y-97221429D02*
X186250001Y-97221429D01*
X186307144Y-97250000D01*
X186335715Y-97278571D01*
X186364286Y-97335714D01*
X186392858Y-97450000D01*
X186392858Y-97592857D01*
X186364286Y-97707143D01*
X186335715Y-97764286D01*
X186307144Y-97792857D01*
X186250001Y-97821429D01*
X186192858Y-97821429D01*
X186135715Y-97792857D01*
X186107144Y-97764286D01*
X186078572Y-97707143D01*
X186050001Y-97592857D01*
X186050001Y-97450000D01*
X186078572Y-97335714D01*
X186107144Y-97278571D01*
X186135715Y-97250000D01*
X186192858Y-97221429D01*
X186650001Y-97821429D02*
X186650001Y-97221429D01*
X186992858Y-97821429D01*
X186992858Y-97221429D01*
X189614285Y-94214286D02*
X189585714Y-94242857D01*
X189500000Y-94271429D01*
X189442857Y-94271429D01*
X189357142Y-94242857D01*
X189300000Y-94185714D01*
X189271428Y-94128571D01*
X189242857Y-94014286D01*
X189242857Y-93928571D01*
X189271428Y-93814286D01*
X189300000Y-93757143D01*
X189357142Y-93700000D01*
X189442857Y-93671429D01*
X189500000Y-93671429D01*
X189585714Y-93700000D01*
X189614285Y-93728571D01*
X190185714Y-94271429D02*
X189842857Y-94271429D01*
X190014285Y-94271429D02*
X190014285Y-93671429D01*
X189957142Y-93757143D01*
X189900000Y-93814286D01*
X189842857Y-93842857D01*
X190385714Y-93671429D02*
X190785714Y-93671429D01*
X190528571Y-94271429D01*
X188928571Y-97271429D02*
X189300000Y-97271429D01*
X189100000Y-97500000D01*
X189185714Y-97500000D01*
X189242857Y-97528571D01*
X189271428Y-97557143D01*
X189300000Y-97614286D01*
X189300000Y-97757143D01*
X189271428Y-97814286D01*
X189242857Y-97842857D01*
X189185714Y-97871429D01*
X189014286Y-97871429D01*
X188957143Y-97842857D01*
X188928571Y-97814286D01*
X189500000Y-97271429D02*
X189871429Y-97271429D01*
X189671429Y-97500000D01*
X189757143Y-97500000D01*
X189814286Y-97528571D01*
X189842857Y-97557143D01*
X189871429Y-97614286D01*
X189871429Y-97757143D01*
X189842857Y-97814286D01*
X189814286Y-97842857D01*
X189757143Y-97871429D01*
X189585715Y-97871429D01*
X189528572Y-97842857D01*
X189500000Y-97814286D01*
X190242858Y-97271429D02*
X190300001Y-97271429D01*
X190357144Y-97300000D01*
X190385715Y-97328571D01*
X190414286Y-97385714D01*
X190442858Y-97500000D01*
X190442858Y-97642857D01*
X190414286Y-97757143D01*
X190385715Y-97814286D01*
X190357144Y-97842857D01*
X190300001Y-97871429D01*
X190242858Y-97871429D01*
X190185715Y-97842857D01*
X190157144Y-97814286D01*
X190128572Y-97757143D01*
X190100001Y-97642857D01*
X190100001Y-97500000D01*
X190128572Y-97385714D01*
X190157144Y-97328571D01*
X190185715Y-97300000D01*
X190242858Y-97271429D01*
X190700001Y-97871429D02*
X190700001Y-97271429D01*
X190928573Y-97271429D01*
X190985715Y-97300000D01*
X191014287Y-97328571D01*
X191042858Y-97385714D01*
X191042858Y-97471429D01*
X191014287Y-97528571D01*
X190985715Y-97557143D01*
X190928573Y-97585714D01*
X190700001Y-97585714D01*
X166814286Y-104385715D02*
X166842857Y-104414286D01*
X166871429Y-104500000D01*
X166871429Y-104557143D01*
X166842857Y-104642858D01*
X166785714Y-104700000D01*
X166728571Y-104728572D01*
X166614286Y-104757143D01*
X166528571Y-104757143D01*
X166414286Y-104728572D01*
X166357143Y-104700000D01*
X166300000Y-104642858D01*
X166271429Y-104557143D01*
X166271429Y-104500000D01*
X166300000Y-104414286D01*
X166328571Y-104385715D01*
X166871429Y-103814286D02*
X166871429Y-104157143D01*
X166871429Y-103985715D02*
X166271429Y-103985715D01*
X166357143Y-104042858D01*
X166414286Y-104100000D01*
X166442857Y-104157143D01*
X166271429Y-103271429D02*
X166271429Y-103557143D01*
X166557143Y-103585714D01*
X166528571Y-103557143D01*
X166500000Y-103500000D01*
X166500000Y-103357143D01*
X166528571Y-103300000D01*
X166557143Y-103271429D01*
X166614286Y-103242857D01*
X166757143Y-103242857D01*
X166814286Y-103271429D01*
X166842857Y-103300000D01*
X166871429Y-103357143D01*
X166871429Y-103500000D01*
X166842857Y-103557143D01*
X166814286Y-103585714D01*
X169971429Y-105071429D02*
X169971429Y-104700000D01*
X170200000Y-104900000D01*
X170200000Y-104814286D01*
X170228571Y-104757143D01*
X170257143Y-104728572D01*
X170314286Y-104700000D01*
X170457143Y-104700000D01*
X170514286Y-104728572D01*
X170542857Y-104757143D01*
X170571429Y-104814286D01*
X170571429Y-104985714D01*
X170542857Y-105042857D01*
X170514286Y-105071429D01*
X169971429Y-104500000D02*
X169971429Y-104128571D01*
X170200000Y-104328571D01*
X170200000Y-104242857D01*
X170228571Y-104185714D01*
X170257143Y-104157143D01*
X170314286Y-104128571D01*
X170457143Y-104128571D01*
X170514286Y-104157143D01*
X170542857Y-104185714D01*
X170571429Y-104242857D01*
X170571429Y-104414285D01*
X170542857Y-104471428D01*
X170514286Y-104500000D01*
X169971429Y-103757142D02*
X169971429Y-103699999D01*
X170000000Y-103642856D01*
X170028571Y-103614285D01*
X170085714Y-103585714D01*
X170200000Y-103557142D01*
X170342857Y-103557142D01*
X170457143Y-103585714D01*
X170514286Y-103614285D01*
X170542857Y-103642856D01*
X170571429Y-103699999D01*
X170571429Y-103757142D01*
X170542857Y-103814285D01*
X170514286Y-103842856D01*
X170457143Y-103871428D01*
X170342857Y-103899999D01*
X170200000Y-103899999D01*
X170085714Y-103871428D01*
X170028571Y-103842856D01*
X170000000Y-103814285D01*
X169971429Y-103757142D01*
X170571429Y-103299999D02*
X169971429Y-103299999D01*
X169971429Y-103071427D01*
X170000000Y-103014285D01*
X170028571Y-102985713D01*
X170085714Y-102957142D01*
X170171429Y-102957142D01*
X170228571Y-102985713D01*
X170257143Y-103014285D01*
X170285714Y-103071427D01*
X170285714Y-103299999D01*
X166714286Y-101985715D02*
X166742857Y-102014286D01*
X166771429Y-102100000D01*
X166771429Y-102157143D01*
X166742857Y-102242858D01*
X166685714Y-102300000D01*
X166628571Y-102328572D01*
X166514286Y-102357143D01*
X166428571Y-102357143D01*
X166314286Y-102328572D01*
X166257143Y-102300000D01*
X166200000Y-102242858D01*
X166171429Y-102157143D01*
X166171429Y-102100000D01*
X166200000Y-102014286D01*
X166228571Y-101985715D01*
X166771429Y-101414286D02*
X166771429Y-101757143D01*
X166771429Y-101585715D02*
X166171429Y-101585715D01*
X166257143Y-101642858D01*
X166314286Y-101700000D01*
X166342857Y-101757143D01*
X166371429Y-100900000D02*
X166771429Y-100900000D01*
X166142857Y-101042857D02*
X166571429Y-101185714D01*
X166571429Y-100814286D01*
X170471429Y-102314286D02*
X170471429Y-102657143D01*
X170471429Y-102485715D02*
X169871429Y-102485715D01*
X169957143Y-102542858D01*
X170014286Y-102600000D01*
X170042857Y-102657143D01*
X169871429Y-101942857D02*
X169871429Y-101885714D01*
X169900000Y-101828571D01*
X169928571Y-101800000D01*
X169985714Y-101771429D01*
X170100000Y-101742857D01*
X170242857Y-101742857D01*
X170357143Y-101771429D01*
X170414286Y-101800000D01*
X170442857Y-101828571D01*
X170471429Y-101885714D01*
X170471429Y-101942857D01*
X170442857Y-102000000D01*
X170414286Y-102028571D01*
X170357143Y-102057143D01*
X170242857Y-102085714D01*
X170100000Y-102085714D01*
X169985714Y-102057143D01*
X169928571Y-102028571D01*
X169900000Y-102000000D01*
X169871429Y-101942857D01*
X169871429Y-101371428D02*
X169871429Y-101314285D01*
X169900000Y-101257142D01*
X169928571Y-101228571D01*
X169985714Y-101200000D01*
X170100000Y-101171428D01*
X170242857Y-101171428D01*
X170357143Y-101200000D01*
X170414286Y-101228571D01*
X170442857Y-101257142D01*
X170471429Y-101314285D01*
X170471429Y-101371428D01*
X170442857Y-101428571D01*
X170414286Y-101457142D01*
X170357143Y-101485714D01*
X170242857Y-101514285D01*
X170100000Y-101514285D01*
X169985714Y-101485714D01*
X169928571Y-101457142D01*
X169900000Y-101428571D01*
X169871429Y-101371428D01*
X170471429Y-100914285D02*
X169871429Y-100914285D01*
X170471429Y-100571428D01*
X169871429Y-100571428D01*
X117407143Y-110578571D02*
X117350000Y-110550000D01*
X117292857Y-110492857D01*
X117207143Y-110407143D01*
X117150000Y-110378571D01*
X117092857Y-110378571D01*
X117121429Y-110521429D02*
X117064286Y-110492857D01*
X117007143Y-110435714D01*
X116978572Y-110321429D01*
X116978572Y-110121429D01*
X117007143Y-110007143D01*
X117064286Y-109950000D01*
X117121429Y-109921429D01*
X117235715Y-109921429D01*
X117292857Y-109950000D01*
X117350000Y-110007143D01*
X117378572Y-110121429D01*
X117378572Y-110321429D01*
X117350000Y-110435714D01*
X117292857Y-110492857D01*
X117235715Y-110521429D01*
X117121429Y-110521429D01*
X117950000Y-110521429D02*
X117607143Y-110521429D01*
X117778571Y-110521429D02*
X117778571Y-109921429D01*
X117721428Y-110007143D01*
X117664286Y-110064286D01*
X117607143Y-110092857D01*
X118178572Y-109978571D02*
X118207143Y-109950000D01*
X118264286Y-109921429D01*
X118407143Y-109921429D01*
X118464286Y-109950000D01*
X118492857Y-109978571D01*
X118521429Y-110035714D01*
X118521429Y-110092857D01*
X118492857Y-110178571D01*
X118150000Y-110521429D01*
X118521429Y-110521429D01*
X115521429Y-123642857D02*
X116007143Y-123642857D01*
X116064286Y-123614285D01*
X116092857Y-123585714D01*
X116121429Y-123528571D01*
X116121429Y-123414285D01*
X116092857Y-123357143D01*
X116064286Y-123328571D01*
X116007143Y-123300000D01*
X115521429Y-123300000D01*
X116121429Y-122700000D02*
X116121429Y-123042857D01*
X116121429Y-122871429D02*
X115521429Y-122871429D01*
X115607143Y-122928572D01*
X115664286Y-122985714D01*
X115692857Y-123042857D01*
X115721429Y-122185714D02*
X116121429Y-122185714D01*
X115492857Y-122328571D02*
X115921429Y-122471428D01*
X115921429Y-122100000D01*
X164452381Y-88761905D02*
X165261905Y-88761905D01*
X165357143Y-88714286D01*
X165404762Y-88666667D01*
X165452381Y-88571429D01*
X165452381Y-88380952D01*
X165404762Y-88285714D01*
X165357143Y-88238095D01*
X165261905Y-88190476D01*
X164452381Y-88190476D01*
X164785714Y-87285714D02*
X165452381Y-87285714D01*
X164404762Y-87523810D02*
X165119048Y-87761905D01*
X165119048Y-87142857D01*
X174942857Y-119771429D02*
X174942857Y-120257143D01*
X174971429Y-120314286D01*
X175000000Y-120342857D01*
X175057143Y-120371429D01*
X175171429Y-120371429D01*
X175228571Y-120342857D01*
X175257143Y-120314286D01*
X175285714Y-120257143D01*
X175285714Y-119771429D01*
X175514285Y-119771429D02*
X175885714Y-119771429D01*
X175685714Y-120000000D01*
X175771428Y-120000000D01*
X175828571Y-120028571D01*
X175857142Y-120057143D01*
X175885714Y-120114286D01*
X175885714Y-120257143D01*
X175857142Y-120314286D01*
X175828571Y-120342857D01*
X175771428Y-120371429D01*
X175600000Y-120371429D01*
X175542857Y-120342857D01*
X175514285Y-120314286D01*
X114078571Y-103621429D02*
X114078571Y-104021429D01*
X113935714Y-103392857D02*
X113792857Y-103821429D01*
X114164285Y-103821429D01*
X114307143Y-103421429D02*
X114507143Y-104021429D01*
X114707143Y-103421429D01*
X115221429Y-104021429D02*
X114878572Y-104021429D01*
X115050000Y-104021429D02*
X115050000Y-103421429D01*
X114992857Y-103507143D01*
X114935715Y-103564286D01*
X114878572Y-103592857D01*
X116278572Y-103964286D02*
X116250001Y-103992857D01*
X116164287Y-104021429D01*
X116107144Y-104021429D01*
X116021429Y-103992857D01*
X115964287Y-103935714D01*
X115935715Y-103878571D01*
X115907144Y-103764286D01*
X115907144Y-103678571D01*
X115935715Y-103564286D01*
X115964287Y-103507143D01*
X116021429Y-103450000D01*
X116107144Y-103421429D01*
X116164287Y-103421429D01*
X116250001Y-103450000D01*
X116278572Y-103478571D01*
X116535715Y-103421429D02*
X116535715Y-103907143D01*
X116564287Y-103964286D01*
X116592858Y-103992857D01*
X116650001Y-104021429D01*
X116764287Y-104021429D01*
X116821429Y-103992857D01*
X116850001Y-103964286D01*
X116878572Y-103907143D01*
X116878572Y-103421429D01*
X117507143Y-104021429D02*
X117307143Y-103735714D01*
X117164286Y-104021429D02*
X117164286Y-103421429D01*
X117392858Y-103421429D01*
X117450000Y-103450000D01*
X117478572Y-103478571D01*
X117507143Y-103535714D01*
X117507143Y-103621429D01*
X117478572Y-103678571D01*
X117450000Y-103707143D01*
X117392858Y-103735714D01*
X117164286Y-103735714D01*
X118192858Y-103992857D02*
X118278572Y-104021429D01*
X118421429Y-104021429D01*
X118478572Y-103992857D01*
X118507143Y-103964286D01*
X118535715Y-103907143D01*
X118535715Y-103850000D01*
X118507143Y-103792857D01*
X118478572Y-103764286D01*
X118421429Y-103735714D01*
X118307143Y-103707143D01*
X118250001Y-103678571D01*
X118221429Y-103650000D01*
X118192858Y-103592857D01*
X118192858Y-103535714D01*
X118221429Y-103478571D01*
X118250001Y-103450000D01*
X118307143Y-103421429D01*
X118450001Y-103421429D01*
X118535715Y-103450000D01*
X118792858Y-103707143D02*
X118992858Y-103707143D01*
X119078572Y-104021429D02*
X118792858Y-104021429D01*
X118792858Y-103421429D01*
X119078572Y-103421429D01*
X119335715Y-104021429D02*
X119335715Y-103421429D01*
X119678572Y-104021429D01*
X119678572Y-103421429D01*
X172185714Y-87152381D02*
X172185714Y-86152381D01*
X172566667Y-86152381D01*
X172661905Y-86200000D01*
X172709524Y-86247619D01*
X172757143Y-86342857D01*
X172757143Y-86485714D01*
X172709524Y-86580952D01*
X172661905Y-86628571D01*
X172566667Y-86676190D01*
X172185714Y-86676190D01*
X173709524Y-87152381D02*
X173138095Y-87152381D01*
X173423809Y-87152381D02*
X173423809Y-86152381D01*
X173328571Y-86295238D01*
X173233333Y-86390476D01*
X173138095Y-86438095D01*
X174566667Y-86152381D02*
X174376190Y-86152381D01*
X174280952Y-86200000D01*
X174233333Y-86247619D01*
X174138095Y-86390476D01*
X174090476Y-86580952D01*
X174090476Y-86961905D01*
X174138095Y-87057143D01*
X174185714Y-87104762D01*
X174280952Y-87152381D01*
X174471429Y-87152381D01*
X174566667Y-87104762D01*
X174614286Y-87057143D01*
X174661905Y-86961905D01*
X174661905Y-86723810D01*
X174614286Y-86628571D01*
X174566667Y-86580952D01*
X174471429Y-86533333D01*
X174280952Y-86533333D01*
X174185714Y-86580952D01*
X174138095Y-86628571D01*
X174090476Y-86723810D01*
X172185714Y-136152381D02*
X172185714Y-135152381D01*
X172566667Y-135152381D01*
X172661905Y-135200000D01*
X172709524Y-135247619D01*
X172757143Y-135342857D01*
X172757143Y-135485714D01*
X172709524Y-135580952D01*
X172661905Y-135628571D01*
X172566667Y-135676190D01*
X172185714Y-135676190D01*
X173709524Y-136152381D02*
X173138095Y-136152381D01*
X173423809Y-136152381D02*
X173423809Y-135152381D01*
X173328571Y-135295238D01*
X173233333Y-135390476D01*
X173138095Y-135438095D01*
X174042857Y-135152381D02*
X174661905Y-135152381D01*
X174328571Y-135533333D01*
X174471429Y-135533333D01*
X174566667Y-135580952D01*
X174614286Y-135628571D01*
X174661905Y-135723810D01*
X174661905Y-135961905D01*
X174614286Y-136057143D01*
X174566667Y-136104762D01*
X174471429Y-136152381D01*
X174185714Y-136152381D01*
X174090476Y-136104762D01*
X174042857Y-136057143D01*
X124185714Y-136152381D02*
X124185714Y-135152381D01*
X124566667Y-135152381D01*
X124661905Y-135200000D01*
X124709524Y-135247619D01*
X124757143Y-135342857D01*
X124757143Y-135485714D01*
X124709524Y-135580952D01*
X124661905Y-135628571D01*
X124566667Y-135676190D01*
X124185714Y-135676190D01*
X125709524Y-136152381D02*
X125138095Y-136152381D01*
X125423809Y-136152381D02*
X125423809Y-135152381D01*
X125328571Y-135295238D01*
X125233333Y-135390476D01*
X125138095Y-135438095D01*
X126661905Y-136152381D02*
X126090476Y-136152381D01*
X126376190Y-136152381D02*
X126376190Y-135152381D01*
X126280952Y-135295238D01*
X126185714Y-135390476D01*
X126090476Y-135438095D01*
X123861905Y-86452381D02*
X123861905Y-85452381D01*
X124242858Y-85452381D01*
X124338096Y-85500000D01*
X124385715Y-85547619D01*
X124433334Y-85642857D01*
X124433334Y-85785714D01*
X124385715Y-85880952D01*
X124338096Y-85928571D01*
X124242858Y-85976190D01*
X123861905Y-85976190D01*
X124766667Y-85452381D02*
X125433334Y-85452381D01*
X125004762Y-86452381D01*
X196561905Y-126352381D02*
X196561905Y-125352381D01*
X196942858Y-125352381D01*
X197038096Y-125400000D01*
X197085715Y-125447619D01*
X197133334Y-125542857D01*
X197133334Y-125685714D01*
X197085715Y-125780952D01*
X197038096Y-125828571D01*
X196942858Y-125876190D01*
X196561905Y-125876190D01*
X197466667Y-125352381D02*
X198085715Y-125352381D01*
X197752381Y-125733333D01*
X197895239Y-125733333D01*
X197990477Y-125780952D01*
X198038096Y-125828571D01*
X198085715Y-125923810D01*
X198085715Y-126161905D01*
X198038096Y-126257143D01*
X197990477Y-126304762D01*
X197895239Y-126352381D01*
X197609524Y-126352381D01*
X197514286Y-126304762D01*
X197466667Y-126257143D01*
X196661905Y-95652381D02*
X196661905Y-94652381D01*
X197042858Y-94652381D01*
X197138096Y-94700000D01*
X197185715Y-94747619D01*
X197233334Y-94842857D01*
X197233334Y-94985714D01*
X197185715Y-95080952D01*
X197138096Y-95128571D01*
X197042858Y-95176190D01*
X196661905Y-95176190D01*
X197614286Y-94747619D02*
X197661905Y-94700000D01*
X197757143Y-94652381D01*
X197995239Y-94652381D01*
X198090477Y-94700000D01*
X198138096Y-94747619D01*
X198185715Y-94842857D01*
X198185715Y-94938095D01*
X198138096Y-95080952D01*
X197566667Y-95652381D01*
X198185715Y-95652381D01*
X172257143Y-100371429D02*
X172257143Y-99771429D01*
X172485715Y-99771429D01*
X172542857Y-99800000D01*
X172571429Y-99828571D01*
X172600000Y-99885714D01*
X172600000Y-99971429D01*
X172571429Y-100028571D01*
X172542857Y-100057143D01*
X172485715Y-100085714D01*
X172257143Y-100085714D01*
X173171429Y-100371429D02*
X172828572Y-100371429D01*
X173000000Y-100371429D02*
X173000000Y-99771429D01*
X172942857Y-99857143D01*
X172885715Y-99914286D01*
X172828572Y-99942857D01*
X122171429Y-118100000D02*
X122171429Y-118385714D01*
X121571429Y-118385714D01*
X121771429Y-117642857D02*
X122171429Y-117642857D01*
X121542857Y-117785714D02*
X121971429Y-117928571D01*
X121971429Y-117557143D01*
X127971429Y-123328572D02*
X127371429Y-123328572D01*
X127371429Y-123185715D01*
X127400000Y-123100000D01*
X127457143Y-123042858D01*
X127514286Y-123014286D01*
X127628571Y-122985715D01*
X127714286Y-122985715D01*
X127828571Y-123014286D01*
X127885714Y-123042858D01*
X127942857Y-123100000D01*
X127971429Y-123185715D01*
X127971429Y-123328572D01*
X127971429Y-122414286D02*
X127971429Y-122757143D01*
X127971429Y-122585715D02*
X127371429Y-122585715D01*
X127457143Y-122642858D01*
X127514286Y-122700000D01*
X127542857Y-122757143D01*
X127371429Y-122214286D02*
X127371429Y-121842857D01*
X127600000Y-122042857D01*
X127600000Y-121957143D01*
X127628571Y-121900000D01*
X127657143Y-121871429D01*
X127714286Y-121842857D01*
X127857143Y-121842857D01*
X127914286Y-121871429D01*
X127942857Y-121900000D01*
X127971429Y-121957143D01*
X127971429Y-122128571D01*
X127942857Y-122185714D01*
X127914286Y-122214286D01*
X140814286Y-124385715D02*
X140842857Y-124414286D01*
X140871429Y-124500000D01*
X140871429Y-124557143D01*
X140842857Y-124642858D01*
X140785714Y-124700000D01*
X140728571Y-124728572D01*
X140614286Y-124757143D01*
X140528571Y-124757143D01*
X140414286Y-124728572D01*
X140357143Y-124700000D01*
X140300000Y-124642858D01*
X140271429Y-124557143D01*
X140271429Y-124500000D01*
X140300000Y-124414286D01*
X140328571Y-124385715D01*
X140328571Y-124157143D02*
X140300000Y-124128572D01*
X140271429Y-124071429D01*
X140271429Y-123928572D01*
X140300000Y-123871429D01*
X140328571Y-123842858D01*
X140385714Y-123814286D01*
X140442857Y-123814286D01*
X140528571Y-123842858D01*
X140871429Y-124185715D01*
X140871429Y-123814286D01*
X140271429Y-123300000D02*
X140271429Y-123414286D01*
X140300000Y-123471429D01*
X140328571Y-123500000D01*
X140414286Y-123557143D01*
X140528571Y-123585714D01*
X140757143Y-123585714D01*
X140814286Y-123557143D01*
X140842857Y-123528571D01*
X140871429Y-123471429D01*
X140871429Y-123357143D01*
X140842857Y-123300000D01*
X140814286Y-123271429D01*
X140757143Y-123242857D01*
X140614286Y-123242857D01*
X140557143Y-123271429D01*
X140528571Y-123300000D01*
X140500000Y-123357143D01*
X140500000Y-123471429D01*
X140528571Y-123528571D01*
X140557143Y-123557143D01*
X140614286Y-123585714D01*
X148128571Y-125057143D02*
X148100000Y-125028572D01*
X148071429Y-124971429D01*
X148071429Y-124828572D01*
X148100000Y-124771429D01*
X148128571Y-124742858D01*
X148185714Y-124714286D01*
X148242857Y-124714286D01*
X148328571Y-124742858D01*
X148671429Y-125085715D01*
X148671429Y-124714286D01*
X148128571Y-124485714D02*
X148100000Y-124457143D01*
X148071429Y-124400000D01*
X148071429Y-124257143D01*
X148100000Y-124200000D01*
X148128571Y-124171429D01*
X148185714Y-124142857D01*
X148242857Y-124142857D01*
X148328571Y-124171429D01*
X148671429Y-124514286D01*
X148671429Y-124142857D01*
X148071429Y-123771428D02*
X148071429Y-123714285D01*
X148100000Y-123657142D01*
X148128571Y-123628571D01*
X148185714Y-123600000D01*
X148300000Y-123571428D01*
X148442857Y-123571428D01*
X148557143Y-123600000D01*
X148614286Y-123628571D01*
X148642857Y-123657142D01*
X148671429Y-123714285D01*
X148671429Y-123771428D01*
X148642857Y-123828571D01*
X148614286Y-123857142D01*
X148557143Y-123885714D01*
X148442857Y-123914285D01*
X148300000Y-123914285D01*
X148185714Y-123885714D01*
X148128571Y-123857142D01*
X148100000Y-123828571D01*
X148071429Y-123771428D01*
X148071429Y-123314285D02*
X148557143Y-123314285D01*
X148614286Y-123285713D01*
X148642857Y-123257142D01*
X148671429Y-123199999D01*
X148671429Y-123085713D01*
X148642857Y-123028571D01*
X148614286Y-122999999D01*
X148557143Y-122971428D01*
X148071429Y-122971428D01*
X130314286Y-124385715D02*
X130342857Y-124414286D01*
X130371429Y-124500000D01*
X130371429Y-124557143D01*
X130342857Y-124642858D01*
X130285714Y-124700000D01*
X130228571Y-124728572D01*
X130114286Y-124757143D01*
X130028571Y-124757143D01*
X129914286Y-124728572D01*
X129857143Y-124700000D01*
X129800000Y-124642858D01*
X129771429Y-124557143D01*
X129771429Y-124500000D01*
X129800000Y-124414286D01*
X129828571Y-124385715D01*
X129828571Y-124157143D02*
X129800000Y-124128572D01*
X129771429Y-124071429D01*
X129771429Y-123928572D01*
X129800000Y-123871429D01*
X129828571Y-123842858D01*
X129885714Y-123814286D01*
X129942857Y-123814286D01*
X130028571Y-123842858D01*
X130371429Y-124185715D01*
X130371429Y-123814286D01*
X129771429Y-123614286D02*
X129771429Y-123242857D01*
X130000000Y-123442857D01*
X130000000Y-123357143D01*
X130028571Y-123300000D01*
X130057143Y-123271429D01*
X130114286Y-123242857D01*
X130257143Y-123242857D01*
X130314286Y-123271429D01*
X130342857Y-123300000D01*
X130371429Y-123357143D01*
X130371429Y-123528571D01*
X130342857Y-123585714D01*
X130314286Y-123614286D01*
X137628571Y-125057143D02*
X137600000Y-125028572D01*
X137571429Y-124971429D01*
X137571429Y-124828572D01*
X137600000Y-124771429D01*
X137628571Y-124742858D01*
X137685714Y-124714286D01*
X137742857Y-124714286D01*
X137828571Y-124742858D01*
X138171429Y-125085715D01*
X138171429Y-124714286D01*
X137628571Y-124485714D02*
X137600000Y-124457143D01*
X137571429Y-124400000D01*
X137571429Y-124257143D01*
X137600000Y-124200000D01*
X137628571Y-124171429D01*
X137685714Y-124142857D01*
X137742857Y-124142857D01*
X137828571Y-124171429D01*
X138171429Y-124514286D01*
X138171429Y-124142857D01*
X137571429Y-123771428D02*
X137571429Y-123714285D01*
X137600000Y-123657142D01*
X137628571Y-123628571D01*
X137685714Y-123600000D01*
X137800000Y-123571428D01*
X137942857Y-123571428D01*
X138057143Y-123600000D01*
X138114286Y-123628571D01*
X138142857Y-123657142D01*
X138171429Y-123714285D01*
X138171429Y-123771428D01*
X138142857Y-123828571D01*
X138114286Y-123857142D01*
X138057143Y-123885714D01*
X137942857Y-123914285D01*
X137800000Y-123914285D01*
X137685714Y-123885714D01*
X137628571Y-123857142D01*
X137600000Y-123828571D01*
X137571429Y-123771428D01*
X137571429Y-123314285D02*
X138057143Y-123314285D01*
X138114286Y-123285713D01*
X138142857Y-123257142D01*
X138171429Y-123199999D01*
X138171429Y-123085713D01*
X138142857Y-123028571D01*
X138114286Y-122999999D01*
X138057143Y-122971428D01*
X137571429Y-122971428D01*
X125357143Y-93357143D02*
X125309524Y-93404762D01*
X125166667Y-93452381D01*
X125071429Y-93452381D01*
X124928571Y-93404762D01*
X124833333Y-93309524D01*
X124785714Y-93214286D01*
X124738095Y-93023810D01*
X124738095Y-92880952D01*
X124785714Y-92690476D01*
X124833333Y-92595238D01*
X124928571Y-92500000D01*
X125071429Y-92452381D01*
X125166667Y-92452381D01*
X125309524Y-92500000D01*
X125357143Y-92547619D01*
X126309524Y-93452381D02*
X125738095Y-93452381D01*
X126023809Y-93452381D02*
X126023809Y-92452381D01*
X125928571Y-92595238D01*
X125833333Y-92690476D01*
X125738095Y-92738095D01*
X127166667Y-92452381D02*
X126976190Y-92452381D01*
X126880952Y-92500000D01*
X126833333Y-92547619D01*
X126738095Y-92690476D01*
X126690476Y-92880952D01*
X126690476Y-93261905D01*
X126738095Y-93357143D01*
X126785714Y-93404762D01*
X126880952Y-93452381D01*
X127071429Y-93452381D01*
X127166667Y-93404762D01*
X127214286Y-93357143D01*
X127261905Y-93261905D01*
X127261905Y-93023810D01*
X127214286Y-92928571D01*
X127166667Y-92880952D01*
X127071429Y-92833333D01*
X126880952Y-92833333D01*
X126785714Y-92880952D01*
X126738095Y-92928571D01*
X126690476Y-93023810D01*
X124809524Y-93852381D02*
X124904763Y-93852381D01*
X125000001Y-93900000D01*
X125047620Y-93947619D01*
X125095239Y-94042857D01*
X125142858Y-94233333D01*
X125142858Y-94471429D01*
X125095239Y-94661905D01*
X125047620Y-94757143D01*
X125000001Y-94804762D01*
X124904763Y-94852381D01*
X124809524Y-94852381D01*
X124714286Y-94804762D01*
X124666667Y-94757143D01*
X124619048Y-94661905D01*
X124571429Y-94471429D01*
X124571429Y-94233333D01*
X124619048Y-94042857D01*
X124666667Y-93947619D01*
X124714286Y-93900000D01*
X124809524Y-93852381D01*
X125571429Y-94757143D02*
X125619048Y-94804762D01*
X125571429Y-94852381D01*
X125523810Y-94804762D01*
X125571429Y-94757143D01*
X125571429Y-94852381D01*
X126571429Y-94852381D02*
X126000000Y-94852381D01*
X126285714Y-94852381D02*
X126285714Y-93852381D01*
X126190476Y-93995238D01*
X126095238Y-94090476D01*
X126000000Y-94138095D01*
X127333334Y-94328571D02*
X127000000Y-94328571D01*
X127000000Y-94852381D02*
X127000000Y-93852381D01*
X127476191Y-93852381D01*
M02*
