G04 #@! TF.FileFunction,Copper,L2,Bot,Signal*
%FSLAX46Y46*%
G04 Gerber Fmt 4.6, Leading zero omitted, Abs format (unit mm)*
G04 Created by KiCad (PCBNEW 4.0.0-rc1-stable) date 10/22/2015 12:37:03 PM*
%MOMM*%
G01*
G04 APERTURE LIST*
%ADD10C,0.100000*%
%ADD11C,6.200000*%
%ADD12R,1.727200X1.727200*%
%ADD13O,1.727200X1.727200*%
%ADD14O,3.014980X1.506220*%
%ADD15R,5.000000X11.500000*%
%ADD16C,1.800000*%
%ADD17C,1.700000*%
%ADD18R,1.700000X1.700000*%
%ADD19C,0.600000*%
%ADD20C,0.250000*%
%ADD21C,0.400000*%
G04 APERTURE END LIST*
D10*
D11*
X117000000Y-135000000D03*
X117000000Y-86000000D03*
X175000000Y-86000000D03*
X175000000Y-135000000D03*
D12*
X149500000Y-135500000D03*
D13*
X149500000Y-132960000D03*
X146960000Y-135500000D03*
X146960000Y-132960000D03*
X144420000Y-135500000D03*
X144420000Y-132960000D03*
X141880000Y-135500000D03*
X141880000Y-132960000D03*
X139340000Y-135500000D03*
X139340000Y-132960000D03*
X136800000Y-135500000D03*
X136800000Y-132960000D03*
X134260000Y-135500000D03*
X134260000Y-132960000D03*
X131720000Y-135500000D03*
X131720000Y-132960000D03*
X129180000Y-135500000D03*
X129180000Y-132960000D03*
X126640000Y-135500000D03*
X126640000Y-132960000D03*
D14*
X117000000Y-105480000D03*
X117000000Y-108020000D03*
D15*
X196000000Y-132500000D03*
X196000000Y-88500000D03*
D16*
X193970000Y-117990000D03*
X184170000Y-101940000D03*
D17*
X123500000Y-102000000D03*
D18*
X128500000Y-102000000D03*
D19*
X133700000Y-111700000D03*
X165800000Y-107500000D03*
X162700000Y-106500000D03*
X162700000Y-107500000D03*
X152400000Y-107300000D03*
X144300000Y-102500000D03*
X150200000Y-128100000D03*
X171600000Y-117600000D03*
X171750000Y-121000000D03*
X134700000Y-118000000D03*
X133500000Y-117100000D03*
X192000000Y-124000000D03*
X188000000Y-124000000D03*
X184000000Y-124000000D03*
X157000000Y-124000000D03*
X160000000Y-127000000D03*
X163000000Y-130000000D03*
X166000000Y-133000000D03*
X166000000Y-137000000D03*
X162000000Y-137000000D03*
X156000000Y-131000000D03*
X153000000Y-137000000D03*
X174000000Y-97000000D03*
X174000000Y-101000000D03*
X170000000Y-97000000D03*
X178000000Y-98000000D03*
X178000000Y-105000000D03*
X178000000Y-112000000D03*
X178000000Y-119000000D03*
X193000000Y-112000000D03*
X193000000Y-104000000D03*
X189000000Y-116000000D03*
X189000000Y-108000000D03*
X189000000Y-100000000D03*
X184000000Y-105000000D03*
X184000000Y-112000000D03*
X184000000Y-120000000D03*
X197000000Y-100000000D03*
X197000000Y-104000000D03*
X197000000Y-108000000D03*
X197000000Y-112000000D03*
X197000000Y-116000000D03*
X197000000Y-120000000D03*
X192000000Y-136000000D03*
X189000000Y-137000000D03*
X186000000Y-137000000D03*
X183000000Y-137000000D03*
X180000000Y-137000000D03*
X157000000Y-120000000D03*
X159000000Y-122000000D03*
X161000000Y-124000000D03*
X163000000Y-126000000D03*
X165000000Y-128000000D03*
X167000000Y-130000000D03*
X169000000Y-131000000D03*
X172000000Y-131000000D03*
X175000000Y-131000000D03*
X178000000Y-132000000D03*
X180000000Y-134000000D03*
X183000000Y-134000000D03*
X186000000Y-134000000D03*
X189000000Y-134000000D03*
X192000000Y-134000000D03*
X159000000Y-118000000D03*
X161000000Y-120000000D03*
X163000000Y-122000000D03*
X165000000Y-124000000D03*
X167000000Y-126000000D03*
X169000000Y-128000000D03*
X172000000Y-128000000D03*
X175000000Y-128000000D03*
X178000000Y-128000000D03*
X180000000Y-130000000D03*
X182000000Y-131000000D03*
X185000000Y-131000000D03*
X188000000Y-131000000D03*
X188500000Y-129000000D03*
X187000000Y-127500000D03*
X184000000Y-127500000D03*
X181000000Y-127500000D03*
X166000000Y-94000000D03*
X169000000Y-94000000D03*
X172000000Y-94000000D03*
X175000000Y-94000000D03*
X178000000Y-94000000D03*
X181000000Y-92000000D03*
X183000000Y-90000000D03*
X186000000Y-90000000D03*
X188000000Y-91000000D03*
X187000000Y-93000000D03*
X184000000Y-93000000D03*
X181000000Y-94000000D03*
X184800000Y-96600000D03*
X186000000Y-99000000D03*
X188000000Y-96600000D03*
X190000000Y-99000000D03*
X191600000Y-96600000D03*
X163000000Y-87000000D03*
X163000000Y-84000000D03*
X166000000Y-84000000D03*
X169000000Y-84000000D03*
X167000000Y-88000000D03*
X169000000Y-91000000D03*
X172000000Y-91000000D03*
X175000000Y-91000000D03*
X178000000Y-91000000D03*
X180000000Y-89000000D03*
X182000000Y-87000000D03*
X185000000Y-87000000D03*
X188000000Y-87000000D03*
X191000000Y-87000000D03*
X193000000Y-85000000D03*
X190000000Y-84000000D03*
X187000000Y-84000000D03*
X184000000Y-84000000D03*
X181000000Y-84000000D03*
X130600000Y-103100000D03*
X130500000Y-96600000D03*
X130600000Y-88300000D03*
X121900000Y-92800000D03*
X122000000Y-99900000D03*
X114600000Y-89900000D03*
X114600000Y-101100000D03*
X114400000Y-111400000D03*
X115200000Y-130400000D03*
X135900000Y-102900000D03*
X135900000Y-101100000D03*
X140346880Y-101155152D03*
X139000000Y-103100000D03*
X135500000Y-126700000D03*
X139300000Y-124700000D03*
X144300000Y-114500000D03*
X144000000Y-118200000D03*
X146400000Y-121000000D03*
X132200000Y-107500000D03*
X135500000Y-107500000D03*
X135500000Y-110500000D03*
X121200000Y-119500000D03*
X121200000Y-117700000D03*
X121200000Y-115900000D03*
X121200000Y-113900000D03*
X165800000Y-110500000D03*
X165800000Y-106500000D03*
X151800000Y-90600000D03*
X154600000Y-88400000D03*
X135600000Y-116800000D03*
X135800000Y-113800000D03*
X139000000Y-114600000D03*
X139000000Y-110000000D03*
X144000000Y-97600000D03*
X147000000Y-94600000D03*
X149600000Y-92000000D03*
X149600000Y-89000000D03*
X146000000Y-126700000D03*
X144400000Y-129300000D03*
X157500000Y-98000000D03*
X150500000Y-98000000D03*
X158000000Y-91000000D03*
X158000000Y-89500000D03*
X158000000Y-88000000D03*
X122500000Y-84500000D03*
X134000000Y-84000000D03*
X138500000Y-91500000D03*
X137000000Y-99500000D03*
X139500000Y-97000000D03*
X142000000Y-94500000D03*
X144500000Y-92000000D03*
X145500000Y-89000000D03*
X148500000Y-112000000D03*
X149500000Y-102000000D03*
X132500000Y-126700000D03*
X134000000Y-130000000D03*
X156000000Y-118000000D03*
X167600000Y-102800000D03*
X156200000Y-114400000D03*
X157600000Y-114400000D03*
X159000000Y-114400000D03*
X159800000Y-115400000D03*
X160000000Y-116800000D03*
X165800000Y-96200000D03*
X164600000Y-90200000D03*
X162800000Y-90200000D03*
X162000000Y-91600000D03*
X162000000Y-93200000D03*
X162600000Y-94800000D03*
X162600000Y-96400000D03*
X179200000Y-121800000D03*
X174000000Y-121600000D03*
X168800000Y-114100000D03*
X165800000Y-111600000D03*
X164300000Y-111600000D03*
X196000000Y-96000000D03*
X192000000Y-93000000D03*
X192000000Y-91000000D03*
X166000000Y-91000000D03*
X194000000Y-124000000D03*
X197000000Y-124000000D03*
X192000000Y-130000000D03*
X192000000Y-126000000D03*
X162000000Y-97200000D03*
X160800000Y-83600000D03*
X140000000Y-83800000D03*
X166000000Y-99600000D03*
X174400000Y-111000000D03*
X174400000Y-108600000D03*
X140900000Y-102700000D03*
X146400000Y-118000000D03*
X146400000Y-114600000D03*
X162300000Y-98800000D03*
X165800000Y-101600000D03*
X160400000Y-98000000D03*
X167600000Y-107600000D03*
X161600000Y-98000000D03*
X165800000Y-100600000D03*
X150000000Y-120250000D03*
X150000000Y-113750000D03*
X149500000Y-119500000D03*
X149000000Y-113750000D03*
X151300000Y-135000000D03*
X135250000Y-123500000D03*
X139250000Y-123500000D03*
X151200000Y-117800000D03*
X151500000Y-113100000D03*
X159300000Y-110900000D03*
X163000000Y-112700000D03*
X152400000Y-134200000D03*
X142800000Y-114400000D03*
X141800000Y-114400000D03*
X145700000Y-131500000D03*
X145900000Y-111500000D03*
X136200000Y-131000000D03*
X140000000Y-129800000D03*
X145100000Y-112900000D03*
X139000000Y-128200000D03*
X146500000Y-130800000D03*
X149100000Y-120300000D03*
X148500000Y-117600000D03*
D20*
X135500000Y-110500000D02*
X135500000Y-111200000D01*
X135000000Y-111700000D02*
X133700000Y-111700000D01*
X135500000Y-111200000D02*
X135000000Y-111700000D01*
X165800000Y-107500000D02*
X165900000Y-107500000D01*
X165900000Y-107500000D02*
X165800000Y-107500000D01*
X162700000Y-107500000D02*
X162700000Y-106500000D01*
X152600000Y-107100000D02*
X153700000Y-107100000D01*
X152400000Y-107300000D02*
X152600000Y-107100000D01*
X149500000Y-102000000D02*
X144800000Y-102000000D01*
X144800000Y-102000000D02*
X144300000Y-102500000D01*
X171600000Y-117600000D02*
X171800000Y-117800000D01*
X171800000Y-117800000D02*
X171750000Y-121000000D01*
X134400000Y-118000000D02*
X134700000Y-118000000D01*
X133500000Y-117100000D02*
X134400000Y-118000000D01*
X192000000Y-124000000D02*
X188000000Y-124000000D01*
X184000000Y-124000000D02*
X184000000Y-123000000D01*
X157000000Y-124000000D02*
X160000000Y-127000000D01*
X163000000Y-130000000D02*
X166000000Y-133000000D01*
X166000000Y-137000000D02*
X162000000Y-137000000D01*
X156000000Y-131000000D02*
X156000000Y-134000000D01*
X156000000Y-134000000D02*
X153000000Y-137000000D01*
X178000000Y-105000000D02*
X174000000Y-101000000D01*
X170000000Y-97000000D02*
X174000000Y-97000000D01*
X178000000Y-98000000D02*
X178000000Y-105000000D01*
X178000000Y-112000000D02*
X178000000Y-119000000D01*
X193000000Y-112000000D02*
X193000000Y-104000000D01*
X197000000Y-116000000D02*
X189000000Y-116000000D01*
X189000000Y-116000000D02*
X189000000Y-108000000D01*
X189000000Y-108000000D02*
X189000000Y-116000000D01*
X189000000Y-108000000D02*
X189000000Y-100000000D01*
X184000000Y-105000000D02*
X184000000Y-112000000D01*
X196000000Y-96000000D02*
X197000000Y-97000000D01*
X197000000Y-97000000D02*
X197000000Y-100000000D01*
X197000000Y-104000000D02*
X197000000Y-108000000D01*
X197000000Y-112000000D02*
X197000000Y-116000000D01*
X197000000Y-120000000D02*
X197000000Y-124000000D01*
X192000000Y-136000000D02*
X190000000Y-136000000D01*
X190000000Y-136000000D02*
X189000000Y-137000000D01*
X186000000Y-137000000D02*
X183000000Y-137000000D01*
X180000000Y-137000000D02*
X180000000Y-136000000D01*
X156000000Y-118000000D02*
X157000000Y-119000000D01*
X157000000Y-119000000D02*
X157000000Y-120000000D01*
X159000000Y-122000000D02*
X161000000Y-124000000D01*
X163000000Y-126000000D02*
X165000000Y-128000000D01*
X167000000Y-130000000D02*
X168000000Y-131000000D01*
X168000000Y-131000000D02*
X169000000Y-131000000D01*
X172000000Y-131000000D02*
X175000000Y-131000000D01*
X178000000Y-132000000D02*
X180000000Y-134000000D01*
X183000000Y-134000000D02*
X186000000Y-134000000D01*
X189000000Y-134000000D02*
X192000000Y-134000000D01*
X159000000Y-118000000D02*
X161000000Y-120000000D01*
X163000000Y-122000000D02*
X165000000Y-124000000D01*
X167000000Y-126000000D02*
X169000000Y-128000000D01*
X172000000Y-128000000D02*
X175000000Y-128000000D01*
X178000000Y-128000000D02*
X180000000Y-130000000D01*
X182000000Y-131000000D02*
X185000000Y-131000000D01*
X188000000Y-131000000D02*
X188000000Y-129500000D01*
X188000000Y-129500000D02*
X188500000Y-129000000D01*
X187000000Y-127500000D02*
X184000000Y-127500000D01*
X181000000Y-127500000D02*
X181000000Y-128000000D01*
X165800000Y-96200000D02*
X165800000Y-94200000D01*
X165800000Y-94200000D02*
X166000000Y-94000000D01*
X169000000Y-94000000D02*
X172000000Y-94000000D01*
X175000000Y-94000000D02*
X178000000Y-94000000D01*
X181000000Y-92000000D02*
X183000000Y-90000000D01*
X186000000Y-90000000D02*
X187000000Y-90000000D01*
X187000000Y-90000000D02*
X188000000Y-91000000D01*
X187000000Y-93000000D02*
X184000000Y-93000000D01*
X181000000Y-94000000D02*
X181000000Y-96000000D01*
X181000000Y-96000000D02*
X184500000Y-96000000D01*
X184500000Y-96000000D02*
X184800000Y-96600000D01*
X186000000Y-99000000D02*
X188000000Y-96600000D01*
X190000000Y-99000000D02*
X190000000Y-98000000D01*
X190000000Y-98000000D02*
X191600000Y-96600000D01*
X163000000Y-87000000D02*
X163000000Y-84000000D01*
X166000000Y-84000000D02*
X169000000Y-84000000D01*
X167000000Y-88000000D02*
X168000000Y-88000000D01*
X169000000Y-91000000D02*
X172000000Y-91000000D01*
X175000000Y-91000000D02*
X178000000Y-91000000D01*
X180000000Y-89000000D02*
X182000000Y-87000000D01*
X185000000Y-87000000D02*
X188000000Y-87000000D01*
X191000000Y-87000000D02*
X193000000Y-85000000D01*
X190000000Y-84000000D02*
X187000000Y-84000000D01*
X184000000Y-84000000D02*
X181000000Y-84000000D01*
X132200000Y-107500000D02*
X130600000Y-105600000D01*
X130600000Y-105600000D02*
X130600000Y-103100000D01*
X130500000Y-96600000D02*
X130500000Y-88400000D01*
X130500000Y-88400000D02*
X130600000Y-88300000D01*
X121900000Y-92800000D02*
X121900000Y-99800000D01*
X121900000Y-99800000D02*
X122000000Y-99900000D01*
X114600000Y-89900000D02*
X114600000Y-101100000D01*
X114400000Y-111400000D02*
X114400000Y-129600000D01*
X114400000Y-129600000D02*
X115200000Y-130400000D01*
X135900000Y-102900000D02*
X135800000Y-103000000D01*
X137000000Y-99500000D02*
X135900000Y-100600000D01*
X135900000Y-100600000D02*
X135900000Y-101100000D01*
X140346880Y-101155152D02*
X140391728Y-101200000D01*
X140391728Y-101200000D02*
X140700000Y-101200000D01*
X139000000Y-103100000D02*
X139600000Y-103100000D01*
X135500000Y-126700000D02*
X135750000Y-127500000D01*
X132500000Y-126700000D02*
X133800000Y-124700000D01*
X133800000Y-124700000D02*
X139300000Y-124700000D01*
X144000000Y-118200000D02*
X144300000Y-117900000D01*
X144300000Y-117900000D02*
X144300000Y-114500000D01*
X146400000Y-121000000D02*
X144000000Y-118600000D01*
X144000000Y-118600000D02*
X144000000Y-118200000D01*
X146000000Y-126700000D02*
X146400000Y-125400000D01*
X146400000Y-125400000D02*
X146400000Y-121000000D01*
X132200000Y-107500000D02*
X132000000Y-106900000D01*
X135500000Y-110500000D02*
X135500000Y-107500000D01*
X121200000Y-119500000D02*
X121200000Y-117700000D01*
X121200000Y-115900000D02*
X121200000Y-113900000D01*
X165800000Y-110500000D02*
X165800000Y-107500000D01*
X165800000Y-107500000D02*
X165800000Y-106500000D01*
X152400000Y-90600000D02*
X151800000Y-90600000D01*
X154600000Y-88400000D02*
X152400000Y-90600000D01*
X139000000Y-110000000D02*
X139000000Y-110600000D01*
X135000000Y-116200000D02*
X135000000Y-115800000D01*
X135600000Y-116800000D02*
X135000000Y-116200000D01*
X139000000Y-110600000D02*
X135800000Y-113800000D01*
X139000000Y-110000000D02*
X139000000Y-114600000D01*
X139000000Y-110000000D02*
X139000000Y-112600000D01*
X147000000Y-94600000D02*
X144000000Y-97600000D01*
X149600000Y-89000000D02*
X149600000Y-92000000D01*
X147000000Y-127400000D02*
X146000000Y-126700000D01*
X144400000Y-129300000D02*
X147000000Y-127400000D01*
X157500000Y-98000000D02*
X157500000Y-96500000D01*
X151000000Y-98000000D02*
X150500000Y-98000000D01*
X158000000Y-91000000D02*
X151000000Y-98000000D01*
X158000000Y-88000000D02*
X158000000Y-89500000D01*
X123000000Y-84000000D02*
X122500000Y-84500000D01*
X134000000Y-84000000D02*
X123000000Y-84000000D01*
X134000000Y-91500000D02*
X138500000Y-91500000D01*
X142000000Y-94500000D02*
X139500000Y-97000000D01*
X144500000Y-90000000D02*
X144500000Y-92000000D01*
X145500000Y-89000000D02*
X144500000Y-90000000D01*
X148500000Y-103000000D02*
X148500000Y-112000000D01*
X149500000Y-102000000D02*
X148500000Y-103000000D01*
X132500000Y-128500000D02*
X132500000Y-126700000D01*
X134000000Y-130000000D02*
X132500000Y-128500000D01*
X160000000Y-116800000D02*
X160000000Y-117500000D01*
X167600000Y-102800000D02*
X168200000Y-102800000D01*
X156200000Y-114400000D02*
X157600000Y-114400000D01*
X159000000Y-114400000D02*
X159800000Y-115200000D01*
X159800000Y-115200000D02*
X159800000Y-115400000D01*
X160000000Y-116800000D02*
X160400000Y-117200000D01*
X160400000Y-117200000D02*
X160400000Y-117400000D01*
X165800000Y-96200000D02*
X166400000Y-96200000D01*
X162800000Y-90200000D02*
X164600000Y-90200000D01*
X162000000Y-93200000D02*
X162000000Y-91600000D01*
X162600000Y-96400000D02*
X162600000Y-94800000D01*
X179200000Y-121800000D02*
X179800000Y-121800000D01*
X174000000Y-121600000D02*
X174000000Y-120800000D01*
X168800000Y-114100000D02*
X165400000Y-114000000D01*
X164500000Y-111400000D02*
X165800000Y-111600000D01*
X164300000Y-111600000D02*
X164500000Y-111400000D01*
X191600000Y-96600000D02*
X196000000Y-96000000D01*
X191600000Y-96600000D02*
X192000000Y-93000000D01*
X192000000Y-91000000D02*
X193000000Y-91000000D01*
X194000000Y-124000000D02*
X197000000Y-124000000D01*
X192000000Y-130000000D02*
X192000000Y-126000000D01*
X166000000Y-99600000D02*
X165000000Y-99600000D01*
X162600000Y-97200000D02*
X162000000Y-97200000D01*
X165000000Y-99600000D02*
X162600000Y-97200000D01*
X160800000Y-83600000D02*
X140200000Y-83600000D01*
X140200000Y-83600000D02*
X140000000Y-83800000D01*
X174400000Y-111000000D02*
X174400000Y-108600000D01*
X140900000Y-102700000D02*
X140200000Y-102000000D01*
X140200000Y-102000000D02*
X128500000Y-102000000D01*
D21*
X146400000Y-118000000D02*
X146400000Y-114600000D01*
D20*
X162800000Y-98800000D02*
X162300000Y-98800000D01*
X162800000Y-98800000D02*
X165600000Y-101600000D01*
X165600000Y-101600000D02*
X165800000Y-101600000D01*
X166800000Y-103600000D02*
X167600000Y-104400000D01*
X162000000Y-99500000D02*
X162800000Y-99500000D01*
X162800000Y-99500000D02*
X166800000Y-103600000D01*
X160400000Y-98000000D02*
X162000000Y-99500000D01*
X167600000Y-104400000D02*
X167600000Y-107600000D01*
X165800000Y-100600000D02*
X165300000Y-100600000D01*
X165300000Y-100600000D02*
X162700000Y-98000000D01*
X162700000Y-98000000D02*
X162300000Y-98000000D01*
X161600000Y-98000000D02*
X162300000Y-98000000D01*
X150250000Y-120000000D02*
X150000000Y-120250000D01*
X150250000Y-119250000D02*
X150250000Y-120000000D01*
X150000000Y-119000000D02*
X150250000Y-119250000D01*
X150000000Y-115750000D02*
X150000000Y-119000000D01*
X150000000Y-113750000D02*
X150000000Y-115750000D01*
X149500000Y-114250000D02*
X149500000Y-119500000D01*
X149000000Y-113750000D02*
X149500000Y-114250000D01*
D21*
X151300000Y-136400000D02*
X151300000Y-135000000D01*
X134000000Y-137300000D02*
X150400000Y-137300000D01*
X150400000Y-137300000D02*
X151300000Y-136400000D01*
X132200000Y-135500000D02*
X134000000Y-137300000D01*
X131720000Y-135500000D02*
X132200000Y-135500000D01*
X135250000Y-123500000D02*
X139250000Y-123500000D01*
D20*
X150600000Y-117200000D02*
X151200000Y-117800000D01*
X150600000Y-114000000D02*
X150600000Y-117200000D01*
X151500000Y-113100000D02*
X150600000Y-114000000D01*
X161200000Y-110900000D02*
X159300000Y-110900000D01*
X163000000Y-112700000D02*
X161200000Y-110900000D01*
X150800000Y-134200000D02*
X152400000Y-134200000D01*
X148200000Y-134200000D02*
X146960000Y-132960000D01*
X150800000Y-134200000D02*
X148200000Y-134200000D01*
X142800000Y-114400000D02*
X142400000Y-114800000D01*
X142400000Y-131700000D02*
X143660000Y-132960000D01*
X142400000Y-114800000D02*
X142400000Y-131700000D01*
X143660000Y-132960000D02*
X144420000Y-132960000D01*
X141800000Y-114400000D02*
X141880000Y-114480000D01*
X141880000Y-114480000D02*
X141880000Y-132960000D01*
X139340000Y-132960000D02*
X140060000Y-132960000D01*
X140060000Y-132960000D02*
X141300000Y-134200000D01*
X145700000Y-133400000D02*
X145700000Y-131500000D01*
X144900000Y-134200000D02*
X145700000Y-133400000D01*
X141300000Y-134200000D02*
X144900000Y-134200000D01*
X137000000Y-131000000D02*
X136200000Y-131000000D01*
X145200000Y-112200000D02*
X142300000Y-112200000D01*
X142300000Y-112200000D02*
X140600000Y-113900000D01*
X140600000Y-113900000D02*
X140600000Y-114900000D01*
X140600000Y-114900000D02*
X140900000Y-115200000D01*
X140900000Y-115200000D02*
X140900000Y-126700000D01*
X145900000Y-111500000D02*
X145200000Y-112200000D01*
X140900000Y-128300000D02*
X140600000Y-128600000D01*
X140600000Y-128600000D02*
X139500000Y-128600000D01*
X139500000Y-128600000D02*
X138800000Y-129300000D01*
X138800000Y-129300000D02*
X138800000Y-129600000D01*
X138800000Y-129600000D02*
X137400000Y-131000000D01*
X137400000Y-131000000D02*
X137000000Y-131000000D01*
X140900000Y-126700000D02*
X140900000Y-128300000D01*
X136800000Y-135500000D02*
X136800000Y-135000000D01*
X140000000Y-129800000D02*
X136840000Y-132960000D01*
X136840000Y-132960000D02*
X136800000Y-132960000D01*
X136840000Y-132960000D02*
X136800000Y-132960000D01*
X141400000Y-126900000D02*
X141400000Y-128600000D01*
X139700000Y-129100000D02*
X139300000Y-129500000D01*
X140900000Y-129100000D02*
X139700000Y-129100000D01*
X141400000Y-128600000D02*
X140900000Y-129100000D01*
X136250000Y-131750000D02*
X137350000Y-131750000D01*
X135600000Y-134160000D02*
X134260000Y-135500000D01*
X135600000Y-132400000D02*
X135600000Y-134000000D01*
X136200000Y-131800000D02*
X135600000Y-132400000D01*
X136250000Y-131750000D02*
X136200000Y-131800000D01*
X135600000Y-134000000D02*
X135600000Y-134160000D01*
X137350000Y-131750000D02*
X139300000Y-129800000D01*
X139300000Y-129800000D02*
X139300000Y-129500000D01*
X145100000Y-112900000D02*
X142300000Y-112900000D01*
X142300000Y-112900000D02*
X141100000Y-114100000D01*
X141100000Y-114100000D02*
X141100000Y-114670002D01*
X141100000Y-114670002D02*
X141400000Y-114970002D01*
X141400000Y-114970002D02*
X141400000Y-126900000D01*
X139000000Y-128200000D02*
X139000000Y-128400000D01*
X134260000Y-132040000D02*
X134260000Y-132960000D01*
X136000000Y-130300000D02*
X134260000Y-132040000D01*
X137100000Y-130300000D02*
X136000000Y-130300000D01*
X139000000Y-128400000D02*
X137100000Y-130300000D01*
X147340000Y-130800000D02*
X149500000Y-132960000D01*
X146500000Y-130800000D02*
X147340000Y-130800000D01*
X148500000Y-119700000D02*
X149100000Y-120300000D01*
X148500000Y-117600000D02*
X148500000Y-119700000D01*
D10*
G36*
X115069929Y-83049456D02*
X115012658Y-83087723D01*
X114644859Y-83497781D01*
X117000000Y-85852922D01*
X119355141Y-83497781D01*
X118987342Y-83087723D01*
X118311468Y-82800000D01*
X173689210Y-82800000D01*
X173069929Y-83049456D01*
X173012658Y-83087723D01*
X172644859Y-83497781D01*
X175000000Y-85852922D01*
X177355141Y-83497781D01*
X176987342Y-83087723D01*
X176311468Y-82800000D01*
X198200000Y-82800000D01*
X198200000Y-138200000D01*
X176310790Y-138200000D01*
X176930071Y-137950544D01*
X176987342Y-137912277D01*
X177355141Y-137502219D01*
X175000000Y-135147078D01*
X172644859Y-137502219D01*
X173012658Y-137912277D01*
X173688532Y-138200000D01*
X118310790Y-138200000D01*
X118930071Y-137950544D01*
X118987342Y-137912277D01*
X119355141Y-137502219D01*
X117000000Y-135147078D01*
X114644859Y-137502219D01*
X115012658Y-137912277D01*
X115688532Y-138200000D01*
X113800000Y-138200000D01*
X113800000Y-136310790D01*
X114049456Y-136930071D01*
X114087723Y-136987342D01*
X114497781Y-137355141D01*
X116852922Y-135000000D01*
X117147078Y-135000000D01*
X119502219Y-137355141D01*
X119912277Y-136987342D01*
X120451116Y-135721585D01*
X120453493Y-135478183D01*
X125526400Y-135478183D01*
X125526400Y-135521817D01*
X125611168Y-135947973D01*
X125852566Y-136309251D01*
X126213844Y-136550649D01*
X126640000Y-136635417D01*
X127066156Y-136550649D01*
X127427434Y-136309251D01*
X127668832Y-135947973D01*
X127699632Y-135793128D01*
X127994080Y-135793128D01*
X128196528Y-136224647D01*
X128548701Y-136545845D01*
X128886874Y-136685910D01*
X129076000Y-136627313D01*
X129076000Y-135604000D01*
X129284000Y-135604000D01*
X129284000Y-136627313D01*
X129473126Y-136685910D01*
X129811299Y-136545845D01*
X130163472Y-136224647D01*
X130365920Y-135793128D01*
X130307675Y-135604000D01*
X129284000Y-135604000D01*
X129076000Y-135604000D01*
X128052325Y-135604000D01*
X127994080Y-135793128D01*
X127699632Y-135793128D01*
X127753600Y-135521817D01*
X127753600Y-135478183D01*
X130606400Y-135478183D01*
X130606400Y-135521817D01*
X130691168Y-135947973D01*
X130932566Y-136309251D01*
X131293844Y-136550649D01*
X131720000Y-136635417D01*
X132146156Y-136550649D01*
X132426760Y-136363156D01*
X133681802Y-137618198D01*
X133827792Y-137715746D01*
X134000000Y-137750000D01*
X150400000Y-137750000D01*
X150572208Y-137715746D01*
X150718198Y-137618198D01*
X151618198Y-136718198D01*
X151715746Y-136572208D01*
X151750000Y-136400000D01*
X151750000Y-135654028D01*
X171535446Y-135654028D01*
X172049456Y-136930071D01*
X172087723Y-136987342D01*
X172497781Y-137355141D01*
X174852922Y-135000000D01*
X175147078Y-135000000D01*
X177502219Y-137355141D01*
X177912277Y-136987342D01*
X178451116Y-135721585D01*
X178464554Y-134345972D01*
X177950544Y-133069929D01*
X177912277Y-133012658D01*
X177502219Y-132644859D01*
X175147078Y-135000000D01*
X174852922Y-135000000D01*
X172497781Y-132644859D01*
X172087723Y-133012658D01*
X171548884Y-134278415D01*
X171535446Y-135654028D01*
X151750000Y-135654028D01*
X151750000Y-135327924D01*
X151765995Y-135311957D01*
X151849904Y-135109882D01*
X151850095Y-134891078D01*
X151766539Y-134688857D01*
X151652881Y-134575000D01*
X151997207Y-134575000D01*
X152088043Y-134665995D01*
X152290118Y-134749904D01*
X152508922Y-134750095D01*
X152711143Y-134666539D01*
X152865995Y-134511957D01*
X152949904Y-134309882D01*
X152950095Y-134091078D01*
X152866539Y-133888857D01*
X152711957Y-133734005D01*
X152509882Y-133650096D01*
X152291078Y-133649905D01*
X152088857Y-133733461D01*
X151997158Y-133825000D01*
X150204000Y-133825000D01*
X150287434Y-133769251D01*
X150528832Y-133407973D01*
X150613600Y-132981817D01*
X150613600Y-132938183D01*
X150528832Y-132512027D01*
X150519314Y-132497781D01*
X172644859Y-132497781D01*
X175000000Y-134852922D01*
X177355141Y-132497781D01*
X176987342Y-132087723D01*
X175721585Y-131548884D01*
X174345972Y-131535446D01*
X173069929Y-132049456D01*
X173012658Y-132087723D01*
X172644859Y-132497781D01*
X150519314Y-132497781D01*
X150287434Y-132150749D01*
X149926156Y-131909351D01*
X149500000Y-131824583D01*
X149073844Y-131909351D01*
X149017397Y-131947067D01*
X147605165Y-130534835D01*
X147483507Y-130453545D01*
X147340000Y-130425000D01*
X146902793Y-130425000D01*
X146811957Y-130334005D01*
X146609882Y-130250096D01*
X146391078Y-130249905D01*
X146188857Y-130333461D01*
X146034005Y-130488043D01*
X145950096Y-130690118D01*
X145949905Y-130908922D01*
X145999441Y-131028808D01*
X145809882Y-130950096D01*
X145591078Y-130949905D01*
X145388857Y-131033461D01*
X145234005Y-131188043D01*
X145150096Y-131390118D01*
X145149905Y-131608922D01*
X145233461Y-131811143D01*
X145325000Y-131902842D01*
X145325000Y-132326699D01*
X145207434Y-132150749D01*
X144846156Y-131909351D01*
X144420000Y-131824583D01*
X143993844Y-131909351D01*
X143632566Y-132150749D01*
X143531834Y-132301504D01*
X142775000Y-131544670D01*
X142775000Y-114955330D01*
X142780347Y-114949983D01*
X142908922Y-114950095D01*
X143111143Y-114866539D01*
X143265995Y-114711957D01*
X143267255Y-114708922D01*
X145849905Y-114708922D01*
X145933461Y-114911143D01*
X145950000Y-114927711D01*
X145950000Y-117672076D01*
X145934005Y-117688043D01*
X145850096Y-117890118D01*
X145849905Y-118108922D01*
X145933461Y-118311143D01*
X146088043Y-118465995D01*
X146290118Y-118549904D01*
X146508922Y-118550095D01*
X146711143Y-118466539D01*
X146865995Y-118311957D01*
X146949904Y-118109882D01*
X146950095Y-117891078D01*
X146874830Y-117708922D01*
X147949905Y-117708922D01*
X148033461Y-117911143D01*
X148125000Y-118002842D01*
X148125000Y-119700000D01*
X148153545Y-119843507D01*
X148234835Y-119965165D01*
X148550017Y-120280347D01*
X148549905Y-120408922D01*
X148633461Y-120611143D01*
X148788043Y-120765995D01*
X148990118Y-120849904D01*
X149208922Y-120850095D01*
X149411143Y-120766539D01*
X149565995Y-120611957D01*
X149571339Y-120599087D01*
X149688043Y-120715995D01*
X149890118Y-120799904D01*
X150108922Y-120800095D01*
X150311143Y-120716539D01*
X150465995Y-120561957D01*
X150549904Y-120359882D01*
X150550032Y-120212982D01*
X150596454Y-120143507D01*
X150596455Y-120143506D01*
X150625000Y-120000000D01*
X150625000Y-119250000D01*
X150596455Y-119106494D01*
X150515165Y-118984835D01*
X150375000Y-118844670D01*
X150375000Y-117505330D01*
X150650017Y-117780347D01*
X150649905Y-117908922D01*
X150733461Y-118111143D01*
X150888043Y-118265995D01*
X151090118Y-118349904D01*
X151308922Y-118350095D01*
X151511143Y-118266539D01*
X151560021Y-118217746D01*
X192819801Y-118217746D01*
X192994509Y-118640572D01*
X193317727Y-118964354D01*
X193740247Y-119139800D01*
X194197746Y-119140199D01*
X194620572Y-118965491D01*
X194944354Y-118642273D01*
X195119800Y-118219753D01*
X195120199Y-117762254D01*
X194945491Y-117339428D01*
X194622273Y-117015646D01*
X194199753Y-116840200D01*
X193742254Y-116839801D01*
X193319428Y-117014509D01*
X192995646Y-117337727D01*
X192820200Y-117760247D01*
X192819801Y-118217746D01*
X151560021Y-118217746D01*
X151665995Y-118111957D01*
X151749904Y-117909882D01*
X151750095Y-117691078D01*
X151666539Y-117488857D01*
X151511957Y-117334005D01*
X151309882Y-117250096D01*
X151180313Y-117249983D01*
X150975000Y-117044670D01*
X150975000Y-114155330D01*
X151480347Y-113649983D01*
X151608922Y-113650095D01*
X151811143Y-113566539D01*
X151965995Y-113411957D01*
X152049904Y-113209882D01*
X152050095Y-112991078D01*
X151966539Y-112788857D01*
X151811957Y-112634005D01*
X151609882Y-112550096D01*
X151391078Y-112549905D01*
X151188857Y-112633461D01*
X151034005Y-112788043D01*
X150950096Y-112990118D01*
X150949983Y-113119687D01*
X150514570Y-113555100D01*
X150466539Y-113438857D01*
X150311957Y-113284005D01*
X150109882Y-113200096D01*
X149891078Y-113199905D01*
X149688857Y-113283461D01*
X149534005Y-113438043D01*
X149500020Y-113519888D01*
X149466539Y-113438857D01*
X149311957Y-113284005D01*
X149109882Y-113200096D01*
X148891078Y-113199905D01*
X148688857Y-113283461D01*
X148534005Y-113438043D01*
X148450096Y-113640118D01*
X148449905Y-113858922D01*
X148533461Y-114061143D01*
X148688043Y-114215995D01*
X148890118Y-114299904D01*
X149019687Y-114300017D01*
X149125000Y-114405330D01*
X149125000Y-119097207D01*
X149034005Y-119188043D01*
X148950096Y-119390118D01*
X148949905Y-119608922D01*
X148957406Y-119627076D01*
X148875000Y-119544670D01*
X148875000Y-118002793D01*
X148965995Y-117911957D01*
X149049904Y-117709882D01*
X149050095Y-117491078D01*
X148966539Y-117288857D01*
X148811957Y-117134005D01*
X148609882Y-117050096D01*
X148391078Y-117049905D01*
X148188857Y-117133461D01*
X148034005Y-117288043D01*
X147950096Y-117490118D01*
X147949905Y-117708922D01*
X146874830Y-117708922D01*
X146866539Y-117688857D01*
X146850000Y-117672289D01*
X146850000Y-114927924D01*
X146865995Y-114911957D01*
X146949904Y-114709882D01*
X146950095Y-114491078D01*
X146866539Y-114288857D01*
X146711957Y-114134005D01*
X146509882Y-114050096D01*
X146291078Y-114049905D01*
X146088857Y-114133461D01*
X145934005Y-114288043D01*
X145850096Y-114490118D01*
X145849905Y-114708922D01*
X143267255Y-114708922D01*
X143349904Y-114509882D01*
X143350095Y-114291078D01*
X143266539Y-114088857D01*
X143111957Y-113934005D01*
X142909882Y-113850096D01*
X142691078Y-113849905D01*
X142488857Y-113933461D01*
X142334005Y-114088043D01*
X142300020Y-114169888D01*
X142266539Y-114088857D01*
X142111957Y-113934005D01*
X141909882Y-113850096D01*
X141880260Y-113850070D01*
X142455330Y-113275000D01*
X144697207Y-113275000D01*
X144788043Y-113365995D01*
X144990118Y-113449904D01*
X145208922Y-113450095D01*
X145411143Y-113366539D01*
X145565995Y-113211957D01*
X145649904Y-113009882D01*
X145650095Y-112791078D01*
X145566539Y-112588857D01*
X145451906Y-112474024D01*
X145465165Y-112465165D01*
X145880347Y-112049983D01*
X146008922Y-112050095D01*
X146211143Y-111966539D01*
X146365995Y-111811957D01*
X146449904Y-111609882D01*
X146450095Y-111391078D01*
X146366539Y-111188857D01*
X146211957Y-111034005D01*
X146151551Y-111008922D01*
X158749905Y-111008922D01*
X158833461Y-111211143D01*
X158988043Y-111365995D01*
X159190118Y-111449904D01*
X159408922Y-111450095D01*
X159611143Y-111366539D01*
X159702842Y-111275000D01*
X161044670Y-111275000D01*
X162450017Y-112680347D01*
X162449905Y-112808922D01*
X162533461Y-113011143D01*
X162688043Y-113165995D01*
X162890118Y-113249904D01*
X163108922Y-113250095D01*
X163311143Y-113166539D01*
X163465995Y-113011957D01*
X163549904Y-112809882D01*
X163550095Y-112591078D01*
X163466539Y-112388857D01*
X163311957Y-112234005D01*
X163109882Y-112150096D01*
X162980313Y-112149983D01*
X161465165Y-110634835D01*
X161343507Y-110553545D01*
X161200000Y-110525000D01*
X159702793Y-110525000D01*
X159611957Y-110434005D01*
X159409882Y-110350096D01*
X159191078Y-110349905D01*
X158988857Y-110433461D01*
X158834005Y-110588043D01*
X158750096Y-110790118D01*
X158749905Y-111008922D01*
X146151551Y-111008922D01*
X146009882Y-110950096D01*
X145791078Y-110949905D01*
X145588857Y-111033461D01*
X145434005Y-111188043D01*
X145350096Y-111390118D01*
X145349983Y-111519687D01*
X145044670Y-111825000D01*
X142300000Y-111825000D01*
X142156493Y-111853545D01*
X142034835Y-111934835D01*
X140334835Y-113634835D01*
X140253545Y-113756493D01*
X140253545Y-113756494D01*
X140225000Y-113900000D01*
X140225000Y-114900000D01*
X140253545Y-115043507D01*
X140334835Y-115165165D01*
X140525000Y-115355330D01*
X140525000Y-128144670D01*
X140444670Y-128225000D01*
X139549978Y-128225000D01*
X139550095Y-128091078D01*
X139466539Y-127888857D01*
X139311957Y-127734005D01*
X139109882Y-127650096D01*
X138891078Y-127649905D01*
X138688857Y-127733461D01*
X138534005Y-127888043D01*
X138450096Y-128090118D01*
X138449905Y-128308922D01*
X138482313Y-128387357D01*
X136944670Y-129925000D01*
X136000000Y-129925000D01*
X135856494Y-129953545D01*
X135734835Y-130034835D01*
X133994835Y-131774835D01*
X133915853Y-131893038D01*
X133833844Y-131909351D01*
X133472566Y-132150749D01*
X133231168Y-132512027D01*
X133146400Y-132938183D01*
X133146400Y-132981817D01*
X133231168Y-133407973D01*
X133472566Y-133769251D01*
X133833844Y-134010649D01*
X134260000Y-134095417D01*
X134686156Y-134010649D01*
X135047434Y-133769251D01*
X135225000Y-133503504D01*
X135225000Y-134004670D01*
X134742603Y-134487067D01*
X134686156Y-134449351D01*
X134260000Y-134364583D01*
X133833844Y-134449351D01*
X133472566Y-134690749D01*
X133231168Y-135052027D01*
X133146400Y-135478183D01*
X133146400Y-135521817D01*
X133217958Y-135881562D01*
X132833600Y-135497204D01*
X132833600Y-135478183D01*
X132748832Y-135052027D01*
X132507434Y-134690749D01*
X132146156Y-134449351D01*
X131720000Y-134364583D01*
X131293844Y-134449351D01*
X130932566Y-134690749D01*
X130691168Y-135052027D01*
X130606400Y-135478183D01*
X127753600Y-135478183D01*
X127699633Y-135206872D01*
X127994080Y-135206872D01*
X128052325Y-135396000D01*
X129076000Y-135396000D01*
X129076000Y-134372687D01*
X129284000Y-134372687D01*
X129284000Y-135396000D01*
X130307675Y-135396000D01*
X130365920Y-135206872D01*
X130163472Y-134775353D01*
X129811299Y-134454155D01*
X129473126Y-134314090D01*
X129284000Y-134372687D01*
X129076000Y-134372687D01*
X128886874Y-134314090D01*
X128548701Y-134454155D01*
X128196528Y-134775353D01*
X127994080Y-135206872D01*
X127699633Y-135206872D01*
X127668832Y-135052027D01*
X127427434Y-134690749D01*
X127066156Y-134449351D01*
X126640000Y-134364583D01*
X126213844Y-134449351D01*
X125852566Y-134690749D01*
X125611168Y-135052027D01*
X125526400Y-135478183D01*
X120453493Y-135478183D01*
X120464554Y-134345972D01*
X119950544Y-133069929D01*
X119912277Y-133012658D01*
X119829246Y-132938183D01*
X125526400Y-132938183D01*
X125526400Y-132981817D01*
X125611168Y-133407973D01*
X125852566Y-133769251D01*
X126213844Y-134010649D01*
X126640000Y-134095417D01*
X127066156Y-134010649D01*
X127427434Y-133769251D01*
X127668832Y-133407973D01*
X127699632Y-133253128D01*
X127994080Y-133253128D01*
X128196528Y-133684647D01*
X128548701Y-134005845D01*
X128886874Y-134145910D01*
X129076000Y-134087313D01*
X129076000Y-133064000D01*
X129284000Y-133064000D01*
X129284000Y-134087313D01*
X129473126Y-134145910D01*
X129811299Y-134005845D01*
X130163472Y-133684647D01*
X130365920Y-133253128D01*
X130307675Y-133064000D01*
X129284000Y-133064000D01*
X129076000Y-133064000D01*
X128052325Y-133064000D01*
X127994080Y-133253128D01*
X127699632Y-133253128D01*
X127753600Y-132981817D01*
X127753600Y-132938183D01*
X130606400Y-132938183D01*
X130606400Y-132981817D01*
X130691168Y-133407973D01*
X130932566Y-133769251D01*
X131293844Y-134010649D01*
X131720000Y-134095417D01*
X132146156Y-134010649D01*
X132507434Y-133769251D01*
X132748832Y-133407973D01*
X132833600Y-132981817D01*
X132833600Y-132938183D01*
X132748832Y-132512027D01*
X132507434Y-132150749D01*
X132146156Y-131909351D01*
X131720000Y-131824583D01*
X131293844Y-131909351D01*
X130932566Y-132150749D01*
X130691168Y-132512027D01*
X130606400Y-132938183D01*
X127753600Y-132938183D01*
X127699633Y-132666872D01*
X127994080Y-132666872D01*
X128052325Y-132856000D01*
X129076000Y-132856000D01*
X129076000Y-131832687D01*
X129284000Y-131832687D01*
X129284000Y-132856000D01*
X130307675Y-132856000D01*
X130365920Y-132666872D01*
X130163472Y-132235353D01*
X129811299Y-131914155D01*
X129473126Y-131774090D01*
X129284000Y-131832687D01*
X129076000Y-131832687D01*
X128886874Y-131774090D01*
X128548701Y-131914155D01*
X128196528Y-132235353D01*
X127994080Y-132666872D01*
X127699633Y-132666872D01*
X127668832Y-132512027D01*
X127427434Y-132150749D01*
X127066156Y-131909351D01*
X126640000Y-131824583D01*
X126213844Y-131909351D01*
X125852566Y-132150749D01*
X125611168Y-132512027D01*
X125526400Y-132938183D01*
X119829246Y-132938183D01*
X119502219Y-132644859D01*
X117147078Y-135000000D01*
X116852922Y-135000000D01*
X114497781Y-132644859D01*
X114087723Y-133012658D01*
X113800000Y-133688532D01*
X113800000Y-132497781D01*
X114644859Y-132497781D01*
X117000000Y-134852922D01*
X119355141Y-132497781D01*
X118987342Y-132087723D01*
X117721585Y-131548884D01*
X116345972Y-131535446D01*
X115069929Y-132049456D01*
X115012658Y-132087723D01*
X114644859Y-132497781D01*
X113800000Y-132497781D01*
X113800000Y-123608922D01*
X134699905Y-123608922D01*
X134783461Y-123811143D01*
X134938043Y-123965995D01*
X135140118Y-124049904D01*
X135358922Y-124050095D01*
X135561143Y-123966539D01*
X135577711Y-123950000D01*
X138922076Y-123950000D01*
X138938043Y-123965995D01*
X139140118Y-124049904D01*
X139358922Y-124050095D01*
X139561143Y-123966539D01*
X139715995Y-123811957D01*
X139799904Y-123609882D01*
X139800095Y-123391078D01*
X139716539Y-123188857D01*
X139561957Y-123034005D01*
X139359882Y-122950096D01*
X139141078Y-122949905D01*
X138938857Y-123033461D01*
X138922289Y-123050000D01*
X135577924Y-123050000D01*
X135561957Y-123034005D01*
X135359882Y-122950096D01*
X135141078Y-122949905D01*
X134938857Y-123033461D01*
X134784005Y-123188043D01*
X134700096Y-123390118D01*
X134699905Y-123608922D01*
X113800000Y-123608922D01*
X113800000Y-108020000D01*
X115208079Y-108020000D01*
X115284436Y-108403874D01*
X115501883Y-108729306D01*
X115827315Y-108946753D01*
X116211189Y-109023110D01*
X117788811Y-109023110D01*
X118172685Y-108946753D01*
X118498117Y-108729306D01*
X118511737Y-108708922D01*
X173849905Y-108708922D01*
X173933461Y-108911143D01*
X174025000Y-109002842D01*
X174025000Y-110597207D01*
X173934005Y-110688043D01*
X173850096Y-110890118D01*
X173849905Y-111108922D01*
X173933461Y-111311143D01*
X174088043Y-111465995D01*
X174290118Y-111549904D01*
X174508922Y-111550095D01*
X174711143Y-111466539D01*
X174865995Y-111311957D01*
X174949904Y-111109882D01*
X174950095Y-110891078D01*
X174866539Y-110688857D01*
X174775000Y-110597158D01*
X174775000Y-109002793D01*
X174865995Y-108911957D01*
X174949904Y-108709882D01*
X174950095Y-108491078D01*
X174866539Y-108288857D01*
X174711957Y-108134005D01*
X174509882Y-108050096D01*
X174291078Y-108049905D01*
X174088857Y-108133461D01*
X173934005Y-108288043D01*
X173850096Y-108490118D01*
X173849905Y-108708922D01*
X118511737Y-108708922D01*
X118715564Y-108403874D01*
X118791921Y-108020000D01*
X118715564Y-107636126D01*
X118498117Y-107310694D01*
X118172685Y-107093247D01*
X117788811Y-107016890D01*
X116211189Y-107016890D01*
X115827315Y-107093247D01*
X115501883Y-107310694D01*
X115284436Y-107636126D01*
X115208079Y-108020000D01*
X113800000Y-108020000D01*
X113800000Y-105480000D01*
X115208079Y-105480000D01*
X115284436Y-105863874D01*
X115501883Y-106189306D01*
X115827315Y-106406753D01*
X116211189Y-106483110D01*
X117788811Y-106483110D01*
X118172685Y-106406753D01*
X118498117Y-106189306D01*
X118715564Y-105863874D01*
X118791921Y-105480000D01*
X118715564Y-105096126D01*
X118498117Y-104770694D01*
X118172685Y-104553247D01*
X117788811Y-104476890D01*
X116211189Y-104476890D01*
X115827315Y-104553247D01*
X115501883Y-104770694D01*
X115284436Y-105096126D01*
X115208079Y-105480000D01*
X113800000Y-105480000D01*
X113800000Y-102877817D01*
X122769261Y-102877817D01*
X122862768Y-103054009D01*
X123314626Y-103217635D01*
X123794706Y-103195888D01*
X124137232Y-103054009D01*
X124230739Y-102877817D01*
X123500000Y-102147078D01*
X122769261Y-102877817D01*
X113800000Y-102877817D01*
X113800000Y-101814626D01*
X122282365Y-101814626D01*
X122304112Y-102294706D01*
X122445991Y-102637232D01*
X122622183Y-102730739D01*
X123352922Y-102000000D01*
X123647078Y-102000000D01*
X124377817Y-102730739D01*
X124554009Y-102637232D01*
X124717635Y-102185374D01*
X124695888Y-101705294D01*
X124554009Y-101362768D01*
X124377817Y-101269261D01*
X123647078Y-102000000D01*
X123352922Y-102000000D01*
X122622183Y-101269261D01*
X122445991Y-101362768D01*
X122282365Y-101814626D01*
X113800000Y-101814626D01*
X113800000Y-101122183D01*
X122769261Y-101122183D01*
X123500000Y-101852922D01*
X124202922Y-101150000D01*
X127395103Y-101150000D01*
X127395103Y-102850000D01*
X127412535Y-102942644D01*
X127467288Y-103027732D01*
X127550831Y-103084815D01*
X127650000Y-103104897D01*
X129350000Y-103104897D01*
X129442644Y-103087465D01*
X129527732Y-103032712D01*
X129584815Y-102949169D01*
X129604897Y-102850000D01*
X129604897Y-102375000D01*
X140044670Y-102375000D01*
X140350017Y-102680347D01*
X140349905Y-102808922D01*
X140433461Y-103011143D01*
X140588043Y-103165995D01*
X140790118Y-103249904D01*
X141008922Y-103250095D01*
X141211143Y-103166539D01*
X141365995Y-103011957D01*
X141449904Y-102809882D01*
X141450095Y-102591078D01*
X141366539Y-102388857D01*
X141211957Y-102234005D01*
X141009882Y-102150096D01*
X140880313Y-102149983D01*
X140465165Y-101734835D01*
X140343507Y-101653545D01*
X140200000Y-101625000D01*
X129604897Y-101625000D01*
X129604897Y-101150000D01*
X129587465Y-101057356D01*
X129532712Y-100972268D01*
X129449169Y-100915185D01*
X129350000Y-100895103D01*
X127650000Y-100895103D01*
X127557356Y-100912535D01*
X127472268Y-100967288D01*
X127415185Y-101050831D01*
X127395103Y-101150000D01*
X124202922Y-101150000D01*
X124230739Y-101122183D01*
X124137232Y-100945991D01*
X123685374Y-100782365D01*
X123205294Y-100804112D01*
X122862768Y-100945991D01*
X122769261Y-101122183D01*
X113800000Y-101122183D01*
X113800000Y-98108922D01*
X159849905Y-98108922D01*
X159933461Y-98311143D01*
X160088043Y-98465995D01*
X160290118Y-98549904D01*
X160438410Y-98550033D01*
X161743522Y-99773576D01*
X161800589Y-99809101D01*
X161856494Y-99846455D01*
X161862522Y-99847654D01*
X161867738Y-99850901D01*
X161934055Y-99861883D01*
X162000000Y-99875000D01*
X162641952Y-99875000D01*
X166531581Y-103861871D01*
X166533526Y-103863205D01*
X166534835Y-103865165D01*
X167225000Y-104555330D01*
X167225000Y-107197207D01*
X167134005Y-107288043D01*
X167050096Y-107490118D01*
X167049905Y-107708922D01*
X167133461Y-107911143D01*
X167288043Y-108065995D01*
X167490118Y-108149904D01*
X167708922Y-108150095D01*
X167911143Y-108066539D01*
X168065995Y-107911957D01*
X168149904Y-107709882D01*
X168150095Y-107491078D01*
X168066539Y-107288857D01*
X167975000Y-107197158D01*
X167975000Y-104400000D01*
X167946455Y-104256494D01*
X167946455Y-104256493D01*
X167865165Y-104134835D01*
X167066818Y-103336488D01*
X165926582Y-102167746D01*
X183019801Y-102167746D01*
X183194509Y-102590572D01*
X183517727Y-102914354D01*
X183940247Y-103089800D01*
X184397746Y-103090199D01*
X184820572Y-102915491D01*
X185144354Y-102592273D01*
X185319800Y-102169753D01*
X185320199Y-101712254D01*
X185145491Y-101289428D01*
X184822273Y-100965646D01*
X184399753Y-100790200D01*
X183942254Y-100789801D01*
X183519428Y-100964509D01*
X183195646Y-101287727D01*
X183020200Y-101710247D01*
X183019801Y-102167746D01*
X165926582Y-102167746D01*
X165909235Y-102149966D01*
X166111143Y-102066539D01*
X166265995Y-101911957D01*
X166349904Y-101709882D01*
X166350095Y-101491078D01*
X166266539Y-101288857D01*
X166111957Y-101134005D01*
X166030112Y-101100020D01*
X166111143Y-101066539D01*
X166265995Y-100911957D01*
X166349904Y-100709882D01*
X166350095Y-100491078D01*
X166266539Y-100288857D01*
X166122442Y-100144509D01*
X166311143Y-100066539D01*
X166465995Y-99911957D01*
X166549904Y-99709882D01*
X166550095Y-99491078D01*
X166466539Y-99288857D01*
X166311957Y-99134005D01*
X166109882Y-99050096D01*
X165891078Y-99049905D01*
X165688857Y-99133461D01*
X165597158Y-99225000D01*
X165155330Y-99225000D01*
X162865165Y-96934835D01*
X162743507Y-96853545D01*
X162600000Y-96825000D01*
X162402793Y-96825000D01*
X162311957Y-96734005D01*
X162109882Y-96650096D01*
X161891078Y-96649905D01*
X161688857Y-96733461D01*
X161534005Y-96888043D01*
X161450096Y-97090118D01*
X161449905Y-97308922D01*
X161508164Y-97449920D01*
X161491078Y-97449905D01*
X161288857Y-97533461D01*
X161134005Y-97688043D01*
X161050096Y-97890118D01*
X161049917Y-98095273D01*
X160949999Y-98001599D01*
X160950095Y-97891078D01*
X160866539Y-97688857D01*
X160711957Y-97534005D01*
X160509882Y-97450096D01*
X160291078Y-97449905D01*
X160088857Y-97533461D01*
X159934005Y-97688043D01*
X159850096Y-97890118D01*
X159849905Y-98108922D01*
X113800000Y-98108922D01*
X113800000Y-88502219D01*
X114644859Y-88502219D01*
X115012658Y-88912277D01*
X116278415Y-89451116D01*
X117654028Y-89464554D01*
X118930071Y-88950544D01*
X118987342Y-88912277D01*
X119355141Y-88502219D01*
X172644859Y-88502219D01*
X173012658Y-88912277D01*
X174278415Y-89451116D01*
X175654028Y-89464554D01*
X176930071Y-88950544D01*
X176987342Y-88912277D01*
X177355141Y-88502219D01*
X175000000Y-86147078D01*
X172644859Y-88502219D01*
X119355141Y-88502219D01*
X117000000Y-86147078D01*
X114644859Y-88502219D01*
X113800000Y-88502219D01*
X113800000Y-87310790D01*
X114049456Y-87930071D01*
X114087723Y-87987342D01*
X114497781Y-88355141D01*
X116852922Y-86000000D01*
X117147078Y-86000000D01*
X119502219Y-88355141D01*
X119912277Y-87987342D01*
X120451116Y-86721585D01*
X120451775Y-86654028D01*
X171535446Y-86654028D01*
X172049456Y-87930071D01*
X172087723Y-87987342D01*
X172497781Y-88355141D01*
X174852922Y-86000000D01*
X175147078Y-86000000D01*
X177502219Y-88355141D01*
X177912277Y-87987342D01*
X178451116Y-86721585D01*
X178464554Y-85345972D01*
X177950544Y-84069929D01*
X177912277Y-84012658D01*
X177502219Y-83644859D01*
X175147078Y-86000000D01*
X174852922Y-86000000D01*
X172497781Y-83644859D01*
X172087723Y-84012658D01*
X171548884Y-85278415D01*
X171535446Y-86654028D01*
X120451775Y-86654028D01*
X120464554Y-85345972D01*
X119950544Y-84069929D01*
X119912277Y-84012658D01*
X119796623Y-83908922D01*
X139449905Y-83908922D01*
X139533461Y-84111143D01*
X139688043Y-84265995D01*
X139890118Y-84349904D01*
X140108922Y-84350095D01*
X140311143Y-84266539D01*
X140465995Y-84111957D01*
X140522865Y-83975000D01*
X160397207Y-83975000D01*
X160488043Y-84065995D01*
X160690118Y-84149904D01*
X160908922Y-84150095D01*
X161111143Y-84066539D01*
X161265995Y-83911957D01*
X161349904Y-83709882D01*
X161350095Y-83491078D01*
X161266539Y-83288857D01*
X161111957Y-83134005D01*
X160909882Y-83050096D01*
X160691078Y-83049905D01*
X160488857Y-83133461D01*
X160397158Y-83225000D01*
X140200000Y-83225000D01*
X140073991Y-83250065D01*
X139891078Y-83249905D01*
X139688857Y-83333461D01*
X139534005Y-83488043D01*
X139450096Y-83690118D01*
X139449905Y-83908922D01*
X119796623Y-83908922D01*
X119502219Y-83644859D01*
X117147078Y-86000000D01*
X116852922Y-86000000D01*
X114497781Y-83644859D01*
X114087723Y-84012658D01*
X113800000Y-84688532D01*
X113800000Y-82800000D01*
X115689210Y-82800000D01*
X115069929Y-83049456D01*
X115069929Y-83049456D01*
G37*
X115069929Y-83049456D02*
X115012658Y-83087723D01*
X114644859Y-83497781D01*
X117000000Y-85852922D01*
X119355141Y-83497781D01*
X118987342Y-83087723D01*
X118311468Y-82800000D01*
X173689210Y-82800000D01*
X173069929Y-83049456D01*
X173012658Y-83087723D01*
X172644859Y-83497781D01*
X175000000Y-85852922D01*
X177355141Y-83497781D01*
X176987342Y-83087723D01*
X176311468Y-82800000D01*
X198200000Y-82800000D01*
X198200000Y-138200000D01*
X176310790Y-138200000D01*
X176930071Y-137950544D01*
X176987342Y-137912277D01*
X177355141Y-137502219D01*
X175000000Y-135147078D01*
X172644859Y-137502219D01*
X173012658Y-137912277D01*
X173688532Y-138200000D01*
X118310790Y-138200000D01*
X118930071Y-137950544D01*
X118987342Y-137912277D01*
X119355141Y-137502219D01*
X117000000Y-135147078D01*
X114644859Y-137502219D01*
X115012658Y-137912277D01*
X115688532Y-138200000D01*
X113800000Y-138200000D01*
X113800000Y-136310790D01*
X114049456Y-136930071D01*
X114087723Y-136987342D01*
X114497781Y-137355141D01*
X116852922Y-135000000D01*
X117147078Y-135000000D01*
X119502219Y-137355141D01*
X119912277Y-136987342D01*
X120451116Y-135721585D01*
X120453493Y-135478183D01*
X125526400Y-135478183D01*
X125526400Y-135521817D01*
X125611168Y-135947973D01*
X125852566Y-136309251D01*
X126213844Y-136550649D01*
X126640000Y-136635417D01*
X127066156Y-136550649D01*
X127427434Y-136309251D01*
X127668832Y-135947973D01*
X127699632Y-135793128D01*
X127994080Y-135793128D01*
X128196528Y-136224647D01*
X128548701Y-136545845D01*
X128886874Y-136685910D01*
X129076000Y-136627313D01*
X129076000Y-135604000D01*
X129284000Y-135604000D01*
X129284000Y-136627313D01*
X129473126Y-136685910D01*
X129811299Y-136545845D01*
X130163472Y-136224647D01*
X130365920Y-135793128D01*
X130307675Y-135604000D01*
X129284000Y-135604000D01*
X129076000Y-135604000D01*
X128052325Y-135604000D01*
X127994080Y-135793128D01*
X127699632Y-135793128D01*
X127753600Y-135521817D01*
X127753600Y-135478183D01*
X130606400Y-135478183D01*
X130606400Y-135521817D01*
X130691168Y-135947973D01*
X130932566Y-136309251D01*
X131293844Y-136550649D01*
X131720000Y-136635417D01*
X132146156Y-136550649D01*
X132426760Y-136363156D01*
X133681802Y-137618198D01*
X133827792Y-137715746D01*
X134000000Y-137750000D01*
X150400000Y-137750000D01*
X150572208Y-137715746D01*
X150718198Y-137618198D01*
X151618198Y-136718198D01*
X151715746Y-136572208D01*
X151750000Y-136400000D01*
X151750000Y-135654028D01*
X171535446Y-135654028D01*
X172049456Y-136930071D01*
X172087723Y-136987342D01*
X172497781Y-137355141D01*
X174852922Y-135000000D01*
X175147078Y-135000000D01*
X177502219Y-137355141D01*
X177912277Y-136987342D01*
X178451116Y-135721585D01*
X178464554Y-134345972D01*
X177950544Y-133069929D01*
X177912277Y-133012658D01*
X177502219Y-132644859D01*
X175147078Y-135000000D01*
X174852922Y-135000000D01*
X172497781Y-132644859D01*
X172087723Y-133012658D01*
X171548884Y-134278415D01*
X171535446Y-135654028D01*
X151750000Y-135654028D01*
X151750000Y-135327924D01*
X151765995Y-135311957D01*
X151849904Y-135109882D01*
X151850095Y-134891078D01*
X151766539Y-134688857D01*
X151652881Y-134575000D01*
X151997207Y-134575000D01*
X152088043Y-134665995D01*
X152290118Y-134749904D01*
X152508922Y-134750095D01*
X152711143Y-134666539D01*
X152865995Y-134511957D01*
X152949904Y-134309882D01*
X152950095Y-134091078D01*
X152866539Y-133888857D01*
X152711957Y-133734005D01*
X152509882Y-133650096D01*
X152291078Y-133649905D01*
X152088857Y-133733461D01*
X151997158Y-133825000D01*
X150204000Y-133825000D01*
X150287434Y-133769251D01*
X150528832Y-133407973D01*
X150613600Y-132981817D01*
X150613600Y-132938183D01*
X150528832Y-132512027D01*
X150519314Y-132497781D01*
X172644859Y-132497781D01*
X175000000Y-134852922D01*
X177355141Y-132497781D01*
X176987342Y-132087723D01*
X175721585Y-131548884D01*
X174345972Y-131535446D01*
X173069929Y-132049456D01*
X173012658Y-132087723D01*
X172644859Y-132497781D01*
X150519314Y-132497781D01*
X150287434Y-132150749D01*
X149926156Y-131909351D01*
X149500000Y-131824583D01*
X149073844Y-131909351D01*
X149017397Y-131947067D01*
X147605165Y-130534835D01*
X147483507Y-130453545D01*
X147340000Y-130425000D01*
X146902793Y-130425000D01*
X146811957Y-130334005D01*
X146609882Y-130250096D01*
X146391078Y-130249905D01*
X146188857Y-130333461D01*
X146034005Y-130488043D01*
X145950096Y-130690118D01*
X145949905Y-130908922D01*
X145999441Y-131028808D01*
X145809882Y-130950096D01*
X145591078Y-130949905D01*
X145388857Y-131033461D01*
X145234005Y-131188043D01*
X145150096Y-131390118D01*
X145149905Y-131608922D01*
X145233461Y-131811143D01*
X145325000Y-131902842D01*
X145325000Y-132326699D01*
X145207434Y-132150749D01*
X144846156Y-131909351D01*
X144420000Y-131824583D01*
X143993844Y-131909351D01*
X143632566Y-132150749D01*
X143531834Y-132301504D01*
X142775000Y-131544670D01*
X142775000Y-114955330D01*
X142780347Y-114949983D01*
X142908922Y-114950095D01*
X143111143Y-114866539D01*
X143265995Y-114711957D01*
X143267255Y-114708922D01*
X145849905Y-114708922D01*
X145933461Y-114911143D01*
X145950000Y-114927711D01*
X145950000Y-117672076D01*
X145934005Y-117688043D01*
X145850096Y-117890118D01*
X145849905Y-118108922D01*
X145933461Y-118311143D01*
X146088043Y-118465995D01*
X146290118Y-118549904D01*
X146508922Y-118550095D01*
X146711143Y-118466539D01*
X146865995Y-118311957D01*
X146949904Y-118109882D01*
X146950095Y-117891078D01*
X146874830Y-117708922D01*
X147949905Y-117708922D01*
X148033461Y-117911143D01*
X148125000Y-118002842D01*
X148125000Y-119700000D01*
X148153545Y-119843507D01*
X148234835Y-119965165D01*
X148550017Y-120280347D01*
X148549905Y-120408922D01*
X148633461Y-120611143D01*
X148788043Y-120765995D01*
X148990118Y-120849904D01*
X149208922Y-120850095D01*
X149411143Y-120766539D01*
X149565995Y-120611957D01*
X149571339Y-120599087D01*
X149688043Y-120715995D01*
X149890118Y-120799904D01*
X150108922Y-120800095D01*
X150311143Y-120716539D01*
X150465995Y-120561957D01*
X150549904Y-120359882D01*
X150550032Y-120212982D01*
X150596454Y-120143507D01*
X150596455Y-120143506D01*
X150625000Y-120000000D01*
X150625000Y-119250000D01*
X150596455Y-119106494D01*
X150515165Y-118984835D01*
X150375000Y-118844670D01*
X150375000Y-117505330D01*
X150650017Y-117780347D01*
X150649905Y-117908922D01*
X150733461Y-118111143D01*
X150888043Y-118265995D01*
X151090118Y-118349904D01*
X151308922Y-118350095D01*
X151511143Y-118266539D01*
X151560021Y-118217746D01*
X192819801Y-118217746D01*
X192994509Y-118640572D01*
X193317727Y-118964354D01*
X193740247Y-119139800D01*
X194197746Y-119140199D01*
X194620572Y-118965491D01*
X194944354Y-118642273D01*
X195119800Y-118219753D01*
X195120199Y-117762254D01*
X194945491Y-117339428D01*
X194622273Y-117015646D01*
X194199753Y-116840200D01*
X193742254Y-116839801D01*
X193319428Y-117014509D01*
X192995646Y-117337727D01*
X192820200Y-117760247D01*
X192819801Y-118217746D01*
X151560021Y-118217746D01*
X151665995Y-118111957D01*
X151749904Y-117909882D01*
X151750095Y-117691078D01*
X151666539Y-117488857D01*
X151511957Y-117334005D01*
X151309882Y-117250096D01*
X151180313Y-117249983D01*
X150975000Y-117044670D01*
X150975000Y-114155330D01*
X151480347Y-113649983D01*
X151608922Y-113650095D01*
X151811143Y-113566539D01*
X151965995Y-113411957D01*
X152049904Y-113209882D01*
X152050095Y-112991078D01*
X151966539Y-112788857D01*
X151811957Y-112634005D01*
X151609882Y-112550096D01*
X151391078Y-112549905D01*
X151188857Y-112633461D01*
X151034005Y-112788043D01*
X150950096Y-112990118D01*
X150949983Y-113119687D01*
X150514570Y-113555100D01*
X150466539Y-113438857D01*
X150311957Y-113284005D01*
X150109882Y-113200096D01*
X149891078Y-113199905D01*
X149688857Y-113283461D01*
X149534005Y-113438043D01*
X149500020Y-113519888D01*
X149466539Y-113438857D01*
X149311957Y-113284005D01*
X149109882Y-113200096D01*
X148891078Y-113199905D01*
X148688857Y-113283461D01*
X148534005Y-113438043D01*
X148450096Y-113640118D01*
X148449905Y-113858922D01*
X148533461Y-114061143D01*
X148688043Y-114215995D01*
X148890118Y-114299904D01*
X149019687Y-114300017D01*
X149125000Y-114405330D01*
X149125000Y-119097207D01*
X149034005Y-119188043D01*
X148950096Y-119390118D01*
X148949905Y-119608922D01*
X148957406Y-119627076D01*
X148875000Y-119544670D01*
X148875000Y-118002793D01*
X148965995Y-117911957D01*
X149049904Y-117709882D01*
X149050095Y-117491078D01*
X148966539Y-117288857D01*
X148811957Y-117134005D01*
X148609882Y-117050096D01*
X148391078Y-117049905D01*
X148188857Y-117133461D01*
X148034005Y-117288043D01*
X147950096Y-117490118D01*
X147949905Y-117708922D01*
X146874830Y-117708922D01*
X146866539Y-117688857D01*
X146850000Y-117672289D01*
X146850000Y-114927924D01*
X146865995Y-114911957D01*
X146949904Y-114709882D01*
X146950095Y-114491078D01*
X146866539Y-114288857D01*
X146711957Y-114134005D01*
X146509882Y-114050096D01*
X146291078Y-114049905D01*
X146088857Y-114133461D01*
X145934005Y-114288043D01*
X145850096Y-114490118D01*
X145849905Y-114708922D01*
X143267255Y-114708922D01*
X143349904Y-114509882D01*
X143350095Y-114291078D01*
X143266539Y-114088857D01*
X143111957Y-113934005D01*
X142909882Y-113850096D01*
X142691078Y-113849905D01*
X142488857Y-113933461D01*
X142334005Y-114088043D01*
X142300020Y-114169888D01*
X142266539Y-114088857D01*
X142111957Y-113934005D01*
X141909882Y-113850096D01*
X141880260Y-113850070D01*
X142455330Y-113275000D01*
X144697207Y-113275000D01*
X144788043Y-113365995D01*
X144990118Y-113449904D01*
X145208922Y-113450095D01*
X145411143Y-113366539D01*
X145565995Y-113211957D01*
X145649904Y-113009882D01*
X145650095Y-112791078D01*
X145566539Y-112588857D01*
X145451906Y-112474024D01*
X145465165Y-112465165D01*
X145880347Y-112049983D01*
X146008922Y-112050095D01*
X146211143Y-111966539D01*
X146365995Y-111811957D01*
X146449904Y-111609882D01*
X146450095Y-111391078D01*
X146366539Y-111188857D01*
X146211957Y-111034005D01*
X146151551Y-111008922D01*
X158749905Y-111008922D01*
X158833461Y-111211143D01*
X158988043Y-111365995D01*
X159190118Y-111449904D01*
X159408922Y-111450095D01*
X159611143Y-111366539D01*
X159702842Y-111275000D01*
X161044670Y-111275000D01*
X162450017Y-112680347D01*
X162449905Y-112808922D01*
X162533461Y-113011143D01*
X162688043Y-113165995D01*
X162890118Y-113249904D01*
X163108922Y-113250095D01*
X163311143Y-113166539D01*
X163465995Y-113011957D01*
X163549904Y-112809882D01*
X163550095Y-112591078D01*
X163466539Y-112388857D01*
X163311957Y-112234005D01*
X163109882Y-112150096D01*
X162980313Y-112149983D01*
X161465165Y-110634835D01*
X161343507Y-110553545D01*
X161200000Y-110525000D01*
X159702793Y-110525000D01*
X159611957Y-110434005D01*
X159409882Y-110350096D01*
X159191078Y-110349905D01*
X158988857Y-110433461D01*
X158834005Y-110588043D01*
X158750096Y-110790118D01*
X158749905Y-111008922D01*
X146151551Y-111008922D01*
X146009882Y-110950096D01*
X145791078Y-110949905D01*
X145588857Y-111033461D01*
X145434005Y-111188043D01*
X145350096Y-111390118D01*
X145349983Y-111519687D01*
X145044670Y-111825000D01*
X142300000Y-111825000D01*
X142156493Y-111853545D01*
X142034835Y-111934835D01*
X140334835Y-113634835D01*
X140253545Y-113756493D01*
X140253545Y-113756494D01*
X140225000Y-113900000D01*
X140225000Y-114900000D01*
X140253545Y-115043507D01*
X140334835Y-115165165D01*
X140525000Y-115355330D01*
X140525000Y-128144670D01*
X140444670Y-128225000D01*
X139549978Y-128225000D01*
X139550095Y-128091078D01*
X139466539Y-127888857D01*
X139311957Y-127734005D01*
X139109882Y-127650096D01*
X138891078Y-127649905D01*
X138688857Y-127733461D01*
X138534005Y-127888043D01*
X138450096Y-128090118D01*
X138449905Y-128308922D01*
X138482313Y-128387357D01*
X136944670Y-129925000D01*
X136000000Y-129925000D01*
X135856494Y-129953545D01*
X135734835Y-130034835D01*
X133994835Y-131774835D01*
X133915853Y-131893038D01*
X133833844Y-131909351D01*
X133472566Y-132150749D01*
X133231168Y-132512027D01*
X133146400Y-132938183D01*
X133146400Y-132981817D01*
X133231168Y-133407973D01*
X133472566Y-133769251D01*
X133833844Y-134010649D01*
X134260000Y-134095417D01*
X134686156Y-134010649D01*
X135047434Y-133769251D01*
X135225000Y-133503504D01*
X135225000Y-134004670D01*
X134742603Y-134487067D01*
X134686156Y-134449351D01*
X134260000Y-134364583D01*
X133833844Y-134449351D01*
X133472566Y-134690749D01*
X133231168Y-135052027D01*
X133146400Y-135478183D01*
X133146400Y-135521817D01*
X133217958Y-135881562D01*
X132833600Y-135497204D01*
X132833600Y-135478183D01*
X132748832Y-135052027D01*
X132507434Y-134690749D01*
X132146156Y-134449351D01*
X131720000Y-134364583D01*
X131293844Y-134449351D01*
X130932566Y-134690749D01*
X130691168Y-135052027D01*
X130606400Y-135478183D01*
X127753600Y-135478183D01*
X127699633Y-135206872D01*
X127994080Y-135206872D01*
X128052325Y-135396000D01*
X129076000Y-135396000D01*
X129076000Y-134372687D01*
X129284000Y-134372687D01*
X129284000Y-135396000D01*
X130307675Y-135396000D01*
X130365920Y-135206872D01*
X130163472Y-134775353D01*
X129811299Y-134454155D01*
X129473126Y-134314090D01*
X129284000Y-134372687D01*
X129076000Y-134372687D01*
X128886874Y-134314090D01*
X128548701Y-134454155D01*
X128196528Y-134775353D01*
X127994080Y-135206872D01*
X127699633Y-135206872D01*
X127668832Y-135052027D01*
X127427434Y-134690749D01*
X127066156Y-134449351D01*
X126640000Y-134364583D01*
X126213844Y-134449351D01*
X125852566Y-134690749D01*
X125611168Y-135052027D01*
X125526400Y-135478183D01*
X120453493Y-135478183D01*
X120464554Y-134345972D01*
X119950544Y-133069929D01*
X119912277Y-133012658D01*
X119829246Y-132938183D01*
X125526400Y-132938183D01*
X125526400Y-132981817D01*
X125611168Y-133407973D01*
X125852566Y-133769251D01*
X126213844Y-134010649D01*
X126640000Y-134095417D01*
X127066156Y-134010649D01*
X127427434Y-133769251D01*
X127668832Y-133407973D01*
X127699632Y-133253128D01*
X127994080Y-133253128D01*
X128196528Y-133684647D01*
X128548701Y-134005845D01*
X128886874Y-134145910D01*
X129076000Y-134087313D01*
X129076000Y-133064000D01*
X129284000Y-133064000D01*
X129284000Y-134087313D01*
X129473126Y-134145910D01*
X129811299Y-134005845D01*
X130163472Y-133684647D01*
X130365920Y-133253128D01*
X130307675Y-133064000D01*
X129284000Y-133064000D01*
X129076000Y-133064000D01*
X128052325Y-133064000D01*
X127994080Y-133253128D01*
X127699632Y-133253128D01*
X127753600Y-132981817D01*
X127753600Y-132938183D01*
X130606400Y-132938183D01*
X130606400Y-132981817D01*
X130691168Y-133407973D01*
X130932566Y-133769251D01*
X131293844Y-134010649D01*
X131720000Y-134095417D01*
X132146156Y-134010649D01*
X132507434Y-133769251D01*
X132748832Y-133407973D01*
X132833600Y-132981817D01*
X132833600Y-132938183D01*
X132748832Y-132512027D01*
X132507434Y-132150749D01*
X132146156Y-131909351D01*
X131720000Y-131824583D01*
X131293844Y-131909351D01*
X130932566Y-132150749D01*
X130691168Y-132512027D01*
X130606400Y-132938183D01*
X127753600Y-132938183D01*
X127699633Y-132666872D01*
X127994080Y-132666872D01*
X128052325Y-132856000D01*
X129076000Y-132856000D01*
X129076000Y-131832687D01*
X129284000Y-131832687D01*
X129284000Y-132856000D01*
X130307675Y-132856000D01*
X130365920Y-132666872D01*
X130163472Y-132235353D01*
X129811299Y-131914155D01*
X129473126Y-131774090D01*
X129284000Y-131832687D01*
X129076000Y-131832687D01*
X128886874Y-131774090D01*
X128548701Y-131914155D01*
X128196528Y-132235353D01*
X127994080Y-132666872D01*
X127699633Y-132666872D01*
X127668832Y-132512027D01*
X127427434Y-132150749D01*
X127066156Y-131909351D01*
X126640000Y-131824583D01*
X126213844Y-131909351D01*
X125852566Y-132150749D01*
X125611168Y-132512027D01*
X125526400Y-132938183D01*
X119829246Y-132938183D01*
X119502219Y-132644859D01*
X117147078Y-135000000D01*
X116852922Y-135000000D01*
X114497781Y-132644859D01*
X114087723Y-133012658D01*
X113800000Y-133688532D01*
X113800000Y-132497781D01*
X114644859Y-132497781D01*
X117000000Y-134852922D01*
X119355141Y-132497781D01*
X118987342Y-132087723D01*
X117721585Y-131548884D01*
X116345972Y-131535446D01*
X115069929Y-132049456D01*
X115012658Y-132087723D01*
X114644859Y-132497781D01*
X113800000Y-132497781D01*
X113800000Y-123608922D01*
X134699905Y-123608922D01*
X134783461Y-123811143D01*
X134938043Y-123965995D01*
X135140118Y-124049904D01*
X135358922Y-124050095D01*
X135561143Y-123966539D01*
X135577711Y-123950000D01*
X138922076Y-123950000D01*
X138938043Y-123965995D01*
X139140118Y-124049904D01*
X139358922Y-124050095D01*
X139561143Y-123966539D01*
X139715995Y-123811957D01*
X139799904Y-123609882D01*
X139800095Y-123391078D01*
X139716539Y-123188857D01*
X139561957Y-123034005D01*
X139359882Y-122950096D01*
X139141078Y-122949905D01*
X138938857Y-123033461D01*
X138922289Y-123050000D01*
X135577924Y-123050000D01*
X135561957Y-123034005D01*
X135359882Y-122950096D01*
X135141078Y-122949905D01*
X134938857Y-123033461D01*
X134784005Y-123188043D01*
X134700096Y-123390118D01*
X134699905Y-123608922D01*
X113800000Y-123608922D01*
X113800000Y-108020000D01*
X115208079Y-108020000D01*
X115284436Y-108403874D01*
X115501883Y-108729306D01*
X115827315Y-108946753D01*
X116211189Y-109023110D01*
X117788811Y-109023110D01*
X118172685Y-108946753D01*
X118498117Y-108729306D01*
X118511737Y-108708922D01*
X173849905Y-108708922D01*
X173933461Y-108911143D01*
X174025000Y-109002842D01*
X174025000Y-110597207D01*
X173934005Y-110688043D01*
X173850096Y-110890118D01*
X173849905Y-111108922D01*
X173933461Y-111311143D01*
X174088043Y-111465995D01*
X174290118Y-111549904D01*
X174508922Y-111550095D01*
X174711143Y-111466539D01*
X174865995Y-111311957D01*
X174949904Y-111109882D01*
X174950095Y-110891078D01*
X174866539Y-110688857D01*
X174775000Y-110597158D01*
X174775000Y-109002793D01*
X174865995Y-108911957D01*
X174949904Y-108709882D01*
X174950095Y-108491078D01*
X174866539Y-108288857D01*
X174711957Y-108134005D01*
X174509882Y-108050096D01*
X174291078Y-108049905D01*
X174088857Y-108133461D01*
X173934005Y-108288043D01*
X173850096Y-108490118D01*
X173849905Y-108708922D01*
X118511737Y-108708922D01*
X118715564Y-108403874D01*
X118791921Y-108020000D01*
X118715564Y-107636126D01*
X118498117Y-107310694D01*
X118172685Y-107093247D01*
X117788811Y-107016890D01*
X116211189Y-107016890D01*
X115827315Y-107093247D01*
X115501883Y-107310694D01*
X115284436Y-107636126D01*
X115208079Y-108020000D01*
X113800000Y-108020000D01*
X113800000Y-105480000D01*
X115208079Y-105480000D01*
X115284436Y-105863874D01*
X115501883Y-106189306D01*
X115827315Y-106406753D01*
X116211189Y-106483110D01*
X117788811Y-106483110D01*
X118172685Y-106406753D01*
X118498117Y-106189306D01*
X118715564Y-105863874D01*
X118791921Y-105480000D01*
X118715564Y-105096126D01*
X118498117Y-104770694D01*
X118172685Y-104553247D01*
X117788811Y-104476890D01*
X116211189Y-104476890D01*
X115827315Y-104553247D01*
X115501883Y-104770694D01*
X115284436Y-105096126D01*
X115208079Y-105480000D01*
X113800000Y-105480000D01*
X113800000Y-102877817D01*
X122769261Y-102877817D01*
X122862768Y-103054009D01*
X123314626Y-103217635D01*
X123794706Y-103195888D01*
X124137232Y-103054009D01*
X124230739Y-102877817D01*
X123500000Y-102147078D01*
X122769261Y-102877817D01*
X113800000Y-102877817D01*
X113800000Y-101814626D01*
X122282365Y-101814626D01*
X122304112Y-102294706D01*
X122445991Y-102637232D01*
X122622183Y-102730739D01*
X123352922Y-102000000D01*
X123647078Y-102000000D01*
X124377817Y-102730739D01*
X124554009Y-102637232D01*
X124717635Y-102185374D01*
X124695888Y-101705294D01*
X124554009Y-101362768D01*
X124377817Y-101269261D01*
X123647078Y-102000000D01*
X123352922Y-102000000D01*
X122622183Y-101269261D01*
X122445991Y-101362768D01*
X122282365Y-101814626D01*
X113800000Y-101814626D01*
X113800000Y-101122183D01*
X122769261Y-101122183D01*
X123500000Y-101852922D01*
X124202922Y-101150000D01*
X127395103Y-101150000D01*
X127395103Y-102850000D01*
X127412535Y-102942644D01*
X127467288Y-103027732D01*
X127550831Y-103084815D01*
X127650000Y-103104897D01*
X129350000Y-103104897D01*
X129442644Y-103087465D01*
X129527732Y-103032712D01*
X129584815Y-102949169D01*
X129604897Y-102850000D01*
X129604897Y-102375000D01*
X140044670Y-102375000D01*
X140350017Y-102680347D01*
X140349905Y-102808922D01*
X140433461Y-103011143D01*
X140588043Y-103165995D01*
X140790118Y-103249904D01*
X141008922Y-103250095D01*
X141211143Y-103166539D01*
X141365995Y-103011957D01*
X141449904Y-102809882D01*
X141450095Y-102591078D01*
X141366539Y-102388857D01*
X141211957Y-102234005D01*
X141009882Y-102150096D01*
X140880313Y-102149983D01*
X140465165Y-101734835D01*
X140343507Y-101653545D01*
X140200000Y-101625000D01*
X129604897Y-101625000D01*
X129604897Y-101150000D01*
X129587465Y-101057356D01*
X129532712Y-100972268D01*
X129449169Y-100915185D01*
X129350000Y-100895103D01*
X127650000Y-100895103D01*
X127557356Y-100912535D01*
X127472268Y-100967288D01*
X127415185Y-101050831D01*
X127395103Y-101150000D01*
X124202922Y-101150000D01*
X124230739Y-101122183D01*
X124137232Y-100945991D01*
X123685374Y-100782365D01*
X123205294Y-100804112D01*
X122862768Y-100945991D01*
X122769261Y-101122183D01*
X113800000Y-101122183D01*
X113800000Y-98108922D01*
X159849905Y-98108922D01*
X159933461Y-98311143D01*
X160088043Y-98465995D01*
X160290118Y-98549904D01*
X160438410Y-98550033D01*
X161743522Y-99773576D01*
X161800589Y-99809101D01*
X161856494Y-99846455D01*
X161862522Y-99847654D01*
X161867738Y-99850901D01*
X161934055Y-99861883D01*
X162000000Y-99875000D01*
X162641952Y-99875000D01*
X166531581Y-103861871D01*
X166533526Y-103863205D01*
X166534835Y-103865165D01*
X167225000Y-104555330D01*
X167225000Y-107197207D01*
X167134005Y-107288043D01*
X167050096Y-107490118D01*
X167049905Y-107708922D01*
X167133461Y-107911143D01*
X167288043Y-108065995D01*
X167490118Y-108149904D01*
X167708922Y-108150095D01*
X167911143Y-108066539D01*
X168065995Y-107911957D01*
X168149904Y-107709882D01*
X168150095Y-107491078D01*
X168066539Y-107288857D01*
X167975000Y-107197158D01*
X167975000Y-104400000D01*
X167946455Y-104256494D01*
X167946455Y-104256493D01*
X167865165Y-104134835D01*
X167066818Y-103336488D01*
X165926582Y-102167746D01*
X183019801Y-102167746D01*
X183194509Y-102590572D01*
X183517727Y-102914354D01*
X183940247Y-103089800D01*
X184397746Y-103090199D01*
X184820572Y-102915491D01*
X185144354Y-102592273D01*
X185319800Y-102169753D01*
X185320199Y-101712254D01*
X185145491Y-101289428D01*
X184822273Y-100965646D01*
X184399753Y-100790200D01*
X183942254Y-100789801D01*
X183519428Y-100964509D01*
X183195646Y-101287727D01*
X183020200Y-101710247D01*
X183019801Y-102167746D01*
X165926582Y-102167746D01*
X165909235Y-102149966D01*
X166111143Y-102066539D01*
X166265995Y-101911957D01*
X166349904Y-101709882D01*
X166350095Y-101491078D01*
X166266539Y-101288857D01*
X166111957Y-101134005D01*
X166030112Y-101100020D01*
X166111143Y-101066539D01*
X166265995Y-100911957D01*
X166349904Y-100709882D01*
X166350095Y-100491078D01*
X166266539Y-100288857D01*
X166122442Y-100144509D01*
X166311143Y-100066539D01*
X166465995Y-99911957D01*
X166549904Y-99709882D01*
X166550095Y-99491078D01*
X166466539Y-99288857D01*
X166311957Y-99134005D01*
X166109882Y-99050096D01*
X165891078Y-99049905D01*
X165688857Y-99133461D01*
X165597158Y-99225000D01*
X165155330Y-99225000D01*
X162865165Y-96934835D01*
X162743507Y-96853545D01*
X162600000Y-96825000D01*
X162402793Y-96825000D01*
X162311957Y-96734005D01*
X162109882Y-96650096D01*
X161891078Y-96649905D01*
X161688857Y-96733461D01*
X161534005Y-96888043D01*
X161450096Y-97090118D01*
X161449905Y-97308922D01*
X161508164Y-97449920D01*
X161491078Y-97449905D01*
X161288857Y-97533461D01*
X161134005Y-97688043D01*
X161050096Y-97890118D01*
X161049917Y-98095273D01*
X160949999Y-98001599D01*
X160950095Y-97891078D01*
X160866539Y-97688857D01*
X160711957Y-97534005D01*
X160509882Y-97450096D01*
X160291078Y-97449905D01*
X160088857Y-97533461D01*
X159934005Y-97688043D01*
X159850096Y-97890118D01*
X159849905Y-98108922D01*
X113800000Y-98108922D01*
X113800000Y-88502219D01*
X114644859Y-88502219D01*
X115012658Y-88912277D01*
X116278415Y-89451116D01*
X117654028Y-89464554D01*
X118930071Y-88950544D01*
X118987342Y-88912277D01*
X119355141Y-88502219D01*
X172644859Y-88502219D01*
X173012658Y-88912277D01*
X174278415Y-89451116D01*
X175654028Y-89464554D01*
X176930071Y-88950544D01*
X176987342Y-88912277D01*
X177355141Y-88502219D01*
X175000000Y-86147078D01*
X172644859Y-88502219D01*
X119355141Y-88502219D01*
X117000000Y-86147078D01*
X114644859Y-88502219D01*
X113800000Y-88502219D01*
X113800000Y-87310790D01*
X114049456Y-87930071D01*
X114087723Y-87987342D01*
X114497781Y-88355141D01*
X116852922Y-86000000D01*
X117147078Y-86000000D01*
X119502219Y-88355141D01*
X119912277Y-87987342D01*
X120451116Y-86721585D01*
X120451775Y-86654028D01*
X171535446Y-86654028D01*
X172049456Y-87930071D01*
X172087723Y-87987342D01*
X172497781Y-88355141D01*
X174852922Y-86000000D01*
X175147078Y-86000000D01*
X177502219Y-88355141D01*
X177912277Y-87987342D01*
X178451116Y-86721585D01*
X178464554Y-85345972D01*
X177950544Y-84069929D01*
X177912277Y-84012658D01*
X177502219Y-83644859D01*
X175147078Y-86000000D01*
X174852922Y-86000000D01*
X172497781Y-83644859D01*
X172087723Y-84012658D01*
X171548884Y-85278415D01*
X171535446Y-86654028D01*
X120451775Y-86654028D01*
X120464554Y-85345972D01*
X119950544Y-84069929D01*
X119912277Y-84012658D01*
X119796623Y-83908922D01*
X139449905Y-83908922D01*
X139533461Y-84111143D01*
X139688043Y-84265995D01*
X139890118Y-84349904D01*
X140108922Y-84350095D01*
X140311143Y-84266539D01*
X140465995Y-84111957D01*
X140522865Y-83975000D01*
X160397207Y-83975000D01*
X160488043Y-84065995D01*
X160690118Y-84149904D01*
X160908922Y-84150095D01*
X161111143Y-84066539D01*
X161265995Y-83911957D01*
X161349904Y-83709882D01*
X161350095Y-83491078D01*
X161266539Y-83288857D01*
X161111957Y-83134005D01*
X160909882Y-83050096D01*
X160691078Y-83049905D01*
X160488857Y-83133461D01*
X160397158Y-83225000D01*
X140200000Y-83225000D01*
X140073991Y-83250065D01*
X139891078Y-83249905D01*
X139688857Y-83333461D01*
X139534005Y-83488043D01*
X139450096Y-83690118D01*
X139449905Y-83908922D01*
X119796623Y-83908922D01*
X119502219Y-83644859D01*
X117147078Y-86000000D01*
X116852922Y-86000000D01*
X114497781Y-83644859D01*
X114087723Y-84012658D01*
X113800000Y-84688532D01*
X113800000Y-82800000D01*
X115689210Y-82800000D01*
X115069929Y-83049456D01*
G36*
X141505000Y-131899175D02*
X141453844Y-131909351D01*
X141092566Y-132150749D01*
X140851168Y-132512027D01*
X140766400Y-132938183D01*
X140766400Y-132981817D01*
X140804702Y-133174372D01*
X140425067Y-132794737D01*
X140368832Y-132512027D01*
X140127434Y-132150749D01*
X139766156Y-131909351D01*
X139340000Y-131824583D01*
X138913844Y-131909351D01*
X138552566Y-132150749D01*
X138311168Y-132512027D01*
X138226400Y-132938183D01*
X138226400Y-132981817D01*
X138311168Y-133407973D01*
X138552566Y-133769251D01*
X138913844Y-134010649D01*
X139340000Y-134095417D01*
X139766156Y-134010649D01*
X140127434Y-133769251D01*
X140212144Y-133642474D01*
X141034835Y-134465165D01*
X141156494Y-134546455D01*
X141273643Y-134569757D01*
X141092566Y-134690749D01*
X140851168Y-135052027D01*
X140766400Y-135478183D01*
X140766400Y-135521817D01*
X140851168Y-135947973D01*
X141092566Y-136309251D01*
X141453844Y-136550649D01*
X141880000Y-136635417D01*
X142306156Y-136550649D01*
X142667434Y-136309251D01*
X142908832Y-135947973D01*
X142993600Y-135521817D01*
X142993600Y-135478183D01*
X142908832Y-135052027D01*
X142667434Y-134690749D01*
X142494203Y-134575000D01*
X143805797Y-134575000D01*
X143632566Y-134690749D01*
X143391168Y-135052027D01*
X143306400Y-135478183D01*
X143306400Y-135521817D01*
X143391168Y-135947973D01*
X143632566Y-136309251D01*
X143993844Y-136550649D01*
X144420000Y-136635417D01*
X144846156Y-136550649D01*
X145207434Y-136309251D01*
X145448832Y-135947973D01*
X145533600Y-135521817D01*
X145533600Y-135478183D01*
X145846400Y-135478183D01*
X145846400Y-135521817D01*
X145931168Y-135947973D01*
X146172566Y-136309251D01*
X146533844Y-136550649D01*
X146960000Y-136635417D01*
X147386156Y-136550649D01*
X147747434Y-136309251D01*
X147988832Y-135947973D01*
X148039450Y-135693500D01*
X148278400Y-135693500D01*
X148278400Y-136434811D01*
X148332902Y-136566391D01*
X148433610Y-136667098D01*
X148565190Y-136721600D01*
X149306500Y-136721600D01*
X149396000Y-136632100D01*
X149396000Y-135604000D01*
X148367900Y-135604000D01*
X148278400Y-135693500D01*
X148039450Y-135693500D01*
X148073600Y-135521817D01*
X148073600Y-135478183D01*
X147988832Y-135052027D01*
X147747434Y-134690749D01*
X147386156Y-134449351D01*
X146960000Y-134364583D01*
X146533844Y-134449351D01*
X146172566Y-134690749D01*
X145931168Y-135052027D01*
X145846400Y-135478183D01*
X145533600Y-135478183D01*
X145448832Y-135052027D01*
X145207434Y-134690749D01*
X145003417Y-134554429D01*
X145043507Y-134546455D01*
X145165165Y-134465165D01*
X145965165Y-133665165D01*
X146034092Y-133562010D01*
X146172566Y-133769251D01*
X146533844Y-134010649D01*
X146960000Y-134095417D01*
X147386156Y-134010649D01*
X147442603Y-133972933D01*
X147934835Y-134465165D01*
X148056494Y-134546455D01*
X148200000Y-134575000D01*
X148278400Y-134575000D01*
X148278400Y-135306500D01*
X148367900Y-135396000D01*
X149396000Y-135396000D01*
X149396000Y-135376000D01*
X149604000Y-135376000D01*
X149604000Y-135396000D01*
X150632100Y-135396000D01*
X150721600Y-135306500D01*
X150721600Y-134575000D01*
X150947245Y-134575000D01*
X150834005Y-134688043D01*
X150750096Y-134890118D01*
X150749905Y-135108922D01*
X150833461Y-135311143D01*
X150850000Y-135327711D01*
X150850000Y-136213604D01*
X150721600Y-136342004D01*
X150721600Y-135693500D01*
X150632100Y-135604000D01*
X149604000Y-135604000D01*
X149604000Y-136632100D01*
X149693500Y-136721600D01*
X150342004Y-136721600D01*
X150213604Y-136850000D01*
X134186396Y-136850000D01*
X133900255Y-136563859D01*
X134260000Y-136635417D01*
X134686156Y-136550649D01*
X135047434Y-136309251D01*
X135288832Y-135947973D01*
X135373600Y-135521817D01*
X135373600Y-135478183D01*
X135686400Y-135478183D01*
X135686400Y-135521817D01*
X135771168Y-135947973D01*
X136012566Y-136309251D01*
X136373844Y-136550649D01*
X136800000Y-136635417D01*
X137226156Y-136550649D01*
X137587434Y-136309251D01*
X137828832Y-135947973D01*
X137913600Y-135521817D01*
X137913600Y-135478183D01*
X138226400Y-135478183D01*
X138226400Y-135521817D01*
X138311168Y-135947973D01*
X138552566Y-136309251D01*
X138913844Y-136550649D01*
X139340000Y-136635417D01*
X139766156Y-136550649D01*
X140127434Y-136309251D01*
X140368832Y-135947973D01*
X140453600Y-135521817D01*
X140453600Y-135478183D01*
X140368832Y-135052027D01*
X140127434Y-134690749D01*
X139766156Y-134449351D01*
X139340000Y-134364583D01*
X138913844Y-134449351D01*
X138552566Y-134690749D01*
X138311168Y-135052027D01*
X138226400Y-135478183D01*
X137913600Y-135478183D01*
X137828832Y-135052027D01*
X137587434Y-134690749D01*
X137226156Y-134449351D01*
X136800000Y-134364583D01*
X136373844Y-134449351D01*
X136012566Y-134690749D01*
X135771168Y-135052027D01*
X135686400Y-135478183D01*
X135373600Y-135478183D01*
X135288832Y-135052027D01*
X135268593Y-135021737D01*
X135865165Y-134425165D01*
X135946455Y-134303507D01*
X135975000Y-134160000D01*
X135975000Y-133713029D01*
X136012566Y-133769251D01*
X136373844Y-134010649D01*
X136800000Y-134095417D01*
X137226156Y-134010649D01*
X137587434Y-133769251D01*
X137828832Y-133407973D01*
X137913600Y-132981817D01*
X137913600Y-132938183D01*
X137828832Y-132512027D01*
X137824615Y-132505715D01*
X139980347Y-130349983D01*
X140108922Y-130350095D01*
X140311143Y-130266539D01*
X140465995Y-130111957D01*
X140549904Y-129909882D01*
X140550095Y-129691078D01*
X140466539Y-129488857D01*
X140452706Y-129475000D01*
X140900000Y-129475000D01*
X141043507Y-129446455D01*
X141165165Y-129365165D01*
X141505000Y-129025330D01*
X141505000Y-131899175D01*
X141505000Y-131899175D01*
G37*
X141505000Y-131899175D02*
X141453844Y-131909351D01*
X141092566Y-132150749D01*
X140851168Y-132512027D01*
X140766400Y-132938183D01*
X140766400Y-132981817D01*
X140804702Y-133174372D01*
X140425067Y-132794737D01*
X140368832Y-132512027D01*
X140127434Y-132150749D01*
X139766156Y-131909351D01*
X139340000Y-131824583D01*
X138913844Y-131909351D01*
X138552566Y-132150749D01*
X138311168Y-132512027D01*
X138226400Y-132938183D01*
X138226400Y-132981817D01*
X138311168Y-133407973D01*
X138552566Y-133769251D01*
X138913844Y-134010649D01*
X139340000Y-134095417D01*
X139766156Y-134010649D01*
X140127434Y-133769251D01*
X140212144Y-133642474D01*
X141034835Y-134465165D01*
X141156494Y-134546455D01*
X141273643Y-134569757D01*
X141092566Y-134690749D01*
X140851168Y-135052027D01*
X140766400Y-135478183D01*
X140766400Y-135521817D01*
X140851168Y-135947973D01*
X141092566Y-136309251D01*
X141453844Y-136550649D01*
X141880000Y-136635417D01*
X142306156Y-136550649D01*
X142667434Y-136309251D01*
X142908832Y-135947973D01*
X142993600Y-135521817D01*
X142993600Y-135478183D01*
X142908832Y-135052027D01*
X142667434Y-134690749D01*
X142494203Y-134575000D01*
X143805797Y-134575000D01*
X143632566Y-134690749D01*
X143391168Y-135052027D01*
X143306400Y-135478183D01*
X143306400Y-135521817D01*
X143391168Y-135947973D01*
X143632566Y-136309251D01*
X143993844Y-136550649D01*
X144420000Y-136635417D01*
X144846156Y-136550649D01*
X145207434Y-136309251D01*
X145448832Y-135947973D01*
X145533600Y-135521817D01*
X145533600Y-135478183D01*
X145846400Y-135478183D01*
X145846400Y-135521817D01*
X145931168Y-135947973D01*
X146172566Y-136309251D01*
X146533844Y-136550649D01*
X146960000Y-136635417D01*
X147386156Y-136550649D01*
X147747434Y-136309251D01*
X147988832Y-135947973D01*
X148039450Y-135693500D01*
X148278400Y-135693500D01*
X148278400Y-136434811D01*
X148332902Y-136566391D01*
X148433610Y-136667098D01*
X148565190Y-136721600D01*
X149306500Y-136721600D01*
X149396000Y-136632100D01*
X149396000Y-135604000D01*
X148367900Y-135604000D01*
X148278400Y-135693500D01*
X148039450Y-135693500D01*
X148073600Y-135521817D01*
X148073600Y-135478183D01*
X147988832Y-135052027D01*
X147747434Y-134690749D01*
X147386156Y-134449351D01*
X146960000Y-134364583D01*
X146533844Y-134449351D01*
X146172566Y-134690749D01*
X145931168Y-135052027D01*
X145846400Y-135478183D01*
X145533600Y-135478183D01*
X145448832Y-135052027D01*
X145207434Y-134690749D01*
X145003417Y-134554429D01*
X145043507Y-134546455D01*
X145165165Y-134465165D01*
X145965165Y-133665165D01*
X146034092Y-133562010D01*
X146172566Y-133769251D01*
X146533844Y-134010649D01*
X146960000Y-134095417D01*
X147386156Y-134010649D01*
X147442603Y-133972933D01*
X147934835Y-134465165D01*
X148056494Y-134546455D01*
X148200000Y-134575000D01*
X148278400Y-134575000D01*
X148278400Y-135306500D01*
X148367900Y-135396000D01*
X149396000Y-135396000D01*
X149396000Y-135376000D01*
X149604000Y-135376000D01*
X149604000Y-135396000D01*
X150632100Y-135396000D01*
X150721600Y-135306500D01*
X150721600Y-134575000D01*
X150947245Y-134575000D01*
X150834005Y-134688043D01*
X150750096Y-134890118D01*
X150749905Y-135108922D01*
X150833461Y-135311143D01*
X150850000Y-135327711D01*
X150850000Y-136213604D01*
X150721600Y-136342004D01*
X150721600Y-135693500D01*
X150632100Y-135604000D01*
X149604000Y-135604000D01*
X149604000Y-136632100D01*
X149693500Y-136721600D01*
X150342004Y-136721600D01*
X150213604Y-136850000D01*
X134186396Y-136850000D01*
X133900255Y-136563859D01*
X134260000Y-136635417D01*
X134686156Y-136550649D01*
X135047434Y-136309251D01*
X135288832Y-135947973D01*
X135373600Y-135521817D01*
X135373600Y-135478183D01*
X135686400Y-135478183D01*
X135686400Y-135521817D01*
X135771168Y-135947973D01*
X136012566Y-136309251D01*
X136373844Y-136550649D01*
X136800000Y-136635417D01*
X137226156Y-136550649D01*
X137587434Y-136309251D01*
X137828832Y-135947973D01*
X137913600Y-135521817D01*
X137913600Y-135478183D01*
X138226400Y-135478183D01*
X138226400Y-135521817D01*
X138311168Y-135947973D01*
X138552566Y-136309251D01*
X138913844Y-136550649D01*
X139340000Y-136635417D01*
X139766156Y-136550649D01*
X140127434Y-136309251D01*
X140368832Y-135947973D01*
X140453600Y-135521817D01*
X140453600Y-135478183D01*
X140368832Y-135052027D01*
X140127434Y-134690749D01*
X139766156Y-134449351D01*
X139340000Y-134364583D01*
X138913844Y-134449351D01*
X138552566Y-134690749D01*
X138311168Y-135052027D01*
X138226400Y-135478183D01*
X137913600Y-135478183D01*
X137828832Y-135052027D01*
X137587434Y-134690749D01*
X137226156Y-134449351D01*
X136800000Y-134364583D01*
X136373844Y-134449351D01*
X136012566Y-134690749D01*
X135771168Y-135052027D01*
X135686400Y-135478183D01*
X135373600Y-135478183D01*
X135288832Y-135052027D01*
X135268593Y-135021737D01*
X135865165Y-134425165D01*
X135946455Y-134303507D01*
X135975000Y-134160000D01*
X135975000Y-133713029D01*
X136012566Y-133769251D01*
X136373844Y-134010649D01*
X136800000Y-134095417D01*
X137226156Y-134010649D01*
X137587434Y-133769251D01*
X137828832Y-133407973D01*
X137913600Y-132981817D01*
X137913600Y-132938183D01*
X137828832Y-132512027D01*
X137824615Y-132505715D01*
X139980347Y-130349983D01*
X140108922Y-130350095D01*
X140311143Y-130266539D01*
X140465995Y-130111957D01*
X140549904Y-129909882D01*
X140550095Y-129691078D01*
X140466539Y-129488857D01*
X140452706Y-129475000D01*
X140900000Y-129475000D01*
X141043507Y-129446455D01*
X141165165Y-129365165D01*
X141505000Y-129025330D01*
X141505000Y-131899175D01*
M02*
