M48
;DRILL file {KiCad 4.0.0-rc1-stable} date 10/1/2015 4:54:31 PM
;FORMAT={-:-/ absolute / inch / decimal}
FMAT,2
INCH,TZ
T1C0.016
T2C0.039
T3C0.040
T4C0.047
T5C0.059
%
G90
G05
M72
T1
X4.5079Y-3.7205
X4.5079Y-3.7795
X4.5079Y-3.8386
X4.5276Y-3.563
X4.5472Y-3.6614
X4.5669Y-3.7205
X4.5669Y-3.7795
X4.5669Y-3.8386
X4.7165Y-3.752
X4.7165Y-3.8307
X4.7165Y-3.9016
X4.7165Y-3.9724
X4.8031Y-4.4882
X4.8228Y-3.3268
X5.0591Y-4.1142
X5.0591Y-4.2323
X5.0591Y-4.3504
X5.1181Y-4.7047
X5.1575Y-3.4843
X5.1575Y-3.7598
X5.1969Y-4.2323
X5.1969Y-4.3504
X5.2126Y-4.7165
X5.2165Y-4.9606
X5.2323Y-4.5945
X5.2441Y-4.4055
X5.2756Y-3.3071
X5.2756Y-5.1181
X5.3189Y-4.2323
X5.3189Y-4.3504
X5.3386Y-4.5984
X5.3465Y-4.4803
X5.3465Y-4.8661
X5.3543Y-4.7559
X5.3543Y-5.1102
X5.3937Y-3.9173
X5.4528Y-3.6024
X5.4724Y-4.1339
X5.4724Y-4.3307
X5.4724Y-4.5118
X5.4724Y-5.0472
X5.4803Y-4.6535
X5.4803Y-4.8583
X5.4921Y-3.8189
X5.5118Y-3.2992
X5.5118Y-5.1102
X5.5512Y-3.9606
X5.5512Y-5.1102
X5.5827Y-4.5039
X5.5906Y-3.7205
X5.622Y-4.5039
X5.6693Y-3.8425
X5.685Y-4.4094
X5.685Y-5.1181
X5.689Y-3.622
X5.7244Y-4.4409
X5.7283Y-3.5039
X5.7638Y-4.5118
X5.7638Y-4.6457
X5.7874Y-3.7244
X5.7874Y-4.9606
X5.8465Y-4.4094
X5.8858Y-4.0157
X5.8898Y-3.5039
X5.8898Y-3.622
X5.9252Y-3.8583
X5.9764Y-3.5669
X5.9843Y-4.4724
X6.0236Y-4.4724
X6.0236Y-4.6535
X6.0551Y-4.6772
X6.0787Y-4.4803
X6.0866Y-3.4803
X6.0866Y-4.6457
X6.1024Y-5.3937
X6.1417Y-4.6457
X6.1417Y-5.
X6.1496Y-4.5039
X6.1811Y-4.7244
X6.2008Y-3.8583
X6.2047Y-4.5039
X6.2205Y-3.4646
X6.2205Y-3.5236
X6.2205Y-3.5827
X6.2402Y-4.1535
X6.2402Y-4.7835
X6.2598Y-4.5039
X6.2795Y-4.6457
X6.2913Y-4.5433
X6.2992Y-4.5984
X6.315Y-3.8583
X6.3228Y-4.0079
X6.3307Y-3.2913
X6.3386Y-4.8819
X6.3386Y-5.1969
X6.3543Y-4.4331
X6.3583Y-4.7244
X6.3583Y-5.3937
X6.3622Y-3.8583
X6.3622Y-3.9685
X6.3701Y-4.1496
X6.3701Y-4.2126
X6.3701Y-4.2756
X6.378Y-3.6063
X6.378Y-3.6693
X6.378Y-3.8268
X6.3898Y-3.8898
X6.4016Y-3.7323
X6.4016Y-3.7953
X6.4094Y-3.5512
X6.4331Y-4.4016
X6.437Y-3.3268
X6.437Y-4.8031
X6.4567Y-5.
X6.4803Y-3.5512
X6.4882Y-4.4882
X6.5157Y-4.8819
X6.5276Y-3.7874
X6.5276Y-3.9606
X6.5276Y-4.
X6.5276Y-4.189
X6.5276Y-4.3071
X6.5276Y-4.4094
X6.5354Y-3.5827
X6.5354Y-3.7008
X6.5354Y-3.9213
X6.5551Y-5.0984
X6.5945Y-4.9606
X6.5984Y-4.0472
X6.5984Y-4.2362
X6.5984Y-4.4409
X6.6535Y-3.5827
X6.6535Y-3.7008
X6.6693Y-3.3071
X6.6732Y-5.0394
X6.6929Y-5.1575
X6.6929Y-5.3937
X6.7323Y-3.878
X6.7559Y-4.6299
X6.7638Y-4.7953
X6.7913Y-5.0394
X6.811Y-3.5827
X6.811Y-3.7008
X6.8504Y-4.7874
X6.8504Y-5.1575
X6.8661Y-4.2756
X6.8661Y-4.3701
X6.9094Y-5.0394
X6.9685Y-3.5827
X6.9685Y-3.7008
X6.9685Y-3.9173
X6.9685Y-4.2717
X6.9685Y-4.9606
X7.0079Y-5.1575
X7.0276Y-5.0394
X7.0472Y-3.3071
X7.0551Y-4.7953
X7.0866Y-3.5039
X7.0866Y-3.7795
X7.0866Y-4.8819
X7.0866Y-5.3937
X7.126Y-3.6614
X7.1654Y-3.8976
X7.1654Y-5.0394
X7.1654Y-5.1969
X7.185Y-4.1732
X7.2047Y-3.4252
X7.2047Y-4.5669
X7.2441Y-3.5827
X7.2441Y-4.8819
X7.2638Y-5.0984
X7.2835Y-3.3071
X7.2835Y-3.7795
X7.3228Y-3.6614
X7.3228Y-5.2362
X7.3425Y-5.0197
X7.3622Y-3.4252
X7.4016Y-3.5827
X7.4016Y-3.7795
X7.4016Y-4.8819
X7.4213Y-5.0984
X7.4803Y-5.2362
X7.5591Y-3.3071
X7.5591Y-3.4252
X7.5591Y-3.5827
X7.5591Y-3.6614
X7.5591Y-3.7795
X7.5591Y-4.9606
X7.5591Y-5.1181
X7.5787Y-4.4882
X7.5984Y-4.1142
X7.5984Y-5.2362
X7.5984Y-5.3543
X7.6378Y-4.8819
X7.7165Y-3.7795
X7.7559Y-4.8819
T2
X4.9303Y-3.4252
X5.0303Y-3.4252
T3
X4.9858Y-5.2346
X4.9858Y-5.3346
X5.0858Y-5.2346
X5.0858Y-5.3346
X5.1858Y-5.2346
X5.1858Y-5.3346
X5.2858Y-5.2346
X5.2858Y-5.3346
X5.3858Y-5.2346
X5.3858Y-5.3346
X5.4858Y-5.2346
X5.4858Y-5.3346
X5.5858Y-5.2346
X5.5858Y-5.3346
X5.6858Y-5.2346
X5.6858Y-5.3346
X5.7858Y-5.2346
X5.7858Y-5.3346
X5.8858Y-5.2346
X5.8858Y-5.3346
T4
X4.7244Y-4.8583
X4.9213Y-4.8583
T5
X7.2508Y-4.0134
X7.6366Y-4.6453
T0
M30
