M48
;DRILL file {KiCad 4.0.0-rc1-stable} date 10/26/2015 1:25:46 PM
;FORMAT={-:-/ absolute / inch / decimal}
FMAT,2
INCH,TZ
T1C0.016
T2C0.039
T3C0.040
T4C0.047
T5C0.059
T6C0.108
%
G90
G05
M72
T1
X4.5039Y-4.3858
X4.5118Y-3.5394
X4.5118Y-3.9803
X4.5354Y-5.1339
X4.7717Y-4.4843
X4.7717Y-4.563
X4.7717Y-4.6339
X4.7717Y-4.7047
X4.7992Y-3.6535
X4.8031Y-3.9331
X4.8228Y-3.3268
X5.1378Y-3.8031
X5.1417Y-3.4764
X5.1417Y-4.0591
X5.2047Y-4.2323
X5.2165Y-4.9882
X5.2559Y-4.6102
X5.2638Y-4.3976
X5.2756Y-3.3071
X5.2756Y-5.1181
X5.3031Y-4.6457
X5.3248Y-4.8622
X5.3346Y-4.2323
X5.3346Y-4.3504
X5.3346Y-4.9882
X5.3386Y-4.5984
X5.3465Y-4.4803
X5.3504Y-3.9803
X5.3504Y-4.0512
X5.3622Y-5.1575
X5.3937Y-3.9173
X5.4528Y-3.6024
X5.4724Y-4.0591
X5.4724Y-4.3307
X5.4724Y-4.5118
X5.4724Y-5.0472
X5.4823Y-4.8622
X5.4843Y-4.9094
X5.4921Y-3.8189
X5.5118Y-3.2992
X5.5118Y-5.1102
X5.5255Y-3.9825
X5.5472Y-4.0433
X5.5827Y-4.5039
X5.5906Y-3.7205
X5.622Y-4.5039
X5.6693Y-3.8425
X5.6693Y-4.6535
X5.6811Y-4.0354
X5.6811Y-4.5079
X5.685Y-5.0906
X5.689Y-3.622
X5.7126Y-4.4449
X5.7283Y-3.5039
X5.7362Y-5.1772
X5.7441Y-4.3898
X5.748Y-4.9882
X5.7638Y-4.5118
X5.7638Y-4.6457
X5.7638Y-4.7638
X5.7677Y-5.1496
X5.7874Y-3.7244
X5.8465Y-4.4094
X5.8465Y-4.6299
X5.8661Y-4.4783
X5.8701Y-4.7362
X5.8858Y-4.0157
X5.8858Y-4.7047
X5.8898Y-3.5039
X5.8898Y-3.622
X5.9055Y-4.4783
X5.9055Y-4.7343
X5.9134Y-5.0433
X5.9252Y-3.8583
X5.9528Y-4.6378
X5.9567Y-5.315
X5.9646Y-4.4528
X5.9764Y-3.5669
X6.Y-4.2244
X6.Y-5.2835
X6.0236Y-5.3937
X6.0866Y-3.4803
X6.1417Y-4.6457
X6.1417Y-5.1575
X6.1496Y-4.5039
X6.1811Y-4.7244
X6.1811Y-4.8819
X6.2008Y-3.8583
X6.2047Y-4.5039
X6.2205Y-3.4646
X6.2205Y-3.5236
X6.2205Y-3.5827
X6.2598Y-4.5039
X6.2598Y-4.6457
X6.2598Y-4.8031
X6.2717Y-4.3661
X6.2913Y-4.5433
X6.2992Y-4.5984
X6.2992Y-5.
X6.315Y-3.8583
X6.3307Y-3.2913
X6.3386Y-4.7244
X6.3386Y-4.8819
X6.3622Y-3.8583
X6.378Y-3.6063
X6.378Y-3.6693
X6.378Y-3.8268
X6.378Y-5.3937
X6.3898Y-3.8898
X6.4016Y-3.7323
X6.4016Y-3.7953
X6.4055Y-4.1929
X6.4055Y-4.2323
X6.4094Y-3.5512
X6.4173Y-3.3071
X6.4173Y-3.4252
X6.4173Y-4.437
X6.4173Y-4.8031
X6.4173Y-4.9606
X6.4173Y-5.1181
X6.4685Y-4.3937
X6.4803Y-3.5512
X6.4961Y-4.8819
X6.4961Y-5.0394
X6.5276Y-3.7874
X6.5276Y-3.9606
X6.5276Y-4.
X6.5276Y-4.1929
X6.5276Y-4.2323
X6.5276Y-4.3504
X6.5276Y-4.3937
X6.5354Y-3.3071
X6.5354Y-3.5827
X6.5354Y-3.7008
X6.5354Y-3.9213
X6.5354Y-5.2362
X6.5354Y-5.3937
X6.5748Y-3.4646
X6.5748Y-4.9606
X6.5748Y-5.1181
X6.5984Y-4.0472
X6.5984Y-4.2362
X6.6457Y-4.4921
X6.6535Y-3.3071
X6.6535Y-3.5827
X6.6535Y-3.7008
X6.6535Y-5.0394
X6.6535Y-5.1575
X6.6929Y-3.8189
X6.7559Y-4.6299
X6.7618Y-4.7638
X6.7717Y-3.5827
X6.7717Y-3.7008
X6.7717Y-5.0394
X6.7717Y-5.1575
X6.8504Y-3.8189
X6.8504Y-3.9764
X6.8504Y-4.7874
X6.8661Y-4.2756
X6.8661Y-4.3701
X6.8898Y-3.5827
X6.8898Y-3.7008
X6.8898Y-5.0394
X6.8898Y-5.1575
X7.0079Y-3.5827
X7.0079Y-3.7008
X7.0079Y-3.8583
X7.0079Y-4.1339
X7.0079Y-4.4094
X7.0079Y-4.685
X7.0079Y-5.0394
X7.0079Y-5.1969
X7.0551Y-4.7953
X7.0866Y-3.5039
X7.0866Y-5.1181
X7.0866Y-5.2756
X7.0866Y-5.3937
X7.126Y-3.3071
X7.126Y-3.622
X7.126Y-3.7008
X7.126Y-5.0197
X7.1654Y-3.4252
X7.1654Y-5.1575
X7.2047Y-3.5433
X7.2047Y-5.2756
X7.2047Y-5.3937
X7.2441Y-3.3071
X7.2441Y-3.6614
X7.2441Y-4.1339
X7.2441Y-4.4094
X7.2441Y-4.7244
X7.2441Y-4.8819
X7.2441Y-5.0197
X7.2756Y-3.8031
X7.2835Y-3.4252
X7.2835Y-5.1575
X7.3228Y-3.5433
X7.3228Y-3.8976
X7.3228Y-5.2756
X7.3228Y-5.3937
X7.3622Y-3.3071
X7.3622Y-3.6614
X7.3622Y-5.0197
X7.4016Y-3.4252
X7.4016Y-3.5827
X7.4016Y-3.8031
X7.4016Y-4.8819
X7.4016Y-5.1575
X7.4213Y-5.0787
X7.4409Y-3.937
X7.4409Y-4.252
X7.4409Y-4.5669
X7.4409Y-5.2756
X7.4409Y-5.3937
X7.4803Y-3.3071
X7.4803Y-3.8976
X7.5197Y-3.4252
X7.5433Y-3.8031
X7.5591Y-3.5827
X7.5591Y-3.6614
X7.5591Y-4.8819
X7.5591Y-4.9606
X7.5591Y-5.1181
X7.5591Y-5.2756
X7.5591Y-5.3543
X7.5984Y-3.3465
X7.5984Y-4.0945
X7.5984Y-4.4094
X7.6378Y-4.8819
X7.7165Y-3.7795
X7.7559Y-3.937
X7.7559Y-4.0945
X7.7559Y-4.252
X7.7559Y-4.4094
X7.7559Y-4.5669
X7.7559Y-4.7244
X7.7559Y-4.8819
T2
X4.6063Y-4.1528
X4.6063Y-4.2528
T3
X4.9858Y-5.2346
X4.9858Y-5.3346
X5.0858Y-5.2346
X5.0858Y-5.3346
X5.1858Y-5.2346
X5.1858Y-5.3346
X5.2858Y-5.2346
X5.2858Y-5.3346
X5.3858Y-5.2346
X5.3858Y-5.3346
X5.4858Y-5.2346
X5.4858Y-5.3346
X5.5858Y-5.2346
X5.5858Y-5.3346
X5.6858Y-5.2346
X5.6858Y-5.3346
X5.7858Y-5.2346
X5.7858Y-5.3346
X5.8858Y-5.2346
X5.8858Y-5.3346
T4
X4.8622Y-4.0157
X5.0591Y-4.0157
T5
X7.2508Y-4.0134
X7.6366Y-4.6453
T6
X4.6063Y-3.3858
X4.6063Y-5.315
X6.8898Y-3.3858
X6.8898Y-5.315
T0
M30
