G04 #@! TF.FileFunction,Legend,Bot*
%FSLAX46Y46*%
G04 Gerber Fmt 4.6, Leading zero omitted, Abs format (unit mm)*
G04 Created by KiCad (PCBNEW 4.0.0-rc1-stable) date 10/1/2015 4:54:29 PM*
%MOMM*%
G01*
G04 APERTURE LIST*
%ADD10C,0.100000*%
%ADD11C,0.150000*%
G04 APERTURE END LIST*
D10*
D11*
X125370000Y-131690000D02*
X150770000Y-131690000D01*
X148230000Y-136770000D02*
X125370000Y-136770000D01*
X125370000Y-131690000D02*
X125370000Y-136770000D01*
X150770000Y-131690000D02*
X150770000Y-134230000D01*
X151050000Y-135500000D02*
X151050000Y-137050000D01*
X150770000Y-134230000D02*
X148230000Y-134230000D01*
X148230000Y-134230000D02*
X148230000Y-136770000D01*
X151050000Y-137050000D02*
X149500000Y-137050000D01*
X155052381Y-134285714D02*
X154052381Y-134285714D01*
X154052381Y-134666667D01*
X154100000Y-134761905D01*
X154147619Y-134809524D01*
X154242857Y-134857143D01*
X154385714Y-134857143D01*
X154480952Y-134809524D01*
X154528571Y-134761905D01*
X154576190Y-134666667D01*
X154576190Y-134285714D01*
X154147619Y-135238095D02*
X154100000Y-135285714D01*
X154052381Y-135380952D01*
X154052381Y-135619048D01*
X154100000Y-135714286D01*
X154147619Y-135761905D01*
X154242857Y-135809524D01*
X154338095Y-135809524D01*
X154480952Y-135761905D01*
X155052381Y-135190476D01*
X155052381Y-135809524D01*
X154052381Y-136666667D02*
X154052381Y-136476190D01*
X154100000Y-136380952D01*
X154147619Y-136333333D01*
X154290476Y-136238095D01*
X154480952Y-136190476D01*
X154861905Y-136190476D01*
X154957143Y-136238095D01*
X155004762Y-136285714D01*
X155052381Y-136380952D01*
X155052381Y-136571429D01*
X155004762Y-136666667D01*
X154957143Y-136714286D01*
X154861905Y-136761905D01*
X154623810Y-136761905D01*
X154528571Y-136714286D01*
X154480952Y-136666667D01*
X154433333Y-136571429D01*
X154433333Y-136380952D01*
X154480952Y-136285714D01*
X154528571Y-136238095D01*
X154623810Y-136190476D01*
M02*
